<svg width="632" height="588" viewBox="0 0 632 588" fill="none" xmlns="http://www.w3.org/2000/svg">
<path d="M380.422 3.96896C381.976 2.28122 384.773 2.89208 385.482 5.0742L392.111 25.4782C404.81 64.5592 446.592 86.1448 485.813 73.8866L506.291 67.4866C508.481 66.8022 510.597 68.7294 510.12 70.9737L505.66 91.9589C497.116 132.153 522.508 171.738 562.604 180.733L583.537 185.429C585.776 185.931 586.645 188.658 585.11 190.364L570.755 206.307C543.259 236.845 545.456 283.822 575.683 311.66L591.464 326.193C593.152 327.748 592.541 330.544 590.359 331.253L569.955 337.883C530.874 350.581 509.288 392.364 521.546 431.585L527.946 452.062C528.631 454.252 526.703 456.369 524.459 455.892L503.474 451.431C463.28 442.888 423.695 468.279 414.7 508.375L410.004 529.309C409.502 531.548 406.774 532.417 405.069 530.882L389.126 516.526C358.588 489.03 311.611 491.228 283.773 521.454L269.24 537.235C267.685 538.923 264.889 538.312 264.18 536.13L257.55 515.726C244.852 476.645 203.069 455.06 163.848 467.318L143.371 473.718C141.181 474.402 139.064 472.475 139.541 470.231L144.002 449.245C152.545 409.051 127.154 369.466 87.0577 360.472L66.124 355.775C63.8852 355.273 63.0159 352.546 64.5512 350.841L78.9067 334.897C106.403 304.36 104.205 257.382 73.9786 229.545L58.1975 215.011C56.5097 213.457 57.1206 210.66 59.3027 209.951L79.7067 203.321C118.788 190.623 140.373 148.841 128.115 109.619L121.715 89.1422C121.031 86.9523 122.958 84.8358 125.202 85.3129L146.187 89.7733C186.382 98.3168 225.967 72.925 234.961 32.8292L239.657 11.8955C240.16 9.65668 242.887 8.78744 244.592 10.3227L260.536 24.6782C291.073 52.1742 338.051 49.9767 365.888 19.7501L380.422 3.96896Z" fill="#FC9596" stroke="black" stroke-width="4.49998"/>
<path d="M73.057 413.926C73.7598 413.297 74.3708 412.584 74.9015 411.84C74.9739 411.995 75.0506 412.15 75.1316 412.304C75.983 413.929 77.3274 415.564 79.4145 416.717C81.4983 417.869 84.1782 418.461 87.5723 418.245C92.1729 417.952 94.8199 414.731 96.31 410.792C97.7799 406.908 98.3357 401.862 98.6114 396.817C98.7506 394.269 98.8203 391.661 98.8872 389.14L98.8888 389.078C98.9553 386.568 99.0195 384.149 99.1453 381.904C99.2724 379.637 99.4599 377.6 99.7631 375.878C99.9331 374.912 100.132 374.088 100.358 373.403C100.406 373.503 100.455 373.609 100.505 373.719C101.16 375.158 101.84 377.016 102.621 379.153C103.177 380.671 103.783 382.33 104.469 384.078C106.048 388.105 107.999 392.455 110.486 395.54C111.739 397.094 113.22 398.444 114.977 399.227C116.79 400.036 118.789 400.189 120.892 399.5C123.119 398.77 124.73 397.345 125.743 395.42C126.723 393.557 127.097 391.321 127.11 388.957C127.134 384.249 125.719 378.405 123.751 372.364C121.768 366.282 119.157 359.805 116.665 353.782C116.207 352.674 115.753 351.582 115.307 350.511C113.318 345.728 111.504 341.366 110.228 337.796C109.219 334.974 109.738 331.378 111.707 327.127C113.659 322.913 116.901 318.356 120.818 313.823C128.646 304.766 138.891 296.124 145.935 290.945L145.943 290.94C149.709 288.145 156.196 285.222 163.632 282.492C182.538 275.552 196.213 257.796 194.893 237.411L193.462 215.326C193.055 209.054 187.759 204.031 181.23 205.116C170.77 206.855 152.612 211.575 130.846 224.379C96.7695 244.424 66.8004 266.214 50.5694 304.455C40.3482 328.537 35.103 351.918 35.5269 370.388C35.939 388.347 41.7893 402.456 54.6106 407.121C54.6576 407.211 54.7086 407.306 54.7636 407.408C55.1066 408.041 55.6095 408.906 56.2519 409.837C57.4905 411.632 59.4361 413.956 61.9676 415.113C64.2561 416.159 66.3692 416.499 68.2978 416.216C70.2291 415.932 71.8049 415.047 73.057 413.926ZM101.05 371.863C101.051 371.863 101.047 371.868 101.038 371.878C101.046 371.867 101.05 371.862 101.05 371.863Z" fill="#4B9EE9" stroke="black" stroke-width="4" stroke-linecap="round"/>
<path d="M93.8567 289.103L93.8603 289.103C116.36 297.603 120.27 307.603 120.27 311.415C111.807 320.943 105.711 331.101 108.345 338.47C114.678 356.185 134.049 393.084 120.27 397.6C107.267 401.861 103.119 364.196 99.2205 371.014C94.0206 380.106 101.397 415.361 87.4455 416.25C75.0758 417.038 75.6391 405.913 75.6391 405.913C74.2715 409.791 70.8447 416.971 62.7994 413.294C58.7501 411.443 56.0347 405.497 56.0347 405.497C31.8109 397.604 32.1118 353.063 52.4108 305.237C61.3799 284.105 80.8568 287.102 93.8567 289.103Z" fill="white"/>
<path d="M74.9351 410.805C74.7304 403.087 75.118 385.268 76.486 376.602" stroke="black" stroke-width="4" stroke-linecap="round"/>
<path d="M54.6054 406.591C52.3016 393.139 53.9546 378.917 56.6896 369.602" stroke="black" stroke-width="4" stroke-linecap="round"/>
<path d="M49.3601 309.602C53.6441 306.405 65.5245 302.442 78.3601 303.602C89.5246 305.442 101.688 313.385 103.86 316.602" stroke="black" stroke-width="4.49998" stroke-linecap="round"/>
<path d="M57.9131 292.943C63.9383 288.932 80.1343 282.551 96.7166 289.113C110.068 294.889 118.806 305.421 121.506 309.965" stroke="black" stroke-width="4.49998" stroke-linecap="round"/>
<path d="M145.859 287.942C145.86 263.6 153.86 224.602 167.86 209.102C172.48 206.716 181.726 206.032 184.359 206.683C194.859 209.277 201.859 254.557 175.859 272.194C170.861 273.912 145.859 292.714 145.859 287.942Z" fill="black"/>
<path d="M366.359 480.602C361.602 470.135 343.289 441.597 335.359 436.602C361.241 435.84 380.357 428.639 386.859 426.102C390.428 430.304 401.531 460.467 406.859 469.602C412.188 478.736 415.044 499.925 416.867 507.934C418.374 511.582 419.008 521.731 409.493 533.15C399.977 544.568 387.29 542.031 382.136 539.335L373.334 497.229C372.621 497.864 371.117 491.068 366.359 480.602Z" fill="#4B9EE9"/>
<path d="M406.711 478.052C405.78 484.721 384.999 493.366 374.725 496.855H372.98L381.703 533.494L391.009 535.239L402.834 533.494L406.711 527.872L409.813 519.343L417.373 514.496C414.207 499.569 407.641 471.383 406.711 478.052Z" fill="white"/>
<path d="M250.584 466.452C244.273 473.691 225.528 477.975 216.944 479.212C212.227 481.841 202.514 489.095 201.4 497.076C200.008 507.052 216.944 516.564 235.736 515.172C254.527 513.78 266.359 504.732 281.671 497.076C293.921 490.951 307.655 467.148 312.991 456.012C310.903 455.858 326.31 434.401 315.36 433.102C304.41 431.802 280.19 428.654 275.86 426.102C272.86 444.102 256.894 459.214 250.584 466.452Z" fill="#4B9EE9"/>
<path d="M351.859 454.602L336.359 436.869C349.97 436.869 375.08 430.024 385.934 426.602L393.267 434.815L351.859 454.602Z" fill="black"/>
<path d="M272.359 435.575L276.058 425.602C286.618 430.764 311.552 434.402 322.699 435.575L308.359 463.102L272.359 435.575Z" fill="black"/>
<path d="M212.08 490.651C212.235 486.929 215.117 480.958 216.538 478.438C226.309 478.438 241.158 472.493 247.361 469.521C247.943 473.721 249.455 483.594 250.851 489.488C252.247 495.381 261.901 502.541 266.553 505.384C262.87 506.935 255.038 510.347 253.177 511.587C251.316 512.828 240.124 514.689 234.761 515.464C234.115 514.43 232.473 511.897 231.078 510.036C229.333 507.71 221.579 506.547 216.538 503.639C211.498 500.731 211.886 495.303 212.08 490.651Z" fill="white"/>
<path d="M275.08 427.102C269.86 451.102 251.761 470.249 234.456 474.47C212.825 479.746 203.845 482.115 201.854 484.629C200.185 486.739 187.501 507.972 214.408 512.984C241.315 517.996 258.725 511.138 275.08 501.114C287.526 493.486 312.36 468.602 321.86 435.602" stroke="black" stroke-width="4.49998" stroke-linecap="round"/>
<path d="M337.859 435.102C352.359 452.602 369.554 486.501 374.873 505.499C377.716 515.652 379.872 525.308 381.384 533.053C383.063 541.654 390.384 548.561 398.998 546.947C408.052 545.251 416.79 541.332 417.619 533.284C419.281 517.135 416.036 493.157 407.859 471.602C402.359 457.102 393.859 433.602 386.859 425.102" stroke="black" stroke-width="4.49998" stroke-linecap="round"/>
<path d="M174.787 485.755C178.148 475.472 205.356 476.362 218.539 478.092C212.854 480.563 209.962 491.663 212.606 499.597C216.561 511.462 231.887 502.811 236.337 518.878C238.203 525.616 220.022 587.844 193.573 579.192C167.124 570.541 170.584 498.609 174.787 485.755Z" fill="#F8C701" stroke="black" stroke-width="4.49998" stroke-linecap="round"/>
<path d="M186.755 479.426C183.286 486.941 180.13 507.511 182.229 529.53C184.867 557.204 189.88 567.29 199.642 570.911C207.451 573.808 212.922 572.118 214.68 570.911" stroke="black" stroke-width="4.49998" stroke-linecap="round"/>
<path d="M397.678 585.075C385.433 583.067 381.269 550.62 381.186 533.473C384.029 534.393 392.561 537.435 400.759 533.473C412.744 527.682 403.751 518.199 418.826 514.151C438.571 508.85 484.73 512.736 486.076 530.462C487.582 550.286 412.986 587.584 397.678 585.075Z" fill="#F8C701" stroke="black" stroke-width="4.49998" stroke-linecap="round"/>
<path d="M389.428 576.825C411.847 571.265 465.437 548.703 481.077 522.302" stroke="black" stroke-width="4.49998" stroke-linecap="round"/>
<path d="M248.118 469.106C247.152 478.909 249.766 499.805 267.945 504.974" stroke="black" stroke-width="4.49998" stroke-linecap="round"/>
<path d="M372.202 496.799C382.592 494.256 400.62 489.5 406.079 476.384" stroke="black" stroke-width="4.49998" stroke-linecap="round"/>
<path d="M562.716 266.795C555.677 274.001 508.555 286.259 497.106 286.259C491.66 311.606 476.725 343.527 457.034 365.522C463.109 366.36 505.948 360.43 526.896 354.774C541.976 350.702 570.885 334.455 583.244 325.866C587.852 331.941 596.231 329.009 606.705 327.333C617.179 325.657 626.605 318.535 627.862 311.413C629.119 304.291 620.74 305.757 624.51 302.824C628.281 299.892 629.538 292.979 629.119 288.79C628.783 285.438 624.65 283.623 622.625 283.134C623.672 282.017 625.935 279.322 626.605 277.478C627.443 275.174 631.842 270.147 622.625 262.187C613.408 254.227 603.982 256.95 597.488 255.274C599.834 246.057 598.466 229.788 597.488 222.805C596.161 219.524 591.455 213.128 583.244 213.798C572.98 214.636 571.513 257.788 562.716 266.795Z" fill="#4B9EE9"/>
<path d="M482.574 362.44C490.094 352.028 496.995 306.703 499.284 286.699H490.859C488.811 293.207 488.945 308.607 486.632 318.151C484.318 327.695 467.11 352.494 458.795 363.701C465.841 363.701 472.446 363.701 482.574 362.44Z" fill="black"/>
<path d="M583.243 213.798C572.979 214.636 573.111 264.61 561.262 268.87C543.253 275.347 531.013 280.094 531.013 280.094C526.845 290.242 540.125 370.09 583.243 325.866C587.852 331.941 596.231 329.009 606.704 327.333C617.178 325.657 626.604 318.535 627.861 311.413C629.118 304.291 620.739 305.757 624.509 302.824C628.28 299.892 629.537 292.979 629.118 288.79C628.783 285.438 624.649 283.623 622.624 283.134C623.672 282.017 625.934 279.322 626.604 277.478C627.442 275.174 631.841 270.147 622.624 262.187C613.407 254.227 603.981 256.95 597.487 255.274C599.833 246.057 598.465 229.788 597.487 222.805C596.161 219.524 591.454 213.128 583.243 213.798Z" fill="white"/>
<path d="M493.86 287.102C517.639 284.459 561.636 272.88 567.7 259.192C575.28 242.082 573.547 211.545 587.192 213.711C600.836 215.877 601.702 242.516 598.02 255.51C607.405 255.799 626.197 259.155 626.825 270.671C627.748 287.584 604.301 294.494 587.192 294.927C572.879 295.29 572.157 282.24 577.229 277.168C580.911 273.486 586.975 272.403 588.708 271.754" stroke="black" stroke-width="4.49998" stroke-linecap="round"/>
<path d="M624.226 283.016C626.753 284.026 631.28 289.468 628.557 296.66C624.226 308.103 590.224 318.101 581.56 309.871C575.436 304.053 580.045 296.876 581.561 295.361" stroke="black" stroke-width="4.49998" stroke-linecap="round"/>
<path d="M622.398 303.392C624.573 304.261 628.469 308.945 626.126 315.136C622.398 324.985 593.13 333.591 585.673 326.507C580.402 321.499 584.369 315.322 585.674 314.017" stroke="black" stroke-width="4.49998" stroke-linecap="round"/>
<path d="M458.355 363.761C501.069 363.761 554.782 349.816 583.521 324.415" stroke="black" stroke-width="4.49998" stroke-linecap="round"/>
<path d="M543.343 277.893C542.186 298.789 552.123 326.451 568.008 334.803" stroke="black" stroke-width="4.49998" stroke-linecap="round"/>
<path d="M531.013 280.535C529.775 302.88 540.322 332.454 557.198 341.379" stroke="black" stroke-width="4.49998" stroke-linecap="round"/>
<ellipse cx="326.359" cy="270.602" rx="166" ry="165" fill="#F8C701" stroke="black" stroke-width="4.49998"/>
<ellipse cx="242.603" cy="273.979" rx="22.845" ry="28.1756" transform="rotate(20.4295 242.603 273.979)" fill="#FC9596" stroke="black" stroke-width="4"/>
<ellipse rx="21.3985" ry="26.3915" transform="matrix(-0.987191 0.15954 0.15954 0.987191 455.694 289.531)" fill="#FC9596" stroke="black" stroke-width="4"/>
<ellipse rx="31.1753" ry="39.6299" transform="matrix(-0.996889 -0.078822 -0.117054 0.993126 324.513 243.357)" fill="white" stroke="black" stroke-width="4" stroke-linecap="round"/>
<path d="M337.673 206.992C324.444 218.693 303.771 250.909 330.116 280.663C353.247 277.152 367.687 220.832 337.673 206.992Z" fill="black"/>
<ellipse rx="31.1753" ry="39.6299" transform="matrix(-0.996889 -0.078822 -0.117054 0.993126 380.523 247.785)" fill="white" stroke="black" stroke-width="4" stroke-linecap="round"/>
<path d="M393.646 211.888C380.416 223.588 360.544 254.429 386.89 284.183C410.021 280.672 423.66 225.727 393.646 211.888Z" fill="black"/>
<path d="M394.956 186.288C405.858 182.503 422.311 186.063 427.447 202.009" stroke="black" stroke-width="4.49998" stroke-linecap="round"/>
<path d="M335.839 180.91C324.214 172.023 305.784 172.134 297.36 185.674" stroke="black" stroke-width="4.49998" stroke-linecap="round"/>
<path d="M290.277 303.782C304.272 291.643 316.385 318.027 348.319 320.98C380.252 323.932 394.717 301.479 404.21 316.68C412.803 330.442 383.082 354.992 343.606 351.343C300.647 347.371 276.808 315.466 290.277 303.782Z" fill="#FC9596" stroke="black" stroke-width="4" stroke-linecap="round" stroke-linejoin="round"/>
<path d="M303.118 316.593C317.782 333.635 361.576 348.356 390.298 325.716" stroke="black" stroke-width="4" stroke-linecap="round" stroke-linejoin="round"/>
</svg>
