<svg width="24" height="24" viewBox="0 0 24 24" fill="none" xmlns="http://www.w3.org/2000/svg">
<path d="M19.96 13.1539C19.829 14.5716 19.2969 15.9227 18.426 17.0491C17.5552 18.1754 16.3815 19.0305 15.0424 19.5142C13.7034 19.9979 12.2542 20.0902 10.8646 19.7803C9.47491 19.4705 8.20226 18.7713 7.1955 17.7645C6.18874 16.7577 5.48953 15.4851 5.17967 14.0954C4.86981 12.7058 4.96213 11.2566 5.44582 9.91756C5.92951 8.57847 6.78456 7.40482 7.91093 6.53396C9.0373 5.66309 10.3884 5.13102 11.8061 5C10.9761 6.12294 10.5767 7.5065 10.6805 8.89905C10.7844 10.2916 11.3846 11.6006 12.372 12.588C13.3594 13.5754 14.6684 14.1756 16.061 14.2795C17.4535 14.3833 18.8371 13.9839 19.96 13.1539Z" stroke="white" stroke-width="2" stroke-linecap="round" stroke-linejoin="round"/>
</svg>
