<svg width="24" height="24" viewBox="0 0 24 24" fill="none" xmlns="http://www.w3.org/2000/svg">
<path fill-rule="evenodd" clip-rule="evenodd" d="M17.3988 4.79438C17.6331 4.4774 17.6593 4.05237 17.4658 3.70899C17.2722 3.36561 16.8951 3.16794 16.5026 3.20421C15.4605 3.30051 14.4675 3.69159 13.6396 4.33168C12.8117 4.97178 12.1832 5.83442 11.8277 6.81867C11.6782 7.23241 11.5796 7.66044 11.5324 8.09351C11.192 8.03191 10.8465 8.00055 10.4999 8C9.05872 7.99918 7.66543 8.5171 6.57474 9.45906C5.48404 10.401 4.76883 11.7041 4.55986 13.13C3.74606 13.3582 3.04232 13.8732 2.57863 14.5799C2.11494 15.2865 1.92262 16.1371 2.0372 16.9745C2.15178 17.8119 2.56551 18.5795 3.20198 19.1356C3.83845 19.6918 4.65466 19.9988 5.49986 20H14.6699C15.8183 20 16.9196 19.5438 17.7316 18.7318C18.5437 17.9197 18.9999 16.8184 18.9999 15.67C18.999 15.139 18.8972 14.613 18.6999 14.12C18.6769 14.0637 18.654 14.009 18.631 13.956C18.715 13.9301 18.7984 13.9022 18.8813 13.8723C19.8655 13.5168 20.7282 12.8883 21.3683 12.0604C22.0084 11.2325 22.3995 10.2394 22.4958 9.19739C22.532 8.80491 22.3344 8.42772 21.991 8.2342C21.6476 8.04068 21.2226 8.06692 20.9056 8.30121C20.4226 8.65819 19.8276 8.82998 19.2287 8.78531C18.6298 8.74065 18.0668 8.48251 17.6421 8.05784C17.2175 7.63318 16.9593 7.07019 16.9147 6.47129C16.87 5.87238 17.0418 5.27733 17.3988 4.79438ZM17.2578 12.1912C17.5786 12.1684 17.8963 12.1016 18.2019 11.9912C18.8288 11.7648 19.3783 11.3644 19.786 10.8371C19.8025 10.8158 19.8187 10.7943 19.8346 10.7727C19.5851 10.796 19.3327 10.7986 19.08 10.7798C18.0033 10.6995 16.9913 10.2355 16.2279 9.47206C15.4645 8.70866 15.0005 7.69663 14.9202 6.62002C14.9013 6.36723 14.9039 6.11483 14.9273 5.86532C14.9056 5.88126 14.8842 5.89746 14.8629 5.91392C14.3355 6.32166 13.9352 6.87116 13.7087 7.49812C13.5633 7.90064 13.4935 8.32441 13.5005 8.74843C13.5009 8.77137 13.5005 8.79415 13.4993 8.81673C13.6249 8.88586 13.7597 8.96279 13.9099 9.05C14.8183 9.67641 15.5404 10.5368 15.9999 11.54C16.3775 11.662 16.7373 11.8335 17.0699 12.05C17.1352 12.0979 17.1978 12.1448 17.2578 12.1912ZM14.6699 18H5.49986C5.10204 18 4.72051 17.842 4.4392 17.5607C4.1579 17.2794 3.99986 16.8978 3.99986 16.5C3.99986 16.1022 4.1579 15.7206 4.4392 15.4393C4.72051 15.158 5.10204 15 5.49986 15C5.76508 15 6.01943 14.8946 6.20697 14.7071C6.39451 14.5196 6.49986 14.2652 6.49986 14C6.50415 13.0557 6.84239 12.1434 7.4547 11.4245C8.06702 10.7056 8.91392 10.2265 9.84552 10.072C10.7771 9.91757 11.7333 10.0977 12.5449 10.5805C13.3564 11.0633 13.971 11.8176 14.2799 12.71C14.337 12.8818 14.4398 13.0349 14.5772 13.1529C14.7145 13.2709 14.8814 13.3494 15.0599 13.38C15.6275 13.4861 16.1354 13.7992 16.4853 14.2586C16.8352 14.718 17.002 15.2909 16.9534 15.8663C16.9048 16.4417 16.6443 16.9785 16.2224 17.3728C15.8005 17.767 15.2472 17.9905 14.6699 18Z" fill="white"/>
</svg>
