<svg width="24" height="24" viewBox="0 0 24 24" fill="none" xmlns="http://www.w3.org/2000/svg">
<path d="M21 9H20.2C20.0966 8.55129 19.921 8.12237 19.68 7.73L20.24 7.17C20.4038 6.9787 20.4894 6.73262 20.4797 6.48095C20.47 6.22927 20.3657 5.99053 20.1876 5.81244C20.0095 5.63434 19.7707 5.53001 19.5191 5.52029C19.2674 5.51057 19.0213 5.59617 18.83 5.76L18.27 6.32C17.8776 6.07901 17.4487 5.90339 17 5.8V5C17 4.73478 16.8946 4.48043 16.7071 4.29289C16.5196 4.10536 16.2652 4 16 4C15.7348 4 15.4804 4.10536 15.2929 4.29289C15.1054 4.48043 15 4.73478 15 5V5.8C14.5539 5.90181 14.128 6.07758 13.74 6.32L13.17 5.76C12.9787 5.59617 12.7326 5.51057 12.4809 5.52029C12.2293 5.53001 11.9905 5.63434 11.8124 5.81244C11.6343 5.99053 11.53 6.22927 11.5203 6.48095C11.5106 6.73262 11.5962 6.9787 11.76 7.17L12.32 7.74C12.23 7.89 12.16 8.06 12.08 8.22C11.5659 8.07487 11.0342 8.00084 10.5 8C9.05886 7.99918 7.66556 8.5171 6.57487 9.45906C5.48418 10.401 4.76897 11.7041 4.56 13.13C3.74619 13.3582 3.04245 13.8732 2.57877 14.5799C2.11508 15.2865 1.92276 16.1371 2.03734 16.9745C2.15192 17.8119 2.56565 18.5795 3.20212 19.1356C3.83859 19.6918 4.6548 19.9988 5.5 20H14.67C15.8184 20 16.9197 19.5438 17.7318 18.7318C18.5438 17.9197 19 16.8184 19 15.67C18.9991 15.139 18.8973 14.613 18.7 14.12L18.83 14.24C19.0163 14.4247 19.2677 14.5289 19.53 14.53C19.6616 14.5308 19.7921 14.5055 19.9139 14.4558C20.0357 14.406 20.1466 14.3327 20.24 14.24C20.4263 14.0526 20.5308 13.7992 20.5308 13.535C20.5308 13.2708 20.4263 13.0174 20.24 12.83L19.68 12.27C19.921 11.8776 20.0966 11.4487 20.2 11H21C21.2652 11 21.5196 10.8946 21.7071 10.7071C21.8946 10.5196 22 10.2652 22 10C22 9.73478 21.8946 9.48043 21.7071 9.29289C21.5196 9.10536 21.2652 9 21 9ZM14.67 18H5.5C5.10218 18 4.72065 17.842 4.43934 17.5607C4.15804 17.2794 4 16.8978 4 16.5C4 16.1022 4.15804 15.7206 4.43934 15.4393C4.72065 15.158 5.10218 15 5.5 15C5.76522 15 6.01957 14.8946 6.20711 14.7071C6.39464 14.5196 6.5 14.2652 6.5 14C6.50429 13.0557 6.84253 12.1434 7.45484 11.4245C8.06715 10.7056 8.91406 10.2265 9.84566 10.072C10.7772 9.91757 11.7335 10.0977 12.545 10.5805C13.3566 11.0633 13.9712 11.8176 14.28 12.71C14.3372 12.8818 14.4399 13.0349 14.5773 13.1529C14.7147 13.2709 14.8815 13.3494 15.06 13.38C15.6276 13.4861 16.1356 13.7992 16.4854 14.2586C16.8353 14.718 17.0021 15.2909 16.9535 15.8663C16.905 16.4417 16.6445 16.9785 16.2225 17.3728C15.8006 17.767 15.2474 17.9905 14.67 18ZM17.67 11.65C17.4937 11.8159 17.2909 11.9511 17.07 12.05C16.7374 11.8335 16.3776 11.662 16 11.54C15.5405 10.5368 14.8184 9.67641 13.91 9.05C14.0193 8.79349 14.1752 8.55951 14.37 8.36C14.8174 7.94532 15.405 7.71493 16.015 7.71493C16.625 7.71493 17.2126 7.94532 17.66 8.36V8.36C18.0889 8.8022 18.3287 9.394 18.3287 10.01C18.3287 10.626 18.0889 11.2178 17.66 11.66L17.67 11.65Z" fill="black"/>
</svg>
