<svg width="24" height="24" viewBox="0 0 24 24" fill="none" xmlns="http://www.w3.org/2000/svg">
<path d="M18.42 9.20997C17.8083 7.80578 16.7529 6.64097 15.4157 5.89413C14.0785 5.14729 12.5333 4.85964 11.0169 5.0753C9.5005 5.29095 8.0967 5.998 7.02071 7.08803C5.94473 8.17807 5.25596 9.59092 5.06 11.11C4.10658 11.3383 3.27022 11.9088 2.70973 12.7132C2.14925 13.5175 1.90368 14.4997 2.01966 15.4732C2.13564 16.4467 2.60509 17.3437 3.33886 17.9938C4.07264 18.644 5.01963 19.002 6 19H17C18.1994 18.9967 19.3576 18.5624 20.2634 17.7763C21.1692 16.9902 21.7623 15.9046 21.9344 14.7177C22.1066 13.5308 21.8464 12.3215 21.2012 11.3104C20.5561 10.2994 19.569 9.5539 18.42 9.20997V9.20997ZM17 17H6C5.46956 17 4.96086 16.7893 4.58578 16.4142C4.21071 16.0391 4 15.5304 4 15C4 14.4695 4.21071 13.9608 4.58578 13.5858C4.96086 13.2107 5.46956 13 6 13C6.26521 13 6.51957 12.8946 6.7071 12.7071C6.89464 12.5195 7 12.2652 7 12C7.00255 10.8173 7.42428 9.67372 8.19027 8.77256C8.95625 7.87139 10.0169 7.27092 11.1837 7.07785C12.3506 6.88477 13.5481 7.11158 14.5636 7.71798C15.579 8.32438 16.3466 9.27111 16.73 10.39C16.7887 10.5599 16.8921 10.711 17.0293 10.8271C17.1666 10.9433 17.3327 11.0203 17.51 11.05C18.243 11.1852 18.8994 11.5885 19.3513 12.1812C19.8032 12.774 20.0183 13.5137 19.9547 14.2564C19.891 14.999 19.5532 15.6914 19.007 16.1986C18.4608 16.7057 17.7453 16.9914 17 17V17Z" fill="black"/>
</svg>
