<svg width="24" height="24" viewBox="0 0 24 24" fill="none" xmlns="http://www.w3.org/2000/svg">
<path d="M19.47 10.54C18.9961 9.48575 18.2278 8.59082 17.2574 7.96282C16.287 7.33482 15.1559 7.00048 14 7C13.5311 7.00378 13.0644 7.06422 12.61 7.18C12.0408 6.37654 11.247 5.75903 10.3283 5.40491C9.40951 5.0508 8.40663 4.97584 7.44543 5.18944C6.48423 5.40304 5.6075 5.89569 4.92518 6.6056C4.24286 7.31552 3.78534 8.21109 3.61 9.18C2.95574 9.41554 2.40362 9.87104 2.04805 10.4686C1.69248 11.0662 1.55554 11.7688 1.66065 12.4561C1.76577 13.1435 2.10641 13.773 2.62432 14.2371C3.14223 14.7011 3.80525 14.9708 4.5 15H5.5C5.48957 15.1665 5.48957 15.3335 5.5 15.5C5.5 16.4283 5.86875 17.3185 6.52513 17.9749C7.18151 18.6312 8.07174 19 9 19H18.17C19.2043 18.9998 20.2043 18.6294 20.9892 17.9558C21.7741 17.2822 22.2919 16.3499 22.449 15.3276C22.6061 14.3054 22.3921 13.2606 21.8456 12.3824C21.2992 11.5043 20.4565 10.8507 19.47 10.54ZM4.5 13C4.23478 13 3.98043 12.8946 3.79289 12.7071C3.60536 12.5196 3.5 12.2652 3.5 12C3.5 11.7348 3.60536 11.4804 3.79289 11.2929C3.98043 11.1054 4.23478 11 4.5 11C4.76522 11 5.01957 10.8946 5.20711 10.7071C5.39464 10.5196 5.5 10.2652 5.5 10C5.5 9.20435 5.81607 8.44129 6.37868 7.87868C6.94129 7.31607 7.70435 7 8.5 7C8.91938 7.00225 9.33363 7.09241 9.71601 7.26465C10.0984 7.4369 10.4404 7.6874 10.72 8C10.0103 8.46175 9.40641 9.06848 8.94795 9.78029C8.4895 10.4921 8.18688 11.2929 8.06 12.13C7.49477 12.2892 6.97885 12.5884 6.56 13H4.5ZM18.17 17H9C8.60218 17 8.22065 16.842 7.93934 16.5607C7.65804 16.2794 7.5 15.8978 7.5 15.5C7.5 15.1022 7.65804 14.7206 7.93934 14.4393C8.22065 14.158 8.60218 14 9 14C9.26522 14 9.51957 13.8946 9.70711 13.7071C9.89464 13.5196 10 13.2652 10 13C10.0043 12.0557 10.3425 11.1434 10.9548 10.4245C11.5672 9.70558 12.4141 9.2265 13.3457 9.07204C14.2772 8.91757 15.2335 9.09767 16.045 9.58047C16.8566 10.0633 17.4712 10.8176 17.78 11.71C17.8372 11.8818 17.9399 12.0349 18.0773 12.1529C18.2147 12.2709 18.3815 12.3494 18.56 12.38C19.1276 12.4861 19.6356 12.7992 19.9854 13.2586C20.3353 13.718 20.5021 14.2909 20.4535 14.8663C20.405 15.4417 20.1445 15.9785 19.7225 16.3728C19.3006 16.767 18.7474 16.9905 18.17 17V17Z" fill="black"/>
</svg>
