<svg width="24" height="24" viewBox="0 0 24 24" fill="none" xmlns="http://www.w3.org/2000/svg">
<path d="M19.4698 10.5399C18.9959 9.48569 18.2276 8.59076 17.2572 7.96276C16.2868 7.33476 15.1557 7.00042 13.9998 6.99994C13.5309 7.00372 13.0642 7.06416 12.6098 7.17994C12.0406 6.37648 11.2468 5.75897 10.3281 5.40485C9.40931 5.05074 8.40644 4.97578 7.44523 5.18938C6.48403 5.40298 5.6073 5.89563 4.92498 6.60554C4.24266 7.31545 3.78514 8.21103 3.6098 9.17994C2.95554 9.41548 2.40342 9.87098 2.04785 10.4686C1.69228 11.0662 1.55534 11.7687 1.66046 12.4561C1.76557 13.1435 2.10621 13.773 2.62412 14.237C3.14203 14.701 3.80505 14.9707 4.4998 14.9999H5.4998C5.48938 15.1664 5.48938 15.3334 5.4998 15.4999C5.4998 16.4282 5.86855 17.3184 6.52493 17.9748C7.18131 18.6312 8.07155 18.9999 8.9998 18.9999H18.1698C19.2041 18.9998 20.2041 18.6294 20.989 17.9558C21.7739 17.2822 22.2917 16.3499 22.4488 15.3276C22.6059 14.3053 22.3919 13.2605 21.8454 12.3824C21.299 11.5042 20.4563 10.8506 19.4698 10.5399ZM4.4998 12.9999C4.23459 12.9999 3.98023 12.8946 3.7927 12.707C3.60516 12.5195 3.4998 12.2652 3.4998 11.9999C3.4998 11.7347 3.60516 11.4804 3.7927 11.2928C3.98023 11.1053 4.23459 10.9999 4.4998 10.9999C4.76502 10.9999 5.01937 10.8946 5.20691 10.707C5.39445 10.5195 5.4998 10.2652 5.4998 9.99994C5.4998 9.20429 5.81587 8.44122 6.37848 7.87862C6.94109 7.31601 7.70415 6.99994 8.4998 6.99994C8.91918 7.00219 9.33343 7.09234 9.71581 7.26459C10.0982 7.43683 10.4402 7.68734 10.7198 7.99994C10.0101 8.46169 9.40621 9.06842 8.94776 9.78023C8.4893 10.492 8.18669 11.2928 8.0598 12.1299C7.49457 12.2891 6.97865 12.5884 6.5598 12.9999H4.4998ZM18.1698 16.9999H8.9998C8.60198 16.9999 8.22045 16.8419 7.93914 16.5606C7.65784 16.2793 7.4998 15.8978 7.4998 15.4999C7.4998 15.1021 7.65784 14.7206 7.93914 14.4393C8.22045 14.158 8.60198 13.9999 8.9998 13.9999C9.26502 13.9999 9.51937 13.8946 9.70691 13.707C9.89445 13.5195 9.9998 13.2652 9.9998 12.9999C10.0041 12.0556 10.3423 11.1433 10.9546 10.4244C11.567 9.70552 12.4139 9.22644 13.3455 9.07198C14.2771 8.91751 15.2333 9.09761 16.0448 9.58041C16.8564 10.0632 17.471 10.8175 17.7798 11.7099C17.837 11.8818 17.9397 12.0349 18.0771 12.1529C18.2145 12.2709 18.3813 12.3494 18.5598 12.3799C19.1274 12.4861 19.6354 12.7992 19.9852 13.2585C20.3351 13.7179 20.5019 14.2909 20.4533 14.8662C20.4048 15.4416 20.1443 15.9785 19.7223 16.3727C19.3004 16.7669 18.7472 16.9905 18.1698 16.9999Z" fill="white"/>
</svg>
