<svg width="24" height="24" viewBox="0 0 24 24" fill="none" xmlns="http://www.w3.org/2000/svg">
<path d="M17 15C16.6982 14.9996 16.4017 14.9203 16.14 14.77C15.6487 14.4663 15.0826 14.3055 14.505 14.3055C13.9274 14.3055 13.3613 14.4663 12.87 14.77C12.607 14.9218 12.3087 15.0017 12.005 15.0017C11.7013 15.0017 11.403 14.9218 11.14 14.77C10.6487 14.4663 10.0826 14.3055 9.505 14.3055C8.92744 14.3055 8.3613 14.4663 7.87 14.77C7.60518 14.9216 7.30515 15.0009 7 15C6.73478 15 6.48043 15.1053 6.29289 15.2929C6.10535 15.4804 6 15.7348 6 16C6 16.2652 6.10535 16.5195 6.29289 16.7071C6.48043 16.8946 6.73478 17 7 17C7.66855 17.0005 8.3249 16.8209 8.9 16.48C9.07983 16.3673 9.28777 16.3075 9.5 16.3075C9.71222 16.3075 9.92016 16.3673 10.1 16.48C10.676 16.8185 11.3319 16.9969 12 16.9969C12.6681 16.9969 13.324 16.8185 13.9 16.48C14.0798 16.3673 14.2878 16.3075 14.5 16.3075C14.7122 16.3075 14.9202 16.3673 15.1 16.48C15.6751 16.8209 16.3314 17.0005 17 17C17.2652 17 17.5196 16.8946 17.7071 16.7071C17.8946 16.5195 18 16.2652 18 16C18 15.7348 17.8946 15.4804 17.7071 15.2929C17.5196 15.1053 17.2652 15 17 15ZM17 19C16.6982 18.9996 16.4017 18.9203 16.14 18.77C15.6487 18.4663 15.0826 18.3055 14.505 18.3055C13.9274 18.3055 13.3613 18.4663 12.87 18.77C12.607 18.9218 12.3087 19.0017 12.005 19.0017C11.7013 19.0017 11.403 18.9218 11.14 18.77C10.6487 18.4663 10.0826 18.3055 9.505 18.3055C8.92744 18.3055 8.3613 18.4663 7.87 18.77C7.60518 18.9216 7.30515 19.0009 7 19C6.73478 19 6.48043 19.1053 6.29289 19.2929C6.10535 19.4804 6 19.7348 6 20C6 20.2652 6.10535 20.5195 6.29289 20.7071C6.48043 20.8946 6.73478 21 7 21C7.66855 21.0005 8.3249 20.8209 8.9 20.48C9.07983 20.3673 9.28777 20.3075 9.5 20.3075C9.71222 20.3075 9.92016 20.3673 10.1 20.48C10.676 20.8185 11.3319 20.9969 12 20.9969C12.6681 20.9969 13.324 20.8185 13.9 20.48C14.0798 20.3673 14.2878 20.3075 14.5 20.3075C14.7122 20.3075 14.9202 20.3673 15.1 20.48C15.6751 20.8209 16.3314 21.0005 17 21C17.2652 21 17.5196 20.8946 17.7071 20.7071C17.8946 20.5195 18 20.2652 18 20C18 19.7348 17.8946 19.4804 17.7071 19.2929C17.5196 19.1053 17.2652 19 17 19ZM18.42 7.20997C17.8083 5.80578 16.7529 4.64097 15.4157 3.89413C14.0785 3.14729 12.5333 2.85964 11.0169 3.0753C9.5005 3.29095 8.0967 3.998 7.02071 5.08803C5.94473 6.17807 5.25596 7.59092 5.06 9.10997C4.18741 9.32094 3.41116 9.8193 2.85613 10.5249C2.30109 11.2305 1.99954 12.1022 2 13C1.99821 13.5664 2.11674 14.1267 2.34775 14.6439C2.57875 15.1611 2.91697 15.6233 3.34 16C3.5223 16.1608 3.75692 16.2496 4 16.25C4.14275 16.2485 4.28354 16.2166 4.41291 16.1562C4.54227 16.0958 4.65721 16.0085 4.75 15.9C4.9248 15.701 5.0135 15.4407 4.99663 15.1764C4.97975 14.912 4.85868 14.6652 4.66 14.49C4.44798 14.3048 4.27903 14.0754 4.16502 13.818C4.05101 13.5607 3.99468 13.2814 4 13C4 12.4695 4.21071 11.9608 4.58578 11.5858C4.96086 11.2107 5.46956 11 6 11C6.26521 11 6.51957 10.8946 6.7071 10.7071C6.89464 10.5195 7 10.2652 7 9.99997C7.00255 8.81725 7.42428 7.67373 8.19027 6.77256C8.95625 5.87139 10.0169 5.27092 11.1837 5.07785C12.3506 4.88477 13.5481 5.11158 14.5636 5.71798C15.579 6.32438 16.3466 7.27111 16.73 8.38997C16.7887 8.55995 16.8921 8.71096 17.0293 8.82711C17.1666 8.94326 17.3327 9.02025 17.51 9.04997C18.2058 9.17001 18.8371 9.53166 19.2925 10.0713C19.748 10.6109 19.9985 11.2938 20 12C20.0133 12.7359 19.7491 13.4499 19.26 14C19.1565 14.094 19.0739 14.2087 19.0175 14.3367C18.9611 14.4646 18.9322 14.603 18.9326 14.7428C18.933 14.8826 18.9627 15.0208 19.0198 15.1485C19.0769 15.2761 19.1602 15.3903 19.2642 15.4838C19.3682 15.5773 19.4906 15.6479 19.6236 15.6911C19.7566 15.7343 19.8972 15.7491 20.0362 15.7346C20.1753 15.7201 20.3098 15.6766 20.431 15.6069C20.5522 15.5372 20.6575 15.4429 20.74 15.33C21.5618 14.4167 22.0114 13.2285 22 12C21.9991 10.9224 21.6501 9.87393 21.005 9.01079C20.3599 8.14764 19.4532 7.516 18.42 7.20997V7.20997Z" fill="black"/>
</svg>
