<svg width="24" height="24" viewBox="0 0 24 24" fill="none" xmlns="http://www.w3.org/2000/svg">
<path d="M19.47 6.46962C18.9961 5.41537 18.2277 4.52045 17.2574 3.89245C16.287 3.26445 15.1559 2.93011 14 2.92962C13.5311 2.93341 13.0644 2.99385 12.61 3.10962C12.0408 2.30617 11.247 1.68866 10.3283 1.33454C9.40949 0.980425 8.40662 0.905466 7.44542 1.11907C6.48422 1.33267 5.60748 1.82532 4.92516 2.53523C4.24285 3.24514 3.78533 4.14071 3.60999 5.10962C2.95572 5.34516 2.4036 5.80067 2.04803 6.39826C1.69246 6.99584 1.55552 7.69839 1.66064 8.38577C1.76575 9.07315 2.10639 9.70267 2.6243 10.1667C3.14221 10.6307 3.80523 10.9004 4.49999 10.9296H5.49999C5.48956 11.0961 5.48956 11.2631 5.49999 11.4296C5.49999 12.3579 5.86874 13.2481 6.52511 13.9045C7.18149 14.5609 8.07173 14.9296 8.99999 14.9296H18.17C19.2043 14.9294 20.2043 14.559 20.9892 13.8854C21.7741 13.2118 22.2919 12.2796 22.449 11.2573C22.6061 10.235 22.392 9.19023 21.8456 8.31207C21.2992 7.4339 20.4565 6.78033 19.47 6.46962ZM4.49999 8.92962C4.23477 8.92962 3.98042 8.82427 3.79288 8.63673C3.60534 8.44919 3.49999 8.19484 3.49999 7.92962C3.49999 7.66441 3.60534 7.41005 3.79288 7.22252C3.98042 7.03498 4.23477 6.92962 4.49999 6.92962C4.7652 6.92962 5.01956 6.82427 5.20709 6.63673C5.39463 6.44919 5.49999 6.19484 5.49999 5.92962C5.49999 5.13397 5.81606 4.37091 6.37867 3.8083C6.94128 3.24569 7.70434 2.92962 8.49999 2.92962C8.91937 2.93188 9.33361 3.02203 9.716 3.19428C10.0984 3.36652 10.4404 3.61703 10.72 3.92962C10.0103 4.39138 9.40639 4.9981 8.94794 5.70992C8.48948 6.42173 8.18687 7.22251 8.05999 8.05962C7.49476 8.21881 6.97883 8.51805 6.55999 8.92962H4.49999ZM18.17 12.9296H8.99999C8.60216 12.9296 8.22063 12.7716 7.93933 12.4903C7.65802 12.209 7.49999 11.8274 7.49999 11.4296C7.49999 11.0318 7.65802 10.6503 7.93933 10.369C8.22063 10.0877 8.60216 9.92962 8.99999 9.92962C9.2652 9.92962 9.51956 9.82427 9.70709 9.63673C9.89463 9.44919 9.99999 9.19484 9.99999 8.92962C10.0043 7.98532 10.3425 7.07298 10.9548 6.35409C11.5671 5.63521 12.414 5.15613 13.3456 5.00166C14.2772 4.8472 15.2334 5.0273 16.045 5.51009C16.8566 5.99289 17.4712 6.74724 17.78 7.63962C17.8371 7.81146 17.9399 7.96456 18.0773 8.08256C18.2146 8.20056 18.3815 8.27904 18.56 8.30962C19.1276 8.41575 19.6356 8.72885 19.9854 9.18823C20.3353 9.64761 20.5021 10.2205 20.4535 10.7959C20.4049 11.3713 20.1444 11.9082 19.7225 12.3024C19.3006 12.6966 18.7473 12.9202 18.17 12.9296Z" fill="black"/>
<path d="M17.5854 17.3941C17.8471 17.5445 18.1436 17.6237 18.4454 17.6241C18.7106 17.6241 18.965 17.7294 19.1525 17.917C19.3401 18.1045 19.4454 18.3589 19.4454 18.6241C19.4454 18.8893 19.3401 19.1437 19.1525 19.3312C18.965 19.5187 18.7106 19.6241 18.4454 19.6241C17.7769 19.6246 17.1205 19.445 16.5454 19.1041C16.3656 18.9914 16.1576 18.9316 15.9454 18.9316C15.7332 18.9316 15.5253 18.9914 15.3454 19.1041C14.7694 19.4426 14.1135 19.6211 13.4454 19.6211C12.7773 19.6211 12.1214 19.4426 11.5454 19.1041C11.3656 18.9914 11.1576 18.9316 10.9454 18.9316C10.7332 18.9316 10.5253 18.9914 10.3454 19.1041C9.77032 19.445 9.11397 19.6246 8.44542 19.6241C8.1802 19.6241 7.92585 19.5187 7.73831 19.3312C7.55077 19.1437 7.44542 18.8893 7.44542 18.6241C7.44542 18.3589 7.55077 18.1045 7.73831 17.917C7.92585 17.7294 8.1802 17.6241 8.44542 17.6241C8.75057 17.625 9.0506 17.5457 9.31542 17.3941C9.80672 17.0905 10.3729 16.9296 10.9504 16.9296C11.528 16.9296 12.0941 17.0905 12.5854 17.3941C12.8484 17.5459 13.1467 17.6259 13.4504 17.6259C13.7541 17.6259 14.0524 17.5459 14.3154 17.3941C14.8067 17.0905 15.3729 16.9296 15.9504 16.9296C16.528 16.9296 17.0941 17.0905 17.5854 17.3941Z" fill="black"/>
<path d="M17.5854 21.3941C17.8471 21.5445 18.1436 21.6237 18.4454 21.6241C18.7106 21.6241 18.965 21.7294 19.1525 21.917C19.3401 22.1045 19.4454 22.3589 19.4454 22.6241C19.4454 22.8893 19.3401 23.1437 19.1525 23.3312C18.965 23.5187 18.7106 23.6241 18.4454 23.6241C17.7769 23.6246 17.1205 23.445 16.5454 23.1041C16.3656 22.9914 16.1576 22.9316 15.9454 22.9316C15.7332 22.9316 15.5253 22.9914 15.3454 23.1041C14.7694 23.4426 14.1135 23.6211 13.4454 23.6211C12.7773 23.6211 12.1214 23.4426 11.5454 23.1041C11.3656 22.9914 11.1576 22.9316 10.9454 22.9316C10.7332 22.9316 10.5253 22.9914 10.3454 23.1041C9.77032 23.445 9.11397 23.6246 8.44542 23.6241C8.1802 23.6241 7.92585 23.5187 7.73831 23.3312C7.55078 23.1437 7.44542 22.8893 7.44542 22.6241C7.44542 22.3589 7.55078 22.1045 7.73831 21.917C7.92585 21.7294 8.1802 21.6241 8.44542 21.6241C8.75057 21.625 9.0506 21.5457 9.31542 21.3941C9.80672 21.0905 10.3729 20.9296 10.9504 20.9296C11.528 20.9296 12.0941 21.0905 12.5854 21.3941C12.8484 21.5459 13.1467 21.6259 13.4504 21.6259C13.7541 21.6259 14.0524 21.5459 14.3154 21.3941C14.8067 21.0905 15.3729 20.9296 15.9504 20.9296C16.528 20.9296 17.0941 21.0905 17.5854 21.3941Z" fill="black"/>
</svg>
