<svg width="24" height="24" viewBox="0 0 24 24" fill="none" xmlns="http://www.w3.org/2000/svg">
<path d="M19.4698 6.46962C18.9959 5.41537 18.2276 4.52045 17.2572 3.89245C16.2868 3.26445 15.1557 2.93011 13.9998 2.92962C13.5309 2.93341 13.0642 2.99385 12.6098 3.10962C12.0406 2.30617 11.2468 1.68866 10.3281 1.33454C9.40931 0.980425 8.40644 0.905466 7.44523 1.11907C6.48403 1.33267 5.6073 1.82532 4.92498 2.53523C4.24266 3.24514 3.78514 4.14071 3.6098 5.10962C2.95554 5.34516 2.40342 5.80067 2.04785 6.39826C1.69228 6.99584 1.55534 7.69839 1.66046 8.38577C1.76557 9.07315 2.10621 9.70267 2.62412 10.1667C3.14203 10.6307 3.80505 10.9004 4.4998 10.9296H5.4998C5.48938 11.0961 5.48938 11.2631 5.4998 11.4296C5.4998 12.3579 5.86855 13.2481 6.52493 13.9045C7.18131 14.5609 8.07155 14.9296 8.9998 14.9296H18.1698C19.2041 14.9294 20.2041 14.559 20.989 13.8854C21.7739 13.2118 22.2917 12.2796 22.4488 11.2573C22.6059 10.235 22.3919 9.19023 21.8454 8.31207C21.299 7.4339 20.4563 6.78033 19.4698 6.46962ZM4.4998 8.92962C4.23459 8.92962 3.98023 8.82427 3.7927 8.63673C3.60516 8.44919 3.4998 8.19484 3.4998 7.92962C3.4998 7.66441 3.60516 7.41005 3.7927 7.22252C3.98023 7.03498 4.23459 6.92962 4.4998 6.92962C4.76502 6.92962 5.01937 6.82427 5.20691 6.63673C5.39445 6.44919 5.4998 6.19484 5.4998 5.92962C5.4998 5.13397 5.81587 4.37091 6.37848 3.8083C6.94109 3.24569 7.70415 2.92962 8.4998 2.92962C8.91918 2.93188 9.33343 3.02203 9.71581 3.19428C10.0982 3.36652 10.4402 3.61703 10.7198 3.92962C10.0101 4.39138 9.40621 4.9981 8.94776 5.70992C8.4893 6.42173 8.18669 7.22251 8.0598 8.05962C7.49457 8.21881 6.97865 8.51805 6.5598 8.92962H4.4998ZM18.1698 12.9296H8.9998C8.60198 12.9296 8.22045 12.7716 7.93914 12.4903C7.65784 12.209 7.4998 11.8274 7.4998 11.4296C7.4998 11.0318 7.65784 10.6503 7.93914 10.369C8.22045 10.0877 8.60198 9.92962 8.9998 9.92962C9.26502 9.92962 9.51937 9.82427 9.70691 9.63673C9.89445 9.44919 9.9998 9.19484 9.9998 8.92962C10.0041 7.98532 10.3423 7.07298 10.9546 6.35409C11.567 5.63521 12.4139 5.15613 13.3455 5.00166C14.2771 4.8472 15.2333 5.0273 16.0448 5.51009C16.8564 5.99289 17.471 6.74724 17.7798 7.63962C17.837 7.81146 17.9397 7.96456 18.0771 8.08256C18.2145 8.20056 18.3813 8.27904 18.5598 8.30962C19.1274 8.41575 19.6354 8.72885 19.9852 9.18823C20.3351 9.64761 20.5019 10.2205 20.4533 10.7959C20.4048 11.3713 20.1443 11.9082 19.7223 12.3024C19.3004 12.6966 18.7472 12.9202 18.1698 12.9296Z" fill="white"/>
<path d="M17.5852 17.3941C17.8469 17.5445 18.1434 17.6238 18.4452 17.6241C18.7105 17.6241 18.9648 17.7294 19.1523 17.917C19.3399 18.1045 19.4452 18.3589 19.4452 18.6241C19.4452 18.8893 19.3399 19.1437 19.1523 19.3312C18.9648 19.5187 18.7105 19.6241 18.4452 19.6241C17.7767 19.6246 17.1203 19.445 16.5452 19.1041C16.3654 18.9914 16.1575 18.9316 15.9452 18.9316C15.733 18.9316 15.5251 18.9914 15.3452 19.1041C14.7693 19.4426 14.1133 19.6211 13.4452 19.6211C12.7772 19.6211 12.1212 19.4426 11.5452 19.1041C11.3654 18.9914 11.1575 18.9316 10.9452 18.9316C10.733 18.9316 10.5251 18.9914 10.3452 19.1041C9.77013 19.445 9.11379 19.6246 8.44523 19.6241C8.18002 19.6241 7.92566 19.5187 7.73813 19.3312C7.55059 19.1437 7.44523 18.8893 7.44523 18.6241C7.44523 18.3589 7.55059 18.1045 7.73813 17.917C7.92566 17.7294 8.18002 17.6241 8.44523 17.6241C8.75039 17.625 9.05042 17.5457 9.31523 17.3941C9.80653 17.0905 10.3727 16.9296 10.9502 16.9296C11.5278 16.9296 12.0939 17.0905 12.5852 17.3941C12.8482 17.5459 13.1466 17.6259 13.4502 17.6259C13.7539 17.6259 14.0522 17.5459 14.3152 17.3941C14.8065 17.0905 15.3727 16.9296 15.9502 16.9296C16.5278 16.9296 17.0939 17.0905 17.5852 17.3941Z" fill="white"/>
<path d="M17.5852 21.3941C17.8469 21.5445 18.1434 21.6238 18.4452 21.6241C18.7105 21.6241 18.9648 21.7294 19.1523 21.917C19.3399 22.1045 19.4452 22.3589 19.4452 22.6241C19.4452 22.8893 19.3399 23.1437 19.1523 23.3312C18.9648 23.5187 18.7105 23.6241 18.4452 23.6241C17.7767 23.6246 17.1203 23.445 16.5452 23.1041C16.3654 22.9914 16.1575 22.9316 15.9452 22.9316C15.733 22.9316 15.5251 22.9914 15.3452 23.1041C14.7693 23.4426 14.1133 23.6211 13.4452 23.6211C12.7772 23.6211 12.1212 23.4426 11.5452 23.1041C11.3654 22.9914 11.1575 22.9316 10.9452 22.9316C10.733 22.9316 10.5251 22.9914 10.3452 23.1041C9.77014 23.445 9.11379 23.6246 8.44524 23.6241C8.18002 23.6241 7.92567 23.5187 7.73813 23.3312C7.55059 23.1437 7.44524 22.8893 7.44524 22.6241C7.44524 22.3589 7.55059 22.1045 7.73813 21.917C7.92567 21.7294 8.18002 21.6241 8.44524 21.6241C8.75039 21.625 9.05042 21.5457 9.31524 21.3941C9.80654 21.0905 10.3727 20.9296 10.9502 20.9296C11.5278 20.9296 12.0939 21.0905 12.5852 21.3941C12.8482 21.5459 13.1466 21.6259 13.4502 21.6259C13.7539 21.6259 14.0522 21.5459 14.3152 21.3941C14.8065 21.0905 15.3727 20.9296 15.9502 20.9296C16.5278 20.9296 17.0939 21.0905 17.5852 21.3941Z" fill="white"/>
</svg>
