<svg width="24" height="24" viewBox="0 0 24 24" fill="none" xmlns="http://www.w3.org/2000/svg">
<path d="M8 13C7.73479 13 7.48043 13.1054 7.2929 13.2929C7.10536 13.4804 7 13.7348 7 14V15C7 15.2652 7.10536 15.5196 7.2929 15.7071C7.48043 15.8947 7.73479 16 8 16C8.26522 16 8.51957 15.8947 8.70711 15.7071C8.89465 15.5196 9 15.2652 9 15V14C9 13.7348 8.89465 13.4804 8.70711 13.2929C8.51957 13.1054 8.26522 13 8 13ZM12 14C11.7348 14 11.4804 14.1054 11.2929 14.2929C11.1054 14.4804 11 14.7348 11 15V16C11 16.2652 11.1054 16.5196 11.2929 16.7071C11.4804 16.8947 11.7348 17 12 17C12.2652 17 12.5196 16.8947 12.7071 16.7071C12.8946 16.5196 13 16.2652 13 16V15C13 14.7348 12.8946 14.4804 12.7071 14.2929C12.5196 14.1054 12.2652 14 12 14ZM18.42 6.22002C17.809 4.81602 16.7545 3.65109 15.4181 2.90374C14.0817 2.15639 12.5371 1.86785 11.021 2.08233C9.50488 2.2968 8.10093 3.00247 7.02426 4.09119C5.94759 5.17991 5.25759 6.59163 5.06 8.11002C4.18742 8.32098 3.41117 8.81934 2.85613 9.52493C2.3011 10.2305 1.99955 11.1023 2 12C1.99822 12.5664 2.11675 13.1268 2.34776 13.644C2.57876 14.1611 2.91697 14.6233 3.34 15C3.43736 15.0935 3.55264 15.1664 3.6789 15.2141C3.80516 15.2619 3.93978 15.2836 4.07466 15.2779C4.20953 15.2723 4.34186 15.2394 4.46367 15.1812C4.58549 15.123 4.69426 15.0408 4.78344 14.9394C4.87262 14.8381 4.94036 14.7198 4.98257 14.5915C5.02479 14.4633 5.0406 14.3279 5.02907 14.1934C5.01754 14.0589 4.97889 13.9281 4.91546 13.8089C4.85203 13.6898 4.76514 13.5847 4.66 13.5C4.45031 13.3108 4.28308 13.0793 4.16932 12.8207C4.05556 12.5622 3.99785 12.2825 4 12C4 11.4696 4.21072 10.9609 4.58579 10.5858C4.96086 10.2107 5.46957 10 6 10C6.26522 10 6.51957 9.89466 6.70711 9.70712C6.89465 9.51959 7 9.26523 7 9.00002C7.00256 7.81729 7.42429 6.67377 8.19027 5.7726C8.95626 4.87143 10.0169 4.27097 11.1838 4.07789C12.3506 3.88481 13.5481 4.11162 14.5636 4.71803C15.579 5.32443 16.3466 6.27116 16.73 7.39002C16.7872 7.56186 16.8899 7.71495 17.0273 7.83295C17.1647 7.95095 17.3315 8.02943 17.51 8.06002C18.2042 8.17976 18.8341 8.53995 19.2893 9.07748C19.7446 9.61502 19.9962 10.2956 20 11C20.0153 11.7363 19.7509 12.451 19.26 13C19.1004 13.1988 19.0227 13.4511 19.0428 13.7053C19.063 13.9595 19.1795 14.1963 19.3685 14.3675C19.5575 14.5386 19.8048 14.6311 20.0597 14.626C20.3146 14.6209 20.558 14.5186 20.74 14.34C21.2908 13.7106 21.6749 12.953 21.8571 12.1367C22.0394 11.3204 22.0139 10.4714 21.7831 9.66745C21.5522 8.86352 21.1234 8.13034 20.5359 7.53505C19.9483 6.93975 19.2208 6.50136 18.42 6.26002V6.22002ZM16 13C15.7348 13 15.4804 13.1054 15.2929 13.2929C15.1054 13.4804 15 13.7348 15 14V15C15 15.2652 15.1054 15.5196 15.2929 15.7071C15.4804 15.8947 15.7348 16 16 16C16.2652 16 16.5196 15.8947 16.7071 15.7071C16.8946 15.5196 17 15.2652 17 15V14C17 13.7348 16.8946 13.4804 16.7071 13.2929C16.5196 13.1054 16.2652 13 16 13Z" fill="black"/>
</svg>
