<svg width="24" height="24" viewBox="0 0 24 24" fill="none" xmlns="http://www.w3.org/2000/svg">
<path d="M7.99999 13C7.73477 13 7.48042 13.1054 7.29288 13.2929C7.10535 13.4804 6.99999 13.7348 6.99999 14V15C6.99999 15.2652 7.10535 15.5196 7.29288 15.7071C7.48042 15.8947 7.73477 16 7.99999 16C8.26521 16 8.51956 15.8947 8.7071 15.7071C8.89463 15.5196 8.99999 15.2652 8.99999 15V14C8.99999 13.7348 8.89463 13.4804 8.7071 13.2929C8.51956 13.1054 8.26521 13 7.99999 13ZM12 14C11.7348 14 11.4804 14.1054 11.2929 14.2929C11.1053 14.4804 11 14.7348 11 15V16C11 16.2652 11.1053 16.5196 11.2929 16.7071C11.4804 16.8947 11.7348 17 12 17C12.2652 17 12.5196 16.8947 12.7071 16.7071C12.8946 16.5196 13 16.2652 13 16V15C13 14.7348 12.8946 14.4804 12.7071 14.2929C12.5196 14.1054 12.2652 14 12 14ZM18.42 6.22002C17.809 4.81602 16.7545 3.65109 15.4181 2.90374C14.0816 2.15639 12.537 1.86785 11.021 2.08233C9.50486 2.2968 8.10091 3.00247 7.02424 4.09119C5.94757 5.17991 5.25758 6.59163 5.05999 8.11002C4.1874 8.32098 3.41115 8.81934 2.85612 9.52493C2.30108 10.2305 1.99954 11.1023 1.99999 12C1.9982 12.5664 2.11674 13.1268 2.34774 13.644C2.57875 14.1611 2.91696 14.6233 3.33999 15C3.43735 15.0935 3.55263 15.1664 3.67889 15.2141C3.80515 15.2619 3.93977 15.2836 4.07464 15.2779C4.20951 15.2723 4.34185 15.2394 4.46366 15.1812C4.58547 15.123 4.69425 15.0408 4.78343 14.9394C4.8726 14.8381 4.94034 14.7198 4.98256 14.5915C5.02477 14.4633 5.04059 14.3279 5.02906 14.1934C5.01752 14.0589 4.97888 13.9281 4.91545 13.8089C4.85202 13.6898 4.76512 13.5847 4.65999 13.5C4.45029 13.3108 4.28306 13.0793 4.1693 12.8207C4.05554 12.5622 3.99784 12.2825 3.99999 12C3.99999 11.4696 4.2107 10.9609 4.58578 10.5858C4.96085 10.2107 5.46956 10 5.99999 10C6.26521 10 6.51956 9.89466 6.7071 9.70712C6.89463 9.51959 6.99999 9.26523 6.99999 9.00002C7.00254 7.81729 7.42428 6.67377 8.19026 5.7726C8.95624 4.87143 10.0169 4.27097 11.1837 4.07789C12.3506 3.88481 13.5481 4.11162 14.5636 4.71803C15.579 5.32443 16.3466 6.27116 16.73 7.39002C16.7872 7.56186 16.8899 7.71495 17.0273 7.83295C17.1647 7.95095 17.3315 8.02943 17.51 8.06002C18.2042 8.17976 18.834 8.53995 19.2893 9.07748C19.7446 9.61502 19.9962 10.2956 20 11C20.0153 11.7363 19.7508 12.451 19.26 13C19.1003 13.1988 19.0227 13.4511 19.0428 13.7053C19.063 13.9595 19.1795 14.1963 19.3685 14.3675C19.5575 14.5386 19.8048 14.6311 20.0597 14.626C20.3146 14.6209 20.558 14.5186 20.74 14.34C21.2908 13.7106 21.6749 12.953 21.8571 12.1367C22.0394 11.3204 22.0139 10.4714 21.7831 9.66745C21.5522 8.86352 21.1234 8.13034 20.5359 7.53505C19.9483 6.93975 19.2208 6.50136 18.42 6.26002V6.22002ZM16 13C15.7348 13 15.4804 13.1054 15.2929 13.2929C15.1053 13.4804 15 13.7348 15 14V15C15 15.2652 15.1053 15.5196 15.2929 15.7071C15.4804 15.8947 15.7348 16 16 16C16.2652 16 16.5196 15.8947 16.7071 15.7071C16.8946 15.5196 17 15.2652 17 15V14C17 13.7348 16.8946 13.4804 16.7071 13.2929C16.5196 13.1054 16.2652 13 16 13Z" fill="black"/>
</svg>
