<svg width="24" height="24" viewBox="0 0 24 24" fill="none" xmlns="http://www.w3.org/2000/svg">
<path d="M10 12.9867C9.7348 12.9867 9.48045 13.0921 9.29291 13.2796C9.10538 13.4671 9.00002 13.7215 9.00002 13.9867V18.9867C9.00002 19.2519 9.10538 19.5063 9.29291 19.6938C9.48045 19.8814 9.7348 19.9867 10 19.9867C10.2652 19.9867 10.5196 19.8814 10.7071 19.6938C10.8947 19.5063 11 19.2519 11 18.9867V13.9867C11 13.7215 10.8947 13.4671 10.7071 13.2796C10.5196 13.0921 10.2652 12.9867 10 12.9867ZM18.42 8.20671C17.809 6.80272 16.7545 5.63779 15.4181 4.89044C14.0817 4.14309 12.5371 3.85454 11.021 4.06902C9.50489 4.2835 8.10095 4.98916 7.02427 6.07789C5.9476 7.16661 5.25761 8.57833 5.06002 10.0967C4.18743 10.3077 3.41118 10.806 2.85615 11.5116C2.30111 12.2172 1.99957 13.089 2.00002 13.9867C1.99823 14.5531 2.11677 15.1135 2.34777 15.6306C2.57878 16.1478 2.91699 16.61 3.34002 16.9867C3.43738 17.0802 3.55266 17.1531 3.67892 17.2008C3.80518 17.2486 3.9398 17.2703 4.07467 17.2646C4.20955 17.259 4.34188 17.2261 4.46369 17.1679C4.5855 17.1097 4.69428 17.0275 4.78346 16.9261C4.87264 16.8248 4.94037 16.7064 4.98259 16.5782C5.0248 16.45 5.04062 16.3146 5.02909 16.1801C5.01755 16.0456 4.97891 15.9148 4.91548 15.7956C4.85205 15.6765 4.76515 15.5714 4.66002 15.4867C4.45032 15.2975 4.28309 15.066 4.16933 14.8074C4.05557 14.5489 3.99787 14.2692 4.00002 13.9867C4.00002 13.4563 4.21073 12.9476 4.58581 12.5725C4.96088 12.1974 5.46959 11.9867 6.00002 11.9867C6.26524 11.9867 6.51959 11.8814 6.70713 11.6938C6.89466 11.5063 7.00002 11.2519 7.00002 10.9867C7.00257 9.80399 7.42431 8.66046 8.19029 7.75929C8.95627 6.85812 10.0169 6.25766 11.1838 6.06458C12.3506 5.87151 13.5482 6.09832 14.5636 6.70472C15.579 7.31112 16.3466 8.25785 16.73 9.37671C16.7872 9.54855 16.8899 9.70164 17.0273 9.81964C17.1647 9.93765 17.3315 10.0161 17.51 10.0467C18.2042 10.1665 18.8341 10.5266 19.2893 11.0642C19.7446 11.6017 19.9962 12.2823 20 12.9867C20.0153 13.723 19.7509 14.4377 19.26 14.9867C19.1004 15.1855 19.0227 15.4378 19.0429 15.692C19.063 15.9462 19.1795 16.183 19.3686 16.3542C19.5576 16.5253 19.8048 16.6178 20.0597 16.6127C20.3147 16.6076 20.558 16.5053 20.74 16.3267C21.2908 15.6973 21.6749 14.9397 21.8572 14.1234C22.0394 13.3071 22.0139 12.4581 21.7831 11.6541C21.5523 10.8502 21.1234 10.117 20.5359 9.52174C19.9483 8.92645 19.2209 8.48806 18.42 8.24671V8.20671ZM14 12.9867C13.7348 12.9867 13.4804 13.0921 13.2929 13.2796C13.1054 13.4671 13 13.7215 13 13.9867V18.9867C13 19.2519 13.1054 19.5063 13.2929 19.6938C13.4804 19.8814 13.7348 19.9867 14 19.9867C14.2652 19.9867 14.5196 19.8814 14.7071 19.6938C14.8947 19.5063 15 19.2519 15 18.9867V13.9867C15 13.7215 14.8947 13.4671 14.7071 13.2796C14.5196 13.0921 14.2652 12.9867 14 12.9867Z" fill="white"/>
</svg>
