<svg width="24" height="24" viewBox="0 0 24 24" fill="none" xmlns="http://www.w3.org/2000/svg">
<path d="M8.00002 12.9867C7.7348 12.9867 7.48045 13.0921 7.29291 13.2796C7.10538 13.4671 7.00002 13.7215 7.00002 13.9867V18.9867C7.00002 19.2519 7.10538 19.5063 7.29291 19.6938C7.48045 19.8814 7.7348 19.9867 8.00002 19.9867C8.26524 19.9867 8.51959 19.8814 8.70713 19.6938C8.89466 19.5063 9.00002 19.2519 9.00002 18.9867V13.9867C9.00002 13.7215 8.89466 13.4671 8.70713 13.2796C8.51959 13.0921 8.26524 12.9867 8.00002 12.9867ZM12 10.9867C11.7348 10.9867 11.4804 11.0921 11.2929 11.2796C11.1054 11.4671 11 11.7215 11 11.9867V20.9867C11 21.2519 11.1054 21.5063 11.2929 21.6938C11.4804 21.8814 11.7348 21.9867 12 21.9867C12.2652 21.9867 12.5196 21.8814 12.7071 21.6938C12.8947 21.5063 13 21.2519 13 20.9867V11.9867C13 11.7215 12.8947 11.4671 12.7071 11.2796C12.5196 11.0921 12.2652 10.9867 12 10.9867ZM18.42 6.20671C17.809 4.80272 16.7545 3.63779 15.4181 2.89044C14.0817 2.14309 12.5371 1.85454 11.021 2.06902C9.50489 2.2835 8.10095 2.98916 7.02427 4.07789C5.9476 5.16661 5.25761 6.57833 5.06002 8.09671C4.18743 8.30768 3.41118 8.80604 2.85615 9.51162C2.30111 10.2172 1.99957 11.089 2.00002 11.9867C1.99823 12.5531 2.11677 13.1135 2.34777 13.6306C2.57878 14.1478 2.91699 14.61 3.34002 14.9867C3.43738 15.0802 3.55266 15.1531 3.67892 15.2008C3.80518 15.2486 3.9398 15.2703 4.07467 15.2646C4.20955 15.259 4.34188 15.2261 4.46369 15.1679C4.5855 15.1097 4.69428 15.0275 4.78346 14.9261C4.87264 14.8248 4.94037 14.7064 4.98259 14.5782C5.0248 14.45 5.04062 14.3146 5.02909 14.1801C5.01755 14.0456 4.97891 13.9148 4.91548 13.7956C4.85205 13.6765 4.76515 13.5714 4.66002 13.4867C4.45032 13.2975 4.28309 13.066 4.16933 12.8074C4.05557 12.5489 3.99787 12.2692 4.00002 11.9867C4.00002 11.4563 4.21073 10.9476 4.58581 10.5725C4.96088 10.1974 5.46959 9.98671 6.00002 9.98671C6.26524 9.98671 6.51959 9.88135 6.70713 9.69382C6.89466 9.50628 7.00002 9.25193 7.00002 8.98671C7.00257 7.80399 7.42431 6.66046 8.19029 5.75929C8.95627 4.85812 10.0169 4.25766 11.1838 4.06458C12.3506 3.87151 13.5482 4.09832 14.5636 4.70472C15.579 5.31112 16.3466 6.25785 16.73 7.37671C16.7872 7.54855 16.8899 7.70164 17.0273 7.81964C17.1647 7.93765 17.3315 8.01613 17.51 8.04671C18.2042 8.16645 18.8341 8.52664 19.2893 9.06418C19.7446 9.60171 19.9962 10.2823 20 10.9867C20.0153 11.723 19.7509 12.4377 19.26 12.9867C19.1004 13.1855 19.0227 13.4378 19.0429 13.692C19.063 13.9462 19.1795 14.183 19.3686 14.3542C19.5576 14.5253 19.8048 14.6178 20.0597 14.6127C20.3147 14.6076 20.558 14.5053 20.74 14.3267C21.2908 13.6973 21.6749 12.9397 21.8572 12.1234C22.0394 11.3071 22.0139 10.4581 21.7831 9.65415C21.5523 8.85022 21.1234 8.11704 20.5359 7.52174C19.9483 6.92645 19.2209 6.48806 18.42 6.24671V6.20671ZM16 12.9867C15.7348 12.9867 15.4804 13.0921 15.2929 13.2796C15.1054 13.4671 15 13.7215 15 13.9867V18.9867C15 19.2519 15.1054 19.5063 15.2929 19.6938C15.4804 19.8814 15.7348 19.9867 16 19.9867C16.2652 19.9867 16.5196 19.8814 16.7071 19.6938C16.8947 19.5063 17 19.2519 17 18.9867V13.9867C17 13.7215 16.8947 13.4671 16.7071 13.2796C16.5196 13.0921 16.2652 12.9867 16 12.9867Z" fill="white"/>
</svg>
