<svg width="24" height="24" viewBox="0 0 24 24" fill="none" xmlns="http://www.w3.org/2000/svg">
<path d="M8 12.9867C7.73479 12.9867 7.48043 13.0921 7.2929 13.2796C7.10536 13.4671 7 13.7215 7 13.9867V18.9867C7 19.2519 7.10536 19.5063 7.2929 19.6938C7.48043 19.8814 7.73479 19.9867 8 19.9867C8.26522 19.9867 8.51957 19.8814 8.70711 19.6938C8.89465 19.5063 9 19.2519 9 18.9867V13.9867C9 13.7215 8.89465 13.4671 8.70711 13.2796C8.51957 13.0921 8.26522 12.9867 8 12.9867V12.9867ZM12 10.9867C11.7348 10.9867 11.4804 11.0921 11.2929 11.2796C11.1054 11.4671 11 11.7215 11 11.9867V20.9867C11 21.2519 11.1054 21.5063 11.2929 21.6938C11.4804 21.8814 11.7348 21.9867 12 21.9867C12.2652 21.9867 12.5196 21.8814 12.7071 21.6938C12.8946 21.5063 13 21.2519 13 20.9867V11.9867C13 11.7215 12.8946 11.4671 12.7071 11.2796C12.5196 11.0921 12.2652 10.9867 12 10.9867ZM18.42 6.20671C17.809 4.80272 16.7545 3.63779 15.4181 2.89044C14.0817 2.14309 12.5371 1.85454 11.021 2.06902C9.50488 2.2835 8.10093 2.98916 7.02426 4.07789C5.94759 5.16661 5.25759 6.57833 5.06 8.09671C4.18742 8.30768 3.41117 8.80604 2.85613 9.51162C2.3011 10.2172 1.99955 11.089 2 11.9867C1.99822 12.5531 2.11675 13.1135 2.34776 13.6306C2.57876 14.1478 2.91697 14.61 3.34 14.9867C3.43736 15.0802 3.55264 15.1531 3.6789 15.2008C3.80516 15.2486 3.93978 15.2703 4.07466 15.2646C4.20953 15.259 4.34186 15.2261 4.46367 15.1679C4.58549 15.1097 4.69426 15.0275 4.78344 14.9261C4.87262 14.8248 4.94036 14.7064 4.98257 14.5782C5.02479 14.45 5.0406 14.3146 5.02907 14.1801C5.01754 14.0456 4.97889 13.9148 4.91546 13.7956C4.85203 13.6765 4.76514 13.5714 4.66 13.4867C4.45031 13.2975 4.28308 13.066 4.16932 12.8074C4.05556 12.5489 3.99785 12.2692 4 11.9867C4 11.4563 4.21072 10.9476 4.58579 10.5725C4.96086 10.1974 5.46957 9.98671 6 9.98671C6.26522 9.98671 6.51957 9.88135 6.70711 9.69382C6.89465 9.50628 7 9.25193 7 8.98671C7.00256 7.80399 7.42429 6.66046 8.19027 5.75929C8.95626 4.85813 10.0169 4.25766 11.1838 4.06458C12.3506 3.87151 13.5481 4.09832 14.5636 4.70472C15.579 5.31112 16.3466 6.25785 16.73 7.37671C16.7872 7.54855 16.8899 7.70164 17.0273 7.81964C17.1647 7.93765 17.3315 8.01613 17.51 8.04671C18.2042 8.16645 18.8341 8.52664 19.2893 9.06418C19.7446 9.60171 19.9962 10.2823 20 10.9867C20.0153 11.723 19.7509 12.4377 19.26 12.9867C19.1004 13.1855 19.0227 13.4378 19.0428 13.692C19.063 13.9462 19.1795 14.183 19.3685 14.3542C19.5575 14.5253 19.8048 14.6178 20.0597 14.6127C20.3146 14.6076 20.558 14.5053 20.74 14.3267C21.2908 13.6973 21.6749 12.9397 21.8571 12.1234C22.0394 11.3071 22.0139 10.4581 21.7831 9.65415C21.5522 8.85022 21.1234 8.11704 20.5359 7.52174C19.9483 6.92645 19.2208 6.48806 18.42 6.24671V6.20671ZM16 12.9867C15.7348 12.9867 15.4804 13.0921 15.2929 13.2796C15.1054 13.4671 15 13.7215 15 13.9867V18.9867C15 19.2519 15.1054 19.5063 15.2929 19.6938C15.4804 19.8814 15.7348 19.9867 16 19.9867C16.2652 19.9867 16.5196 19.8814 16.7071 19.6938C16.8946 19.5063 17 19.2519 17 18.9867V13.9867C17 13.7215 16.8946 13.4671 16.7071 13.2796C16.5196 13.0921 16.2652 12.9867 16 12.9867Z" fill="black"/>
</svg>
