<svg width="24" height="24" viewBox="0 0 24 24" fill="none" xmlns="http://www.w3.org/2000/svg">
<path d="M8 11.9867C7.73479 11.9867 7.48043 12.0921 7.2929 12.2796C7.10536 12.4671 7 12.7215 7 12.9867V15.9867C7 16.2519 7.10536 16.5063 7.2929 16.6938C7.48043 16.8814 7.73479 16.9867 8 16.9867C8.26522 16.9867 8.51957 16.8814 8.70711 16.6938C8.89465 16.5063 9 16.2519 9 15.9867V12.9867C9 12.7215 8.89465 12.4671 8.70711 12.2796C8.51957 12.0921 8.26522 11.9867 8 11.9867ZM12 9.98671C11.7348 9.98671 11.4804 10.0921 11.2929 10.2796C11.1054 10.4671 11 10.7215 11 10.9867V17.9867C11 18.2519 11.1054 18.5063 11.2929 18.6938C11.4804 18.8814 11.7348 18.9867 12 18.9867C12.2652 18.9867 12.5196 18.8814 12.7071 18.6938C12.8946 18.5063 13 18.2519 13 17.9867V10.9867C13 10.7215 12.8946 10.4671 12.7071 10.2796C12.5196 10.0921 12.2652 9.98671 12 9.98671ZM18.42 5.20671C17.809 3.80272 16.7545 2.63779 15.4181 1.89044C14.0817 1.14309 12.5371 0.854544 11.021 1.06902C9.50488 1.2835 8.10093 1.98916 7.02426 3.07789C5.94759 4.16661 5.25759 5.57833 5.06 7.09671C4.18742 7.30768 3.41117 7.80604 2.85613 8.51162C2.3011 9.21721 1.99955 10.089 2 10.9867C1.99822 11.5531 2.11675 12.1135 2.34776 12.6306C2.57876 13.1478 2.91697 13.61 3.34 13.9867C3.43736 14.0802 3.55264 14.1531 3.6789 14.2008C3.80516 14.2486 3.93978 14.2703 4.07466 14.2646C4.20953 14.259 4.34186 14.2261 4.46367 14.1679C4.58549 14.1097 4.69426 14.0275 4.78344 13.9261C4.87262 13.8248 4.94036 13.7064 4.98257 13.5782C5.02479 13.45 5.0406 13.3146 5.02907 13.1801C5.01754 13.0456 4.97889 12.9148 4.91546 12.7956C4.85203 12.6765 4.76514 12.5714 4.66 12.4867C4.45031 12.2975 4.28308 12.066 4.16932 11.8074C4.05556 11.5489 3.99785 11.2692 4 10.9867C4 10.4563 4.21072 9.94757 4.58579 9.5725C4.96086 9.19743 5.46957 8.98671 6 8.98671C6.26522 8.98671 6.51957 8.88135 6.70711 8.69382C6.89465 8.50628 7 8.25193 7 7.98671C7.00256 6.80399 7.42429 5.66046 8.19027 4.75929C8.95626 3.85813 10.0169 3.25766 11.1838 3.06458C12.3506 2.87151 13.5481 3.09832 14.5636 3.70472C15.579 4.31112 16.3466 5.25785 16.73 6.37671C16.7872 6.54855 16.8899 6.70164 17.0273 6.81964C17.1647 6.93765 17.3315 7.01613 17.51 7.04671C18.2042 7.16645 18.8341 7.52664 19.2893 8.06418C19.7446 8.60171 19.9962 9.28231 20 9.98671C20.0153 10.723 19.7509 11.4377 19.26 11.9867C19.1004 12.1855 19.0227 12.4378 19.0428 12.692C19.063 12.9462 19.1795 13.183 19.3685 13.3542C19.5575 13.5253 19.8048 13.6178 20.0597 13.6127C20.3146 13.6076 20.558 13.5053 20.74 13.3267C21.2908 12.6973 21.6749 11.9397 21.8571 11.1234C22.0394 10.3071 22.0139 9.45808 21.7831 8.65415C21.5522 7.85022 21.1234 7.11704 20.5359 6.52174C19.9483 5.92645 19.2208 5.48806 18.42 5.24671V5.20671ZM16 11.9867C15.7348 11.9867 15.4804 12.0921 15.2929 12.2796C15.1054 12.4671 15 12.7215 15 12.9867V15.9867C15 16.2519 15.1054 16.5063 15.2929 16.6938C15.4804 16.8814 15.7348 16.9867 16 16.9867C16.2652 16.9867 16.5196 16.8814 16.7071 16.6938C16.8946 16.5063 17 16.2519 17 15.9867V12.9867C17 12.7215 16.8946 12.4671 16.7071 12.2796C16.5196 12.0921 16.2652 11.9867 16 11.9867Z" fill="black"/>
<path d="M7.29289 19.2796C7.48043 19.0921 7.73478 18.9867 8 18.9867C8.26522 18.9867 8.51957 19.0921 8.70711 19.2796C8.89464 19.4672 9 19.7215 9 19.9867C9 20.2519 8.89464 20.5063 8.70711 20.6938C8.51957 20.8814 8.26522 20.9867 8 20.9867C7.73478 20.9867 7.48043 20.8814 7.29289 20.6938C7.10536 20.5063 7 20.2519 7 19.9867C7 19.7215 7.10536 19.4672 7.29289 19.2796Z" fill="black"/>
<path d="M11.2929 21.2796C11.4804 21.0921 11.7348 20.9867 12 20.9867C12.2652 20.9867 12.5196 21.0921 12.7071 21.2796C12.8946 21.4672 13 21.7215 13 21.9867C13 22.2519 12.8946 22.5063 12.7071 22.6938C12.5196 22.8814 12.2652 22.9867 12 22.9867C11.7348 22.9867 11.4804 22.8814 11.2929 22.6938C11.1054 22.5063 11 22.2519 11 21.9867C11 21.7215 11.1054 21.4672 11.2929 21.2796Z" fill="black"/>
<path d="M15.2929 19.2796C15.4804 19.0921 15.7348 18.9867 16 18.9867C16.2652 18.9867 16.5196 19.0921 16.7071 19.2796C16.8946 19.4671 17 19.7215 17 19.9867C17 20.2519 16.8946 20.5063 16.7071 20.6938C16.5196 20.8814 16.2652 20.9867 16 20.9867C15.7348 20.9867 15.4804 20.8814 15.2929 20.6938C15.1054 20.5063 15 20.2519 15 19.9867C15 19.7215 15.1054 19.4671 15.2929 19.2796Z" fill="black"/>
</svg>
