<svg width="24" height="24" viewBox="0 0 24 24" fill="none" xmlns="http://www.w3.org/2000/svg">
<path d="M10 11C9.73479 11 9.48043 11.1053 9.2929 11.2929C9.10536 11.4804 9 11.7348 9 12V17C9 17.2652 9.10536 17.5196 9.2929 17.7071C9.48043 17.8946 9.73479 18 10 18C10.2652 18 10.5196 17.8946 10.7071 17.7071C10.8946 17.5196 11 17.2652 11 17V12C11 11.7348 10.8946 11.4804 10.7071 11.2929C10.5196 11.1053 10.2652 11 10 11ZM18.42 6.21999C17.809 4.81599 16.7545 3.65106 15.4181 2.90371C14.0817 2.15636 12.5371 1.86782 11.021 2.0823C9.50488 2.29677 8.10093 3.00244 7.02426 4.09116C5.94759 5.17988 5.25759 6.5916 5.06 8.10999C4.18742 8.32095 3.41117 8.81931 2.85613 9.5249C2.3011 10.2305 1.99955 11.1023 2 12C1.99822 12.5664 2.11675 13.1267 2.34776 13.6439C2.57876 14.1611 2.91697 14.6233 3.34 15C3.43736 15.0935 3.55264 15.1663 3.6789 15.2141C3.80516 15.2619 3.93978 15.2836 4.07466 15.2779C4.20953 15.2722 4.34186 15.2393 4.46367 15.1812C4.58549 15.123 4.69426 15.0408 4.78344 14.9394C4.87262 14.8381 4.94036 14.7197 4.98257 14.5915C5.02479 14.4633 5.0406 14.3278 5.02907 14.1933C5.01754 14.0588 4.97889 13.9281 4.91546 13.8089C4.85203 13.6898 4.76514 13.5847 4.66 13.5C4.45031 13.3107 4.28308 13.0792 4.16932 12.8207C4.05556 12.5621 3.99785 12.2824 4 12C4 11.4696 4.21072 10.9608 4.58579 10.5858C4.96086 10.2107 5.46957 9.99999 6 9.99999C6.26522 9.99999 6.51957 9.89463 6.70711 9.70709C6.89465 9.51956 7 9.2652 7 8.99999C7.00256 7.81726 7.42429 6.67374 8.19027 5.77257C8.95626 4.8714 10.0169 4.27094 11.1838 4.07786C12.3506 3.88478 13.5481 4.11159 14.5636 4.71799C15.579 5.3244 16.3466 6.27113 16.73 7.38999C16.7872 7.56183 16.8899 7.71492 17.0273 7.83292C17.1647 7.95092 17.3315 8.0294 17.51 8.05999C18.2042 8.17973 18.8341 8.53992 19.2893 9.07745C19.7446 9.61499 19.9962 10.2956 20 11C20.0153 11.7363 19.7509 12.451 19.26 13C19.1004 13.1988 19.0227 13.4511 19.0428 13.7053C19.063 13.9594 19.1795 14.1963 19.3685 14.3674C19.5575 14.5386 19.8048 14.631 20.0597 14.6259C20.3146 14.6208 20.558 14.5185 20.74 14.34C21.2908 13.7105 21.6749 12.953 21.8571 12.1367C22.0394 11.3203 22.0139 10.4714 21.7831 9.66742C21.5522 8.86349 21.1234 8.13031 20.5359 7.53502C19.9483 6.93972 19.2208 6.50133 18.42 6.25999V6.21999ZM14 11C13.7348 11 13.4804 11.1053 13.2929 11.2929C13.1054 11.4804 13 11.7348 13 12V17C13 17.2652 13.1054 17.5196 13.2929 17.7071C13.4804 17.8946 13.7348 18 14 18C14.2652 18 14.5196 17.8946 14.7071 17.7071C14.8946 17.5196 15 17.2652 15 17V12C15 11.7348 14.8946 11.4804 14.7071 11.2929C14.5196 11.1053 14.2652 11 14 11Z" fill="black"/>
</svg>
