<svg width="24" height="24" viewBox="0 0 24 24" fill="none" xmlns="http://www.w3.org/2000/svg">
<path d="M8.90632 3.77491L11.2002 6.06879V2.99995C11.2002 2.78778 11.2845 2.58429 11.4345 2.43427C11.5845 2.28424 11.788 2.19995 12.0002 2.19995C12.2124 2.19995 12.4159 2.28424 12.5659 2.43427C12.7159 2.58429 12.8002 2.78778 12.8002 2.99995V6.06879L15.0903 3.77868C15.2411 3.63367 15.4426 3.55345 15.6519 3.55527C15.8616 3.55709 16.0623 3.64123 16.2106 3.78955C16.3589 3.93788 16.4431 4.13853 16.4449 4.34829C16.4467 4.5575 16.3665 4.75908 16.2215 4.90984L12.8002 8.33111V11.2H15.669L19.0916 7.77739L19.0941 7.77489C19.1679 7.69849 19.2561 7.63754 19.3537 7.59561C19.4513 7.55369 19.5563 7.53162 19.6625 7.53069C19.7688 7.52977 19.8741 7.55001 19.9724 7.59024C20.0707 7.63046 20.1601 7.68986 20.2352 7.76498C20.3103 7.84009 20.3697 7.92941 20.4099 8.02773C20.4501 8.12605 20.4704 8.23139 20.4695 8.33761C20.4685 8.44384 20.4465 8.54881 20.4045 8.64642C20.3626 8.74402 20.3016 8.83227 20.2252 8.90607L17.9314 11.2H21.0002C21.2124 11.2 21.4159 11.2842 21.5659 11.4343C21.7159 11.5843 21.8002 11.7878 21.8002 12C21.8002 12.2121 21.7159 12.4156 21.5659 12.5656C21.4159 12.7157 21.2124 12.8 21.0002 12.8H17.9314L20.2228 15.0914L20.2253 15.0938C20.3017 15.1676 20.3626 15.2559 20.4045 15.3535C20.4465 15.4511 20.4685 15.5561 20.4695 15.6623C20.4704 15.7685 20.4501 15.8739 20.4099 15.9722C20.3697 16.0705 20.3103 16.1598 20.2352 16.2349C20.1601 16.31 20.0707 16.3694 19.9724 16.4097C19.8741 16.4499 19.7688 16.4701 19.6625 16.4692C19.5563 16.4683 19.4513 16.4462 19.3537 16.4043C19.2561 16.3624 19.1679 16.3014 19.0941 16.225L15.669 12.8H12.8002V15.6688L16.2228 19.0914L16.2253 19.0938C16.3017 19.1676 16.3626 19.2559 16.4045 19.3535C16.4465 19.4511 16.4685 19.5561 16.4695 19.6623C16.4704 19.7685 16.4501 19.8739 16.4099 19.9722C16.3697 20.0705 16.3103 20.1598 16.2352 20.2349C16.1601 20.31 16.0707 20.3694 15.9724 20.4097C15.8741 20.4499 15.7688 20.4701 15.6625 20.4692C15.5563 20.4683 15.4513 20.4462 15.3537 20.4043C15.2561 20.3624 15.1679 20.3014 15.0941 20.225L12.8002 17.9311V21C12.8002 21.2121 12.7159 21.4156 12.5659 21.5656C12.4159 21.7157 12.2124 21.7999 12.0002 21.7999C11.788 21.7999 11.5845 21.7157 11.4345 21.5656C11.2845 21.4156 11.2002 21.2121 11.2002 21V17.9311L8.90875 20.2225L8.90634 20.225C8.83254 20.3014 8.74426 20.3624 8.64666 20.4043C8.54906 20.4462 8.44408 20.4683 8.33786 20.4692C8.23164 20.4701 8.12629 20.4499 8.02797 20.4097C7.92966 20.3694 7.84034 20.31 7.76522 20.2349C7.69011 20.1598 7.6307 20.0705 7.59048 19.9722C7.55026 19.8739 7.53001 19.7685 7.53094 19.6623C7.53186 19.5561 7.55393 19.4511 7.59586 19.3535C7.63778 19.2559 7.69875 19.1676 7.77516 19.0938L11.2002 15.6688V12.8H8.33135L4.90875 16.2225L4.90634 16.225C4.83254 16.3014 4.74426 16.3624 4.64666 16.4043C4.54906 16.4462 4.44408 16.4683 4.33786 16.4692C4.23163 16.4701 4.12629 16.4499 4.02797 16.4097C3.92966 16.3694 3.84034 16.31 3.76522 16.2349C3.69011 16.1598 3.6307 16.0705 3.59048 15.9722C3.55026 15.8739 3.53001 15.7685 3.53094 15.6623C3.53186 15.5561 3.55393 15.4511 3.59586 15.3535C3.63778 15.2559 3.69875 15.1676 3.77516 15.0938L6.06904 12.8H3.0002C2.78802 12.8 2.58454 12.7157 2.43451 12.5656C2.28448 12.4156 2.2002 12.2121 2.2002 12C2.2002 11.7878 2.28448 11.5843 2.43451 11.4343C2.58454 11.2842 2.78802 11.2 3.0002 11.2H6.06904L3.77764 8.90851L3.77514 8.90609C3.69873 8.8323 3.63778 8.74402 3.59586 8.64642C3.55393 8.54881 3.53186 8.44384 3.53094 8.33761C3.53001 8.23139 3.55026 8.12605 3.59048 8.02773C3.6307 7.92941 3.69011 7.84009 3.76522 7.76498C3.84034 7.68986 3.92966 7.63046 4.02797 7.59024C4.12629 7.55001 4.23164 7.52977 4.33786 7.53069C4.44408 7.53162 4.54906 7.55369 4.64666 7.59561C4.74426 7.63754 4.83252 7.69851 4.90632 7.77491L8.33135 11.2H11.2002V8.33111L7.77764 4.90851L7.77514 4.90609C7.69873 4.8323 7.63778 4.74402 7.59586 4.64642C7.55393 4.54881 7.53186 4.44384 7.53094 4.33761C7.53001 4.23139 7.55026 4.12605 7.59048 4.02773C7.6307 3.92941 7.69011 3.84009 7.76522 3.76498C7.84034 3.68986 7.92966 3.63046 8.02797 3.59024C8.12629 3.55001 8.23164 3.52977 8.33786 3.53069C8.44408 3.53162 8.54906 3.55369 8.64666 3.59561C8.74426 3.63754 8.83252 3.69851 8.90632 3.77491Z" fill="white"/>
</svg>
