<svg width="24" height="24" viewBox="0 0 24 24" fill="none" xmlns="http://www.w3.org/2000/svg">
<path d="M10.9308 14.06C10.6815 13.9699 10.4066 13.9825 10.1666 14.0951C9.92661 14.2076 9.74108 14.4108 9.65082 14.66L8.55082 17.66C8.49624 17.811 8.47881 17.9729 8.5 18.132C8.52119 18.2912 8.58039 18.4429 8.67259 18.5743C8.76479 18.7057 8.88727 18.813 9.02969 18.8871C9.17211 18.9612 9.33028 18.9999 9.49082 19C9.69634 18.9999 9.89683 18.9365 10.065 18.8184C10.2332 18.7003 10.3609 18.5333 10.4308 18.34L11.5308 15.34C11.6209 15.0907 11.6083 14.8158 11.4958 14.5758C11.3833 14.3358 11.1801 14.1503 10.9308 14.06ZM14.9308 14.06C14.6815 13.9699 14.4066 13.9825 14.1666 14.0951C13.9266 14.2076 13.7411 14.4108 13.6508 14.66L12.5508 17.66C12.4962 17.811 12.4788 17.9729 12.5 18.132C12.5212 18.2912 12.5804 18.4429 12.6726 18.5743C12.7648 18.7057 12.8873 18.813 13.0297 18.8871C13.1721 18.9612 13.3303 18.9999 13.4908 19C13.6963 18.9999 13.8968 18.9365 14.065 18.8184C14.2332 18.7003 14.3609 18.5333 14.4308 18.34L15.5308 15.34C15.6209 15.0907 15.6083 14.8158 15.4958 14.5758C15.3833 14.3358 15.1801 14.1503 14.9308 14.06ZM18.42 8.20671C17.809 6.80272 16.7545 5.63779 15.4181 4.89044C14.0817 4.14309 12.5371 3.85454 11.021 4.06902C9.50488 4.2835 8.10093 4.98916 7.02426 6.07789C5.94759 7.16661 5.25759 8.57833 5.06 10.0967C4.18742 10.3077 3.41117 10.806 2.85613 11.5116C2.3011 12.2172 1.99955 13.089 2 13.9867C1.99822 14.5531 2.11675 15.1135 2.34776 15.6306C2.57876 16.1478 2.91697 16.61 3.34 16.9867C3.43736 17.0802 3.55264 17.1531 3.6789 17.2008C3.80516 17.2486 3.93978 17.2703 4.07466 17.2646C4.20953 17.259 4.34186 17.2261 4.46367 17.1679C4.58549 17.1097 4.69426 17.0275 4.78344 16.9261C4.87262 16.8248 4.94036 16.7064 4.98257 16.5782C5.02479 16.45 5.0406 16.3146 5.02907 16.1801C5.01754 16.0456 4.97889 15.9148 4.91546 15.7956C4.85203 15.6765 4.76514 15.5714 4.66 15.4867C4.45031 15.2975 4.28308 15.066 4.16932 14.8074C4.05556 14.5489 3.99785 14.2692 4 13.9867C4 13.4563 4.21072 12.9476 4.58579 12.5725C4.96086 12.1974 5.46957 11.9867 6 11.9867C6.26522 11.9867 6.51957 11.8814 6.70711 11.6938C6.89465 11.5063 7 11.2519 7 10.9867C7.00256 9.80399 7.42429 8.66046 8.19027 7.75929C8.95626 6.85813 10.0169 6.25766 11.1838 6.06458C12.3506 5.87151 13.5481 6.09832 14.5636 6.70472C15.579 7.31112 16.3466 8.25785 16.73 9.37671C16.7872 9.54855 16.8899 9.70164 17.0273 9.81964C17.1647 9.93765 17.3315 10.0161 17.51 10.0467C18.2042 10.1665 18.8341 10.5266 19.2893 11.0642C19.7446 11.6017 19.9962 12.2823 20 12.9867C20.0153 13.723 19.7509 14.4377 19.26 14.9867C19.1004 15.1855 19.0227 15.4378 19.0428 15.692C19.063 15.9462 19.1795 16.183 19.3685 16.3542C19.5575 16.5253 19.8048 16.6178 20.0597 16.6127C20.3146 16.6076 20.558 16.5053 20.74 16.3267C21.2908 15.6973 21.6749 14.9397 21.8571 14.1234C22.0394 13.3071 22.0139 12.4581 21.7831 11.6541C21.5522 10.8502 21.1234 10.117 20.5359 9.52174C19.9483 8.92645 19.2208 8.48806 18.42 8.24671V8.20671Z" fill="black"/>
</svg>
