<svg width="24" height="24" viewBox="0 0 24 24" fill="none" xmlns="http://www.w3.org/2000/svg">
<path d="M10.9308 14.06C10.6815 13.9699 10.4067 13.9825 10.1666 14.0951C9.92663 14.2076 9.7411 14.4108 9.65084 14.66L8.55084 17.66C8.49625 17.811 8.47882 17.9729 8.50002 18.132C8.52121 18.2912 8.58041 18.4429 8.67261 18.5743C8.7648 18.7057 8.88729 18.813 9.02971 18.8871C9.17213 18.9612 9.33029 18.9999 9.49084 19C9.69635 18.9999 9.89685 18.9365 10.065 18.8184C10.2332 18.7003 10.361 18.5333 10.4308 18.34L11.5308 15.34C11.6209 15.0907 11.6083 14.8158 11.4958 14.5758C11.3833 14.3358 11.1801 14.1503 10.9308 14.06ZM14.9308 14.06C14.6815 13.9699 14.4067 13.9825 14.1666 14.0951C13.9266 14.2076 13.7411 14.4108 13.6508 14.66L12.5508 17.66C12.4963 17.811 12.4788 17.9729 12.5 18.132C12.5212 18.2912 12.5804 18.4429 12.6726 18.5743C12.7648 18.7057 12.8873 18.813 13.0297 18.8871C13.1721 18.9612 13.3303 18.9999 13.4908 19C13.6964 18.9999 13.8968 18.9365 14.065 18.8184C14.2332 18.7003 14.361 18.5333 14.4308 18.34L15.5308 15.34C15.6209 15.0907 15.6083 14.8158 15.4958 14.5758C15.3833 14.3358 15.1801 14.1503 14.9308 14.06ZM18.42 8.20671C17.809 6.80272 16.7545 5.63779 15.4181 4.89044C14.0817 4.14309 12.5371 3.85454 11.021 4.06902C9.50489 4.2835 8.10095 4.98916 7.02427 6.07789C5.9476 7.16661 5.25761 8.57833 5.06002 10.0967C4.18743 10.3077 3.41118 10.806 2.85615 11.5116C2.30111 12.2172 1.99957 13.089 2.00002 13.9867C1.99823 14.5531 2.11677 15.1135 2.34777 15.6306C2.57878 16.1478 2.91699 16.61 3.34002 16.9867C3.43738 17.0802 3.55266 17.1531 3.67892 17.2008C3.80518 17.2486 3.9398 17.2703 4.07467 17.2646C4.20955 17.259 4.34188 17.2261 4.46369 17.1679C4.5855 17.1097 4.69428 17.0275 4.78346 16.9261C4.87264 16.8248 4.94037 16.7064 4.98259 16.5782C5.0248 16.45 5.04062 16.3146 5.02909 16.1801C5.01755 16.0456 4.97891 15.9148 4.91548 15.7956C4.85205 15.6765 4.76515 15.5714 4.66002 15.4867C4.45032 15.2975 4.28309 15.066 4.16933 14.8074C4.05557 14.5489 3.99787 14.2692 4.00002 13.9867C4.00002 13.4563 4.21073 12.9476 4.58581 12.5725C4.96088 12.1974 5.46959 11.9867 6.00002 11.9867C6.26524 11.9867 6.51959 11.8814 6.70713 11.6938C6.89466 11.5063 7.00002 11.2519 7.00002 10.9867C7.00257 9.80399 7.42431 8.66046 8.19029 7.75929C8.95627 6.85812 10.0169 6.25766 11.1838 6.06458C12.3506 5.87151 13.5482 6.09832 14.5636 6.70472C15.579 7.31112 16.3466 8.25785 16.73 9.37671C16.7872 9.54855 16.8899 9.70164 17.0273 9.81964C17.1647 9.93765 17.3315 10.0161 17.51 10.0467C18.2042 10.1665 18.8341 10.5266 19.2893 11.0642C19.7446 11.6017 19.9962 12.2823 20 12.9867C20.0153 13.723 19.7509 14.4377 19.26 14.9867C19.1004 15.1855 19.0227 15.4378 19.0429 15.692C19.063 15.9462 19.1795 16.183 19.3686 16.3542C19.5576 16.5253 19.8048 16.6178 20.0597 16.6127C20.3147 16.6076 20.558 16.5053 20.74 16.3267C21.2908 15.6973 21.6749 14.9397 21.8572 14.1234C22.0394 13.3071 22.0139 12.4581 21.7831 11.6541C21.5523 10.8502 21.1234 10.117 20.5359 9.52174C19.9483 8.92645 19.2209 8.48806 18.42 8.24671V8.20671Z" fill="white"/>
</svg>
