<svg width="24" height="24" viewBox="0 0 24 24" fill="none" xmlns="http://www.w3.org/2000/svg">
<path d="M8.89002 15.0467C8.64071 14.9566 8.36584 14.9693 8.12583 15.0818C7.88581 15.1943 7.70028 15.3975 7.61002 15.6467L6.51002 18.6467C6.45544 18.7977 6.438 18.9596 6.4592 19.1187C6.48039 19.2779 6.53959 19.4296 6.63179 19.561C6.72398 19.6924 6.84647 19.7997 6.98889 19.8738C7.13131 19.9479 7.28948 19.9866 7.45002 19.9867C7.65553 19.9866 7.85603 19.9232 8.02423 19.8051C8.19242 19.687 8.32015 19.52 8.39002 19.3267L9.49002 16.3267C9.58008 16.0774 9.56747 15.8025 9.45497 15.5625C9.34246 15.3225 9.13926 15.137 8.89002 15.0467ZM12.89 15.0467C12.6407 14.9566 12.3658 14.9693 12.1258 15.0818C11.8858 15.1943 11.7003 15.3975 11.61 15.6467L10.51 18.6467C10.4554 18.7977 10.438 18.9596 10.4592 19.1187C10.4804 19.2779 10.5396 19.4296 10.6318 19.561C10.724 19.6924 10.8465 19.7997 10.9889 19.8738C11.1313 19.9479 11.2895 19.9866 11.45 19.9867C11.6555 19.9866 11.856 19.9232 12.0242 19.8051C12.1924 19.687 12.3201 19.52 12.39 19.3267L13.49 16.3267C13.5801 16.0774 13.5675 15.8025 13.455 15.5625C13.3425 15.3225 13.1393 15.137 12.89 15.0467ZM18.42 9.20671C17.809 7.80272 16.7545 6.63779 15.4181 5.89044C14.0817 5.14309 12.5371 4.85454 11.021 5.06902C9.50489 5.2835 8.10095 5.98916 7.02427 7.07789C5.9476 8.16661 5.25761 9.57833 5.06002 11.0967C4.18743 11.3077 3.41118 11.806 2.85615 12.5116C2.30111 13.2172 1.99957 14.089 2.00002 14.9867C1.99823 15.5531 2.11677 16.1135 2.34777 16.6306C2.57878 17.1478 2.91699 17.61 3.34002 17.9867C3.43738 18.0802 3.55266 18.1531 3.67892 18.2008C3.80518 18.2486 3.9398 18.2703 4.07467 18.2646C4.20955 18.259 4.34188 18.2261 4.46369 18.1679C4.5855 18.1097 4.69428 18.0275 4.78346 17.9261C4.87264 17.8248 4.94037 17.7064 4.98259 17.5782C5.0248 17.45 5.04062 17.3146 5.02909 17.1801C5.01755 17.0456 4.97891 16.9148 4.91548 16.7956C4.85205 16.6765 4.76515 16.5714 4.66002 16.4867C4.45032 16.2975 4.28309 16.066 4.16933 15.8074C4.05557 15.5489 3.99787 15.2692 4.00002 14.9867C4.00002 14.4563 4.21073 13.9476 4.58581 13.5725C4.96088 13.1974 5.46959 12.9867 6.00002 12.9867C6.26524 12.9867 6.51959 12.8814 6.70713 12.6938C6.89466 12.5063 7.00002 12.2519 7.00002 11.9867C7.00257 10.804 7.42431 9.66046 8.19029 8.75929C8.95627 7.85812 10.0169 7.25766 11.1838 7.06458C12.3506 6.87151 13.5482 7.09832 14.5636 7.70472C15.579 8.31112 16.3466 9.25785 16.73 10.3767C16.7872 10.5486 16.8899 10.7016 17.0273 10.8196C17.1647 10.9376 17.3315 11.0161 17.51 11.0467C18.2042 11.1665 18.8341 11.5266 19.2893 12.0642C19.7446 12.6017 19.9962 13.2823 20 13.9867C20.0153 14.723 19.7509 15.4377 19.26 15.9867C19.1004 16.1855 19.0227 16.4378 19.0429 16.692C19.063 16.9462 19.1795 17.183 19.3686 17.3542C19.5576 17.5253 19.8048 17.6178 20.0597 17.6127C20.3147 17.6076 20.558 17.5053 20.74 17.3267C21.2908 16.6973 21.6749 15.9397 21.8572 15.1234C22.0394 14.3071 22.0139 13.4581 21.7831 12.6541C21.5523 11.8502 21.1234 11.117 20.5359 10.5217C19.9483 9.92645 19.2209 9.48806 18.42 9.24671V9.20671ZM16.89 15.0467C16.6407 14.9566 16.3658 14.9693 16.1258 15.0818C15.8858 15.1943 15.7003 15.3975 15.61 15.6467L14.51 18.6467C14.4554 18.7977 14.438 18.9596 14.4592 19.1187C14.4804 19.2779 14.5396 19.4296 14.6318 19.561C14.724 19.6924 14.8465 19.7997 14.9889 19.8738C15.1313 19.9479 15.2895 19.9866 15.45 19.9867C15.6555 19.9866 15.856 19.9232 16.0242 19.8051C16.1924 19.687 16.3201 19.52 16.39 19.3267L17.49 16.3267C17.5801 16.0774 17.5675 15.8025 17.455 15.5625C17.3425 15.3225 17.1393 15.137 16.89 15.0467Z" fill="white"/>
</svg>
