<svg width="24" height="24" viewBox="0 0 24 24" fill="none" xmlns="http://www.w3.org/2000/svg">
<path d="M8.89001 15.0467C8.6407 14.9566 8.36583 14.9693 8.12581 15.0818C7.88579 15.1943 7.70027 15.3975 7.61 15.6467L6.51 18.6467C6.45542 18.7977 6.43799 18.9596 6.45918 19.1187C6.48038 19.2779 6.53958 19.4296 6.63177 19.561C6.72397 19.6924 6.84646 19.7997 6.98887 19.8738C7.13129 19.9479 7.28946 19.9866 7.45 19.9867C7.65552 19.9866 7.85601 19.9232 8.02421 19.8051C8.19241 19.687 8.32013 19.52 8.39001 19.3267L9.49 16.3267C9.58007 16.0774 9.56746 15.8025 9.45495 15.5625C9.34244 15.3225 9.13924 15.137 8.89001 15.0467ZM12.89 15.0467C12.6407 14.9566 12.3658 14.9693 12.1258 15.0818C11.8858 15.1943 11.7003 15.3975 11.61 15.6467L10.51 18.6467C10.4554 18.7977 10.438 18.9596 10.4592 19.1187C10.4804 19.2779 10.5396 19.4296 10.6318 19.561C10.724 19.6924 10.8465 19.7997 10.9889 19.8738C11.1313 19.9479 11.2895 19.9866 11.45 19.9867C11.6555 19.9866 11.856 19.9232 12.0242 19.8051C12.1924 19.687 12.3201 19.52 12.39 19.3267L13.49 16.3267C13.5801 16.0774 13.5675 15.8025 13.455 15.5625C13.3424 15.3225 13.1392 15.137 12.89 15.0467ZM18.42 9.20671C17.809 7.80272 16.7545 6.63779 15.4181 5.89044C14.0817 5.14309 12.5371 4.85454 11.021 5.06902C9.50488 5.2835 8.10093 5.98916 7.02426 7.07789C5.94759 8.16661 5.25759 9.57833 5.06 11.0967C4.18742 11.3077 3.41117 11.806 2.85613 12.5116C2.3011 13.2172 1.99955 14.089 2 14.9867C1.99822 15.5531 2.11675 16.1135 2.34776 16.6306C2.57876 17.1478 2.91697 17.61 3.34 17.9867C3.43736 18.0802 3.55264 18.1531 3.6789 18.2008C3.80516 18.2486 3.93978 18.2703 4.07466 18.2646C4.20953 18.259 4.34186 18.2261 4.46367 18.1679C4.58549 18.1097 4.69426 18.0275 4.78344 17.9261C4.87262 17.8248 4.94036 17.7064 4.98257 17.5782C5.02479 17.45 5.0406 17.3146 5.02907 17.1801C5.01754 17.0456 4.97889 16.9148 4.91546 16.7956C4.85203 16.6765 4.76514 16.5714 4.66 16.4867C4.45031 16.2975 4.28308 16.066 4.16932 15.8074C4.05556 15.5489 3.99785 15.2692 4 14.9867C4 14.4563 4.21072 13.9476 4.58579 13.5725C4.96086 13.1974 5.46957 12.9867 6 12.9867C6.26522 12.9867 6.51957 12.8814 6.70711 12.6938C6.89465 12.5063 7 12.2519 7 11.9867C7.00256 10.804 7.42429 9.66046 8.19027 8.75929C8.95626 7.85813 10.0169 7.25766 11.1838 7.06458C12.3506 6.87151 13.5481 7.09832 14.5636 7.70472C15.579 8.31112 16.3466 9.25785 16.73 10.3767C16.7872 10.5486 16.8899 10.7016 17.0273 10.8196C17.1647 10.9376 17.3315 11.0161 17.51 11.0467C18.2042 11.1665 18.8341 11.5266 19.2893 12.0642C19.7446 12.6017 19.9962 13.2823 20 13.9867C20.0153 14.723 19.7509 15.4377 19.26 15.9867C19.1004 16.1855 19.0227 16.4378 19.0428 16.692C19.063 16.9462 19.1795 17.183 19.3685 17.3542C19.5575 17.5253 19.8048 17.6178 20.0597 17.6127C20.3146 17.6076 20.558 17.5053 20.74 17.3267C21.2908 16.6973 21.6749 15.9397 21.8571 15.1234C22.0394 14.3071 22.0139 13.4581 21.7831 12.6541C21.5522 11.8502 21.1234 11.117 20.5359 10.5217C19.9483 9.92645 19.2208 9.48806 18.42 9.24671V9.20671ZM16.89 15.0467C16.6407 14.9566 16.3658 14.9693 16.1258 15.0818C15.8858 15.1943 15.7003 15.3975 15.61 15.6467L14.51 18.6467C14.4554 18.7977 14.438 18.9596 14.4592 19.1187C14.4804 19.2779 14.5396 19.4296 14.6318 19.561C14.724 19.6924 14.8465 19.7997 14.9889 19.8738C15.1313 19.9479 15.2895 19.9866 15.45 19.9867C15.6555 19.9866 15.856 19.9232 16.0242 19.8051C16.1924 19.687 16.3201 19.52 16.39 19.3267L17.49 16.3267C17.5801 16.0774 17.5675 15.8025 17.455 15.5625C17.3424 15.3225 17.1392 15.137 16.89 15.0467Z" fill="black"/>
</svg>
