<svg width="24" height="24" viewBox="0 0 24 24" fill="none" xmlns="http://www.w3.org/2000/svg">
<path d="M13.01 18.0599C12.7607 17.9698 12.4858 17.9825 12.2458 18.095C12.0058 18.2075 11.8203 18.4107 11.73 18.6599L11 20.6599C10.91 20.9092 10.9226 21.1841 11.0351 21.4241C11.1476 21.6641 11.3508 21.8496 11.6 21.9399C11.709 21.9795 11.8241 21.9998 11.94 21.9999C12.1455 21.9998 12.346 21.9364 12.5142 21.8183C12.6824 21.7002 12.8101 21.5332 12.88 21.3399L13.61 19.3399C13.7001 19.0906 13.6875 18.8157 13.575 18.5757C13.4625 18.3357 13.2593 18.1502 13.01 18.0599ZM9.01002 18.0599C8.76071 17.9698 8.48584 17.9825 8.24582 18.095C8.0058 18.2075 7.82028 18.4107 7.73002 18.6599L7.00002 20.6599C6.90995 20.9092 6.92256 21.1841 7.03507 21.4241C7.14758 21.6641 7.35078 21.8496 7.60002 21.9399C7.70901 21.9795 7.82406 21.9998 7.94002 21.9999C8.14553 21.9998 8.34602 21.9364 8.51422 21.8183C8.68242 21.7002 8.81014 21.5332 8.88002 21.3399L9.61001 19.3399C9.70008 19.0906 9.68747 18.8157 9.57496 18.5757C9.46245 18.3357 9.25925 18.1502 9.01002 18.0599ZM8.89002 12.0599C8.64071 11.9698 8.36584 11.9824 8.12583 12.0949C7.88581 12.2075 7.70028 12.4107 7.61002 12.6599L6.51002 15.6599C6.45544 15.8109 6.438 15.9728 6.4592 16.1319C6.48039 16.2911 6.53959 16.4427 6.63179 16.5742C6.72398 16.7056 6.84647 16.8129 6.98889 16.887C7.13131 16.9611 7.28948 16.9998 7.45002 16.9999C7.65553 16.9998 7.85603 16.9364 8.02423 16.8183C8.19242 16.7002 8.32015 16.5332 8.39002 16.3399L9.49002 13.3399C9.58008 13.0906 9.56747 12.8157 9.45497 12.5757C9.34246 12.3357 9.13926 12.1502 8.89002 12.0599ZM12.89 12.0599C12.6407 11.9698 12.3658 11.9824 12.1258 12.0949C11.8858 12.2075 11.7003 12.4107 11.61 12.6599L10.51 15.6599C10.4554 15.8109 10.438 15.9728 10.4592 16.1319C10.4804 16.2911 10.5396 16.4427 10.6318 16.5742C10.724 16.7056 10.8465 16.8129 10.9889 16.887C11.1313 16.9611 11.2895 16.9998 11.45 16.9999C11.6555 16.9998 11.856 16.9364 12.0242 16.8183C12.1924 16.7002 12.3201 16.5332 12.39 16.3399L13.49 13.3399C13.5801 13.0906 13.5675 12.8157 13.455 12.5757C13.3425 12.3357 13.1393 12.1502 12.89 12.0599ZM18.42 6.21989C17.809 4.8159 16.7545 3.65097 15.4181 2.90362C14.0817 2.15627 12.5371 1.86773 11.021 2.0822C9.50489 2.29668 8.10095 3.00235 7.02427 4.09107C5.9476 5.17979 5.25761 6.59151 5.06002 8.10989C4.18743 8.32086 3.41118 8.81922 2.85615 9.52481C2.30111 10.2304 1.99957 11.1022 2.00002 11.9999C1.99823 12.5663 2.11677 13.1267 2.34777 13.6438C2.57878 14.161 2.91699 14.6232 3.34002 14.9999C3.43738 15.0934 3.55266 15.1662 3.67892 15.214C3.80518 15.2618 3.9398 15.2835 4.07467 15.2778C4.20955 15.2722 4.34188 15.2392 4.46369 15.1811C4.5855 15.1229 4.69428 15.0407 4.78346 14.9393C4.87264 14.838 4.94037 14.7196 4.98259 14.5914C5.0248 14.4632 5.04062 14.3277 5.02909 14.1933C5.01755 14.0588 4.97891 13.928 4.91548 13.8088C4.85205 13.6897 4.76515 13.5846 4.66002 13.4999C4.45032 13.3107 4.28309 13.0791 4.16933 12.8206C4.05557 12.5621 3.99787 12.2823 4.00002 11.9999C4.00002 11.4695 4.21073 10.9608 4.58581 10.5857C4.96088 10.2106 5.46959 9.99989 6.00002 9.99989C6.26524 9.99989 6.51959 9.89454 6.70713 9.707C6.89466 9.51946 7.00002 9.26511 7.00002 8.99989C7.00257 7.81717 7.42431 6.67365 8.19029 5.77248C8.95627 4.87131 10.0169 4.27085 11.1838 4.07777C12.3506 3.88469 13.5482 4.1115 14.5636 4.7179C15.579 5.32431 16.3466 6.27103 16.73 7.38989C16.7872 7.56173 16.8899 7.71483 17.0273 7.83283C17.1647 7.95083 17.3315 8.02931 17.51 8.0599C18.2042 8.17964 18.8341 8.53983 19.2893 9.07736C19.7446 9.61489 19.9962 10.2955 20 10.9999C20.0153 11.7362 19.7509 12.4509 19.26 12.9999C19.1004 13.1987 19.0227 13.451 19.0429 13.7052C19.063 13.9593 19.1795 14.1962 19.3686 14.3673C19.5576 14.5385 19.8048 14.6309 20.0597 14.6258C20.3147 14.6207 20.558 14.5185 20.74 14.3399C21.2908 13.7105 21.6749 12.9529 21.8572 12.1366C22.0394 11.3203 22.0139 10.4713 21.7831 9.66733C21.5523 8.8634 21.1234 8.13022 20.5359 7.53493C19.9483 6.93963 19.2209 6.50124 18.42 6.25989V6.21989ZM16.89 12.0599C16.6407 11.9698 16.3658 11.9824 16.1258 12.0949C15.8858 12.2075 15.7003 12.4107 15.61 12.6599L14.51 15.6599C14.4554 15.8109 14.438 15.9728 14.4592 16.1319C14.4804 16.2911 14.5396 16.4427 14.6318 16.5742C14.724 16.7056 14.8465 16.8129 14.9889 16.887C15.1313 16.9611 15.2895 16.9998 15.45 16.9999C15.6555 16.9998 15.856 16.9364 16.0242 16.8183C16.1924 16.7002 16.3201 16.5332 16.39 16.3399L17.49 13.3399C17.5801 13.0906 17.5675 12.8157 17.455 12.5757C17.3425 12.3357 17.1393 12.1502 16.89 12.0599Z" fill="white"/>
</svg>
