<svg width="24" height="24" viewBox="0 0 24 24" fill="none" xmlns="http://www.w3.org/2000/svg">
<path d="M13.01 18.06C12.7607 17.9699 12.4858 17.9825 12.2458 18.0951C12.0058 18.2076 11.8203 18.4108 11.73 18.66L11 20.66C10.9099 20.9093 10.9225 21.1842 11.0351 21.4242C11.1476 21.6642 11.3508 21.8497 11.6 21.94C11.709 21.9796 11.824 21.9999 11.94 22C12.1455 21.9999 12.346 21.9365 12.5142 21.8184C12.6824 21.7003 12.8101 21.5333 12.88 21.34L13.61 19.34C13.7001 19.0907 13.6875 18.8158 13.5749 18.5758C13.4624 18.3358 13.2592 18.1503 13.01 18.06ZM9.01 18.06C8.76069 17.9699 8.48582 17.9825 8.24581 18.0951C8.00579 18.2076 7.82026 18.4108 7.73 18.66L7 20.66C6.90994 20.9093 6.92255 21.1842 7.03505 21.4242C7.14756 21.6642 7.35076 21.8497 7.6 21.94C7.709 21.9796 7.82405 21.9999 7.94 22C8.14551 21.9999 8.34601 21.9365 8.5142 21.8184C8.6824 21.7003 8.81013 21.5333 8.88 21.34L9.61 19.34C9.70006 19.0907 9.68745 18.8158 9.57495 18.5758C9.46244 18.3358 9.25924 18.1503 9.01 18.06ZM8.89001 12.06C8.6407 11.9699 8.36583 11.9825 8.12581 12.095C7.88579 12.2075 7.70027 12.4107 7.61 12.66L6.51 15.66C6.45542 15.811 6.43799 15.9729 6.45918 16.132C6.48038 16.2911 6.53958 16.4428 6.63177 16.5743C6.72397 16.7057 6.84646 16.813 6.98887 16.8871C7.13129 16.9612 7.28946 16.9999 7.45 17C7.65552 16.9999 7.85601 16.9365 8.02421 16.8184C8.19241 16.7003 8.32013 16.5333 8.39001 16.34L9.49 13.34C9.58007 13.0907 9.56746 12.8158 9.45495 12.5758C9.34244 12.3358 9.13924 12.1502 8.89001 12.06ZM12.89 12.06C12.6407 11.9699 12.3658 11.9825 12.1258 12.095C11.8858 12.2075 11.7003 12.4107 11.61 12.66L10.51 15.66C10.4554 15.811 10.438 15.9729 10.4592 16.132C10.4804 16.2911 10.5396 16.4428 10.6318 16.5743C10.724 16.7057 10.8465 16.813 10.9889 16.8871C11.1313 16.9612 11.2895 16.9999 11.45 17C11.6555 16.9999 11.856 16.9365 12.0242 16.8184C12.1924 16.7003 12.3201 16.5333 12.39 16.34L13.49 13.34C13.5801 13.0907 13.5675 12.8158 13.455 12.5758C13.3424 12.3358 13.1392 12.1502 12.89 12.06ZM18.42 6.21999C17.809 4.81599 16.7545 3.65106 15.4181 2.90371C14.0817 2.15636 12.5371 1.86782 11.021 2.0823C9.50488 2.29677 8.10093 3.00244 7.02426 4.09116C5.94759 5.17988 5.25759 6.5916 5.06 8.10999C4.18742 8.32095 3.41117 8.81931 2.85613 9.5249C2.3011 10.2305 1.99955 11.1023 2 12C1.99822 12.5664 2.11675 13.1267 2.34776 13.6439C2.57876 14.1611 2.91697 14.6233 3.34 15C3.43736 15.0935 3.55264 15.1663 3.6789 15.2141C3.80516 15.2619 3.93978 15.2836 4.07466 15.2779C4.20953 15.2722 4.34186 15.2393 4.46367 15.1812C4.58549 15.123 4.69426 15.0408 4.78344 14.9394C4.87262 14.8381 4.94036 14.7197 4.98257 14.5915C5.02479 14.4633 5.0406 14.3278 5.02907 14.1933C5.01754 14.0588 4.97889 13.9281 4.91546 13.8089C4.85203 13.6898 4.76514 13.5847 4.66 13.5C4.45031 13.3107 4.28308 13.0792 4.16932 12.8207C4.05556 12.5621 3.99785 12.2824 4 12C4 11.4696 4.21072 10.9608 4.58579 10.5858C4.96086 10.2107 5.46957 9.99999 6 9.99999C6.26522 9.99999 6.51957 9.89463 6.70711 9.70709C6.89465 9.51956 7 9.2652 7 8.99999C7.00256 7.81726 7.42429 6.67374 8.19027 5.77257C8.95626 4.8714 10.0169 4.27094 11.1838 4.07786C12.3506 3.88478 13.5481 4.11159 14.5636 4.71799C15.579 5.3244 16.3466 6.27113 16.73 7.38999C16.7872 7.56183 16.8899 7.71492 17.0273 7.83292C17.1647 7.95092 17.3315 8.0294 17.51 8.05999C18.2042 8.17973 18.8341 8.53992 19.2893 9.07745C19.7446 9.61499 19.9962 10.2956 20 11C20.0153 11.7363 19.7509 12.451 19.26 13C19.1004 13.1988 19.0227 13.4511 19.0428 13.7053C19.063 13.9594 19.1795 14.1963 19.3685 14.3674C19.5575 14.5386 19.8048 14.631 20.0597 14.6259C20.3146 14.6208 20.558 14.5185 20.74 14.34C21.2908 13.7105 21.6749 12.953 21.8571 12.1367C22.0394 11.3203 22.0139 10.4714 21.7831 9.66742C21.5522 8.86349 21.1234 8.13031 20.5359 7.53502C19.9483 6.93972 19.2208 6.50133 18.42 6.25999V6.21999ZM16.89 12.06C16.6407 11.9699 16.3658 11.9825 16.1258 12.095C15.8858 12.2075 15.7003 12.4107 15.61 12.66L14.51 15.66C14.4554 15.811 14.438 15.9729 14.4592 16.132C14.4804 16.2911 14.5396 16.4428 14.6318 16.5743C14.724 16.7057 14.8465 16.813 14.9889 16.8871C15.1313 16.9612 15.2895 16.9999 15.45 17C15.6555 16.9999 15.856 16.9365 16.0242 16.8184C16.1924 16.7003 16.3201 16.5333 16.39 16.34L17.49 13.34C17.5801 13.0907 17.5675 12.8158 17.455 12.5758C17.3424 12.3358 17.1392 12.1502 16.89 12.06Z" fill="black"/>
</svg>
