<svg width="24" height="24" viewBox="0 0 24 24" fill="none" xmlns="http://www.w3.org/2000/svg">
<path d="M15.4181 1.89044C16.7545 2.63779 17.809 3.80272 18.42 5.20671V5.24671C19.2209 5.48806 19.9483 5.92645 20.5359 6.52174C21.1234 7.11704 21.5523 7.85022 21.7831 8.65415C22.0139 9.45808 22.0394 10.3071 21.8572 11.1234C21.6749 11.9397 21.2908 12.6973 20.74 13.3267C20.558 13.5053 20.3147 13.6076 20.0597 13.6127C19.8048 13.6178 19.5576 13.5253 19.3686 13.3542C19.1795 13.183 19.063 12.9462 19.0429 12.692C19.0227 12.4378 19.1004 12.1855 19.26 11.9867C19.7509 11.4377 20.0153 10.723 20 9.98671C19.9962 9.2823 19.7446 8.60171 19.2893 8.06418C18.8341 7.52664 18.2042 7.16645 17.51 7.04671C17.3315 7.01613 17.1647 6.93765 17.0273 6.81964C16.8899 6.70164 16.7872 6.54855 16.73 6.37671C16.3466 5.25785 15.579 4.31112 14.5636 3.70472C13.5482 3.09832 12.3506 2.87151 11.1838 3.06458C10.0169 3.25766 8.95627 3.85812 8.19029 4.75929C7.42431 5.66046 7.00257 6.80399 7.00002 7.98671C7.00002 8.25193 6.89466 8.50628 6.70713 8.69382C6.51959 8.88135 6.26524 8.98671 6.00002 8.98671C5.46959 8.98671 4.96088 9.19743 4.58581 9.5725C4.21073 9.94757 4.00002 10.4563 4.00002 10.9867C3.99787 11.2692 4.05557 11.5489 4.16933 11.8074C4.28309 12.066 4.45032 12.2975 4.66002 12.4867C4.76515 12.5714 4.85205 12.6765 4.91548 12.7956C4.97891 12.9148 5.01755 13.0456 5.02909 13.1801C5.04062 13.3146 5.0248 13.45 4.98259 13.5782C4.94037 13.7064 4.87264 13.8248 4.78346 13.9261C4.69428 14.0275 4.5855 14.1097 4.46369 14.1679C4.34188 14.2261 4.20955 14.259 4.07467 14.2646C3.9398 14.2703 3.80518 14.2486 3.67892 14.2008C3.55266 14.1531 3.43738 14.0802 3.34002 13.9867C2.91699 13.61 2.57878 13.1478 2.34777 12.6306C2.11677 12.1135 1.99823 11.5531 2.00002 10.9867C1.99957 10.089 2.30111 9.21721 2.85615 8.51162C3.41118 7.80604 4.18743 7.30768 5.06002 7.09671C5.25761 5.57833 5.9476 4.16661 7.02427 3.07789C8.10095 1.98916 9.50489 1.2835 11.021 1.06902C12.5371 0.854544 14.0817 1.14309 15.4181 1.89044Z" fill="black"/>
<path d="M12.6667 10.6667C12.6667 10.2985 12.3682 10 12 10C11.6318 10 11.3333 10.2985 11.3333 10.6667V12.0202L10.3973 11.0842C10.137 10.8238 9.71487 10.8238 9.45452 11.0842C9.19417 11.3445 9.19417 11.7666 9.45452 12.027L11.3333 13.9058V15.3333H9.90577L8.02696 13.4545C7.76661 13.1942 7.3445 13.1942 7.08415 13.4545C6.8238 13.7149 6.8238 14.137 7.08415 14.3973L8.02015 15.3333H6.66667C6.29848 15.3333 6 15.6318 6 16C6 16.3682 6.29848 16.6667 6.66667 16.6667H8.02015L7.08415 17.6027C6.8238 17.863 6.8238 18.2851 7.08415 18.5455C7.3445 18.8058 7.76661 18.8058 8.02696 18.5455L9.90577 16.6667H11.3333V18.0942L9.45452 19.973C9.19417 20.2334 9.19417 20.6555 9.45452 20.9158C9.71487 21.1762 10.137 21.1762 10.3973 20.9158L11.3333 19.9798V21.3333C11.3333 21.7015 11.6318 22 12 22C12.3682 22 12.6667 21.7015 12.6667 21.3333V19.9798L13.6027 20.9158C13.863 21.1762 14.2851 21.1762 14.5455 20.9158C14.8058 20.6555 14.8058 20.2334 14.5455 19.973L12.6667 18.0942V16.6667H14.0942L15.973 18.5455C16.2334 18.8058 16.6555 18.8058 16.9158 18.5455C17.1762 18.2851 17.1762 17.863 16.9158 17.6027L15.9798 16.6667H17.3333C17.7015 16.6667 18 16.3682 18 16C18 15.6318 17.7015 15.3333 17.3333 15.3333H15.9798L16.9158 14.3973C17.1762 14.137 17.1762 13.7149 16.9158 13.4545C16.6555 13.1942 16.2334 13.1942 15.973 13.4545L14.0942 15.3333H12.6667V13.9058L14.5455 12.027C14.8058 11.7666 14.8058 11.3445 14.5455 11.0842C14.2851 10.8238 13.863 10.8238 13.6027 11.0842L12.6667 12.0202V10.6667Z" fill="black"/>
</svg>
