<svg width="650" height="650" viewBox="0 0 650 650" fill="none" xmlns="http://www.w3.org/2000/svg">
<g clip-path="url(#clip0_308_3055)">
<path d="M220.666 33.4192C219.962 32.036 218.029 31.9229 217.169 33.2145L209.123 45.2919C193.712 68.4246 162.555 74.8487 139.251 59.6986L127.084 51.7889C125.782 50.943 124.052 51.8115 123.953 53.3603L123.023 67.8427C121.243 95.5817 97.4731 116.723 69.7158 115.255L55.2239 114.489C53.6741 114.407 52.6096 116.024 53.298 117.415L59.7343 130.422C72.0623 155.335 62.0476 185.529 37.275 198.136L24.3415 204.718C22.9583 205.422 22.8451 207.355 24.1368 208.216L36.2142 216.262C59.3469 231.673 65.7709 262.829 50.6209 286.133L42.7112 298.3C41.8653 299.602 42.7338 301.332 44.2826 301.432L58.7649 302.361C86.5039 304.141 107.645 327.911 106.177 355.668L105.411 370.16C105.329 371.71 106.946 372.774 108.337 372.086L121.344 365.65C146.257 353.322 176.451 363.336 189.058 388.109L195.64 401.043C196.344 402.426 198.277 402.539 199.138 401.247L207.184 389.17C222.595 366.037 253.751 359.613 277.056 374.763L289.223 382.673C290.524 383.519 292.254 382.65 292.354 381.101L293.283 366.619C295.063 338.88 318.833 317.739 346.591 319.207L361.082 319.973C362.632 320.055 363.697 318.438 363.008 317.047L356.572 304.04C344.244 279.127 354.259 248.933 379.031 236.326L391.965 229.744C393.348 229.04 393.461 227.107 392.17 226.246L380.092 218.2C356.959 202.789 350.535 171.633 365.685 148.329L373.595 136.161C374.441 134.86 373.573 133.13 372.024 133.03L357.541 132.101C329.802 130.321 308.661 106.551 310.129 78.7936L310.895 64.3017C310.977 62.7518 309.36 61.6874 307.969 62.3757L294.962 68.8121C270.049 81.1401 239.855 71.1253 227.248 46.3528L220.666 33.4192Z" fill="#FC9596" stroke="black" stroke-width="4.49998"/>
<ellipse rx="112.287" ry="111.611" transform="matrix(-0.962827 -0.27012 -0.27012 0.962827 207.158 216.951)" fill="#F8C701" stroke="black" stroke-width="4.49998"/>
<ellipse rx="15.4531" ry="19.0588" transform="matrix(-0.996554 0.0829488 0.0829488 0.996554 264.142 232.533)" fill="#FC9596" stroke="black" stroke-width="4"/>
<ellipse cx="122.516" cy="203.727" rx="14.4746" ry="17.852" transform="rotate(24.8516 122.516 203.727)" fill="#FC9596" stroke="black" stroke-width="4"/>
<ellipse rx="21.0879" ry="26.8068" transform="matrix(0.981122 0.193387 -0.15556 0.987826 216.39 197.624)" fill="white" stroke="black" stroke-width="4" stroke-linecap="round"/>
<path d="M214.463 171.535C220.941 181.573 228.519 206.332 205.925 220.897C191.501 214.384 192.387 175.064 214.463 171.535Z" fill="black"/>
<ellipse rx="21.0879" ry="26.8068" transform="matrix(0.981122 0.193387 -0.15556 0.987826 179.103 190.274)" fill="white" stroke="black" stroke-width="4" stroke-linecap="round"/>
<path d="M177.115 164.496C183.593 174.534 190.9 198.251 168.305 212.815C153.882 206.303 155.038 168.025 177.115 164.496Z" fill="black"/>
<path d="M185.012 148.813C179.051 143.773 167.8 142.018 160.68 150.834" stroke="black" stroke-width="4.49998" stroke-linecap="round"/>
<path d="M223.737 154.159C233.158 151.121 244.882 155.358 247.193 165.894" stroke="black" stroke-width="4.49998" stroke-linecap="round"/>
<path d="M227.646 243.233C220.75 232.77 208.04 247.74 186.703 243.828C165.366 239.917 160.047 222.65 151.087 230.816C142.976 238.208 157.847 259.629 184.224 264.464C212.929 269.727 234.284 253.304 227.646 243.233Z" fill="#FC9596" stroke="black" stroke-width="4" stroke-linecap="round" stroke-linejoin="round"/>
<path d="M216.942 249.231C204.278 257.651 173.066 259.236 158.496 239.244" stroke="black" stroke-width="4" stroke-linecap="round" stroke-linejoin="round"/>
<path d="M287.195 456.643C287.195 456.643 288.027 482.457 279.775 496.749C271.524 511.041 263.731 514.683 257.314 510.978C250.898 507.273 249.063 498.845 257.314 484.553C265.566 470.261 287.195 456.643 287.195 456.643Z" fill="#4B9EE9" stroke="black" stroke-width="4" stroke-linejoin="round"/>
<path d="M302.93 543.12C302.93 543.12 303.762 568.934 295.511 583.226C287.259 597.518 279.466 601.16 273.05 597.455C266.633 593.75 264.799 585.321 273.05 571.03C281.301 556.738 302.93 543.12 302.93 543.12Z" fill="#4B9EE9" stroke="black" stroke-width="4" stroke-linejoin="round"/>
<path d="M384.131 474.752C384.131 474.752 384.963 500.567 376.712 514.859C368.461 529.15 360.667 532.792 354.251 529.087C347.834 525.383 346 516.954 354.251 502.662C362.502 488.371 384.131 474.752 384.131 474.752Z" fill="#4B9EE9" stroke="black" stroke-width="4" stroke-linejoin="round"/>
<path d="M487.458 482.209C487.458 482.209 488.29 508.024 480.039 522.316C471.788 536.607 463.995 540.249 457.578 536.544C451.161 532.84 449.327 524.411 457.578 510.119C465.829 495.828 487.458 482.209 487.458 482.209Z" fill="#4B9EE9" stroke="black" stroke-width="4" stroke-linejoin="round"/>
<path d="M406.5 556.138C406.5 556.138 407.332 581.953 399.081 596.245C390.83 610.536 383.037 614.178 376.62 610.473C370.203 606.769 368.369 598.34 376.62 584.048C384.871 569.757 406.5 556.138 406.5 556.138Z" fill="#4B9EE9" stroke="black" stroke-width="4" stroke-linejoin="round"/>
<path d="M518.572 242.962C522.3 234.973 548.931 221.124 575.562 237.102C602.192 253.081 598.997 278.647 592.146 288.882C621.088 296.612 644.27 317.518 644.27 353.746C644.27 413.399 579.29 446.196 505.691 409.606C505.691 409.606 485.791 454.107 420.571 460.27C355.351 466.432 317.799 433.481 312.449 420.856C283.991 430.913 216.235 417.546 204.861 360.669C195.874 315.734 227.763 255.211 295.406 261.603C290.08 220.592 330.558 171.258 407.788 174.786C472.655 177.749 502.593 210.932 518.572 242.962Z" fill="#4B9EE9" stroke="black" stroke-width="4" stroke-linejoin="round"/>
<ellipse cx="424.683" cy="286.22" rx="30.7992" ry="34.4115" transform="rotate(7.00713 424.683 286.22)" fill="white" stroke="black" stroke-width="4"/>
<path d="M420.459 254.31C430.66 266.689 443.059 296.501 411.042 316.716C389.467 309.405 388.408 260.378 420.459 254.31Z" fill="black"/>
<ellipse cx="369.591" cy="279.449" rx="30.7992" ry="34.4115" transform="rotate(7.00713 369.591 279.449)" fill="white" stroke="black" stroke-width="4"/>
<path d="M364.828 246.625C375.029 259.004 387.428 288.816 355.411 309.032C333.837 301.72 332.777 252.693 364.828 246.625Z" fill="black"/>
<path d="M465.416 253.966C463.554 246.453 453.06 229.646 431.876 234.114" stroke="black" stroke-width="4" stroke-linecap="round"/>
<path d="M348.149 229.927C353.325 224.173 368.36 215.77 387.084 228.186" stroke="black" stroke-width="4" stroke-linecap="round"/>
<path d="M427.556 347.261C426.012 357.872 408.785 360.983 387.586 358.812C366.386 356.642 349.571 351.262 350.786 339.4C351.927 328.256 369.557 325.678 390.756 327.849C411.956 330.019 429.348 334.941 427.556 347.261Z" fill="#F8C701" stroke="black" stroke-width="4"/>
<path d="M366.04 340.469C378.784 341.607 406.074 343.999 413.279 344.464" stroke="black" stroke-width="4" stroke-linecap="round"/>
</g>
<defs>
<clipPath id="clip0_308_3055">
<rect width="650" height="650" fill="white"/>
</clipPath>
</defs>
</svg>
