<svg width="650" height="650" viewBox="0 0 650 650" fill="none" xmlns="http://www.w3.org/2000/svg">
<path d="M174.962 248.029C168.765 268.905 188.202 301.212 206.57 321.132C214.197 329.403 215.544 350.21 206.729 357.201C196.105 365.627 180.612 364.414 172.528 353.528C134.836 302.77 130.328 255.189 137.827 234.789C153.09 193.276 200.812 157.183 217.123 144.89C247.364 122.099 246.526 152.662 239.544 163.426C231.794 175.374 195.434 179.066 174.962 248.029Z" fill="#4B9EE9" stroke="black" stroke-width="4" stroke-linecap="round" stroke-linejoin="round"/>
<path d="M147.642 310C147.642 317.818 160.161 336.236 172.22 352.639C181.163 364.802 199.41 365.14 208.998 353.479C215.641 345.4 216.028 333.866 209.943 325.36L184.359 289.602C168.449 291.641 147.642 308.776 147.642 310Z" fill="black"/>
<path d="M230.969 114.988C240.689 106.159 260.575 91.4543 266.312 96.9494C270.096 100.573 265.97 106.439 262.108 110.236C266.821 106.4 274.523 102.079 280.054 105.535C284.851 108.532 282.428 112.947 279.077 116.243C283.671 113.038 289.944 110.333 293.795 114.12C300.185 120.405 273.395 138.82 272.743 141.088C272.09 143.355 289.367 134.662 293.799 138.577C298.23 142.492 294.625 151.32 277.932 155.411C265.387 158.484 246.393 163.246 231.77 170.291C227.322 162.321 220.052 150.657 206.274 153.14C206.996 151.553 211.676 144.971 212.768 142.792C217.338 133.669 224.693 120.69 230.969 114.988Z" fill="white"/>
<path d="M206.274 153.14C220.052 150.657 227.322 162.321 231.77 170.291C246.393 163.246 265.387 158.484 277.932 155.411C294.625 151.32 298.23 142.492 293.799 138.577C289.367 134.662 272.09 143.355 272.743 141.088C273.395 138.82 300.185 120.405 293.795 114.12C288.683 109.092 279.299 115.508 275.247 119.344C279.597 116.458 286.649 109.656 280.054 105.535C273.458 101.414 263.772 108.354 259.754 112.339C263.853 109.041 270.902 101.345 266.312 96.9494C260.575 91.4543 240.689 106.159 230.969 114.988C224.693 120.69 217.338 133.669 212.768 142.792C211.676 144.971 206.996 151.553 206.274 153.14Z" stroke="black" stroke-width="4" stroke-linecap="round" stroke-linejoin="round"/>
<path d="M238.682 115.675C248.879 115.858 261.673 123.623 268.02 137.671" stroke="black" stroke-width="4" stroke-linecap="round" stroke-linejoin="round"/>
<path d="M266.615 106.545L252.361 118.722" stroke="black" stroke-width="4" stroke-linecap="round" stroke-linejoin="round"/>
<path d="M279.608 115.825L264.57 127.865" stroke="black" stroke-width="4" stroke-linecap="round" stroke-linejoin="round"/>
<path d="M237.446 139.312C238.625 138.722 246.371 131.381 259.836 138.093" stroke="black" stroke-width="4" stroke-linecap="round" stroke-linejoin="round"/>
<path d="M213.012 143.119C219.264 143.566 233.592 147.799 240.887 161.161" stroke="black" stroke-width="4" stroke-linecap="round"/>
<path d="M511.37 211.012C504.488 186.325 474.743 164.019 427.245 144.041C394.432 132.16 430.762 120.402 444.602 117.78C460.037 124.073 535.899 157.969 549.355 201.363C566.642 257.114 542.608 299.374 510.927 332.288C479.246 365.202 443.886 334.016 469.878 311.417C515.861 271.434 519.624 240.621 511.37 211.012Z" fill="#4B9EE9" stroke="black" stroke-width="4" stroke-linecap="round" stroke-linejoin="round"/>
<path d="M516.854 325.913C510.734 309.186 500.535 296.539 492.376 290.011C484.312 300.556 475.69 308.342 468.155 313.846C460.433 319.486 458.134 331.444 464.805 338.295C474.484 348.236 489.428 350.849 500.126 342.013C507.927 335.57 514.582 328.866 516.854 325.913Z" fill="black"/>
<path d="M388.597 127.719C374.209 123.927 368.6 130.434 373.003 135.751C375.346 138.58 395.454 140.472 411.643 141.332C417.666 142.001 422.563 142.229 427.329 144.547C425.156 128.718 446.002 118.127 446.002 118.127C446.002 118.127 440.018 112.65 436.763 108.745C431.293 102.183 422.458 92.2074 414.401 85.8857C401.55 75.8028 378.872 69.4745 374.499 75.371C371 80.0883 376.226 82.6018 379.816 84.1353C376.358 82.9892 366.781 81.1355 365.531 85.8812C363.273 94.4499 377.458 97.589 384.108 104.912C384.108 104.912 361.287 95.0593 360.516 104.913C359.747 114.731 386.263 118.019 388.597 127.719Z" fill="white" stroke="black" stroke-width="4" stroke-linecap="round" stroke-linejoin="round"/>
<path d="M391.304 119.458C391.35 113.059 393.083 99.1276 408.145 90.3486" stroke="black" stroke-width="4" stroke-linecap="round" stroke-linejoin="round"/>
<path d="M376.832 82.9958C382.331 85.0413 394.71 90.3459 400.23 95.1998" stroke="black" stroke-width="4" stroke-linecap="round" stroke-linejoin="round"/>
<path d="M391.273 110.273C389.409 108.603 382.98 103.524 378.823 102.037" stroke="black" stroke-width="4" stroke-linecap="round" stroke-linejoin="round"/>
<path d="M398.281 122.742C400.409 119.446 407.114 113.593 416.913 116.553" stroke="black" stroke-width="4" stroke-linecap="round" stroke-linejoin="round"/>
<path d="M419.739 142.222C419.022 135.984 421.03 121.934 434.798 115.646" stroke="black" stroke-width="4" stroke-linecap="round"/>
<path d="M354.9 188.072C263.538 178.455 216.654 259.654 235.233 294.626C189.333 270.583 140.154 315.39 152.722 351.454C91.5225 330.69 51.6333 371.125 56.0049 417.571C60.3765 464.018 112.833 500.628 165.29 452.543C207.365 507.185 308.454 477.678 321.022 430.686C555.439 486.968 584.946 343.257 498.611 319.761C506.261 276.593 457.082 274.408 445.607 294.625C453.44 263.115 446.263 197.689 354.9 188.072Z" fill="white" stroke="black" stroke-width="4" stroke-linecap="round" stroke-linejoin="round"/>
<path d="M61.8118 264.109C86.0457 225.91 149.301 225.91 190.786 243.161C204.347 248.8 209.27 259.591 204.341 268.217C198.173 279.01 190.786 274.378 153.408 271.092C116.03 267.806 132.871 298.201 100.833 312.166C75.91 323.03 39.3725 299.48 61.8118 264.109Z" fill="white" stroke="black" stroke-width="4" stroke-linecap="round" stroke-linejoin="round"/>
<path d="M83.9924 216.874C75.6954 211.473 54.0001 215.773 54 224.712C53.9998 242.086 98.6455 226.411 83.9924 216.874Z" fill="white" stroke="black" stroke-width="4" stroke-linecap="round" stroke-linejoin="round"/>
<path d="M538.133 178.815C525.154 164.745 505.85 178.775 497.821 187.549C488.505 192.298 467.34 199.267 457.203 189.149C444.533 176.502 453.864 158.84 472.226 155.358C490.588 151.876 489.754 150.319 506.844 138.672C523.934 127.025 560.788 125.247 572.423 144.573C589.133 174.717 538.133 178.815 538.133 178.815Z" fill="white" stroke="black" stroke-width="4" stroke-linecap="round" stroke-linejoin="round"/>
<path d="M468.936 209.662C475.356 214.641 480.021 214.13 488.179 211.875C496.337 209.621 499.185 220.644 492.69 226.257C478.615 238.421 456.367 229.632 452.803 216.923C450.537 208.845 460.91 203.437 468.936 209.662Z" fill="white" stroke="black" stroke-width="4" stroke-linecap="round" stroke-linejoin="round"/>
<path d="M525.235 265.424C520.285 249.236 533.849 239.741 548.932 246.543C571.017 256.503 596 243.58 596 265.424C596 283.446 533.021 290.892 525.235 265.424Z" fill="white" stroke="black" stroke-width="4" stroke-linecap="round" stroke-linejoin="round"/>
<path d="M580.465 422.087C578.97 406.428 542.841 411.806 540.591 427.264C536.94 452.342 581.96 437.747 580.465 422.087Z" fill="white" stroke="black" stroke-width="4" stroke-linecap="round" stroke-linejoin="round"/>
<ellipse cx="369.593" cy="255.24" rx="26.9053" ry="18.2651" fill="white" stroke="black" stroke-width="4"/>
<ellipse cx="360.136" cy="255.24" rx="18.4929" ry="16.685" fill="black"/>
<ellipse cx="322.641" cy="255.24" rx="26.9053" ry="18.2651" fill="white" stroke="black" stroke-width="4"/>
<ellipse cx="314.228" cy="255.24" rx="18.4929" ry="16.685" fill="black"/>
<path d="M306.828 288.686C315.593 278.557 326.98 296.191 350.138 295.015C373.296 293.838 381.335 276.279 389.695 286.18C397.262 295.144 378.52 315.776 349.892 317.23C318.739 318.813 298.391 298.435 306.828 288.686Z" fill="#FC9596" stroke="black" stroke-width="4" stroke-linecap="round" stroke-linejoin="round"/>
<path d="M317.337 296.531C329.587 307.217 362.446 313.241 380.669 294.08" stroke="black" stroke-width="4" stroke-linecap="round" stroke-linejoin="round"/>
<path d="M293.287 233.337C295.327 228.85 304.302 216.984 322.661 220.69" stroke="black" stroke-width="4" stroke-linecap="round"/>
<path d="M400.768 230.879C398.135 225.143 384.673 215.352 370.28 221.223" stroke="black" stroke-width="4" stroke-linecap="round"/>
<path d="M458.166 368.92C426.277 339.688 354.589 402.016 318.885 431.511C326.476 435.825 344.205 447.43 344.205 447.43C308.5 479.183 292.457 495.587 324.293 499.204C414.454 480.437 488.649 396.862 458.166 368.92Z" fill="#4B9EE9" stroke="black" stroke-width="4" stroke-linecap="round" stroke-linejoin="round"/>
<path d="M399.539 467.465C374.057 458.684 367.4 435.398 367.256 424.852L299.893 489.202L292.791 505.989L316.541 503.691C354.635 492.715 359.723 489.202 399.539 467.465Z" fill="white" stroke="black" stroke-width="4" stroke-linecap="round" stroke-linejoin="round"/>
<path d="M364.873 427.189C379.277 414.08 397.98 398.942 417.28 390.815" stroke="black" stroke-width="4" stroke-linecap="round" stroke-linejoin="round"/>
<path d="M281.21 487.626C287.687 475.863 299.202 473.92 311.238 478.085C309.893 479.851 307.626 485.549 308.383 492.269C309.489 502.094 332.454 487.626 320.268 518.9C310.68 543.505 310.107 573.497 294.808 576.472C292.456 576.93 290 576.374 287.904 575.212C263.194 561.513 274.183 500.387 281.21 487.626Z" fill="#FC9596" stroke="black" stroke-width="4" stroke-linecap="round"/>
<path d="M293.685 481.152C282.064 499.842 267.663 560.867 298.861 573.13" stroke="black" stroke-width="4" stroke-linecap="round" stroke-linejoin="round"/>
<path d="M345.507 445.35L330.82 459.221C364.714 485.432 360.991 512.57 349.158 509.251C263.745 485.3 168.842 435.589 196.861 398.079C219.276 368.072 288.979 407.074 320.915 430.725L345.507 445.35Z" fill="#4B9EE9" stroke="black" stroke-width="4" stroke-linecap="round" stroke-linejoin="round"/>
<path d="M369.408 517.609L279.447 484.681C279.447 484.681 290.854 478.224 299.678 467.248C308.502 456.272 306.78 439.485 306.78 439.485L375.649 495.011L369.408 517.609Z" fill="white" stroke="black" stroke-width="4" stroke-linecap="round" stroke-linejoin="round"/>
<path d="M373.219 476.363C363.889 466.705 357.395 469.231 349.817 473.743C350.987 474.435 354.385 477.751 357.263 481.713C359.759 485.15 356.7 489.205 352.639 490.453C343.655 493.213 335.816 501.607 347.518 517.411C356.554 529.615 389.712 561.949 400.411 555.04C424.924 539.21 385.924 489.513 373.219 476.363Z" fill="#FC9596" stroke="black" stroke-width="4" stroke-linecap="round"/>
<path d="M378.145 494.716C387.951 507.569 405.795 535.257 401.307 553.616" stroke="black" stroke-width="4" stroke-linecap="round" stroke-linejoin="round"/>
<path d="M234.675 407.823C254.222 408.362 290.057 426.32 311.926 443.994" stroke="black" stroke-width="4" stroke-linecap="round" stroke-linejoin="round"/>
</svg>
