<svg width="650" height="650" viewBox="0 0 650 650" fill="none" xmlns="http://www.w3.org/2000/svg">
<g clip-path="url(#clip0_208_3333)">
<path d="M100.764 171.296C115.971 198.372 149.864 203.736 174.081 200.403C214.932 198.382 202.213 171.889 196.06 169.387C187.836 166.044 145.091 169.975 132.504 159.107C119.714 148.063 123.665 128.79 124.956 118.37C127.608 96.9715 119.907 94.0646 108.99 92.7119C96.1036 91.1151 83.4282 140.43 100.764 171.296Z" fill="#F8C701" stroke="black" stroke-width="4" stroke-linecap="round" stroke-linejoin="round"/>
<path d="M166.855 166.669L157.543 201.004L187.477 199.137C195.814 198.617 202.363 191.795 202.542 183.443C202.733 174.55 195.663 167.193 186.769 167.031L166.855 166.669Z" fill="black"/>
<path d="M151.524 86.8106C142.304 96.0263 128.403 113.061 126.326 117.169C119.321 123.429 107.435 124.595 98.3282 121.54C92.7477 119.667 89.5912 114.151 88.6857 108.334C87.4074 100.124 87.01 91.4235 86.5005 82.5466C85.6281 67.3473 91.0005 33.0002 103.939 38.5534C108.398 40.4672 104.674 48.3286 104.674 48.3286C109.551 37.8882 114.243 35.3119 118.536 37.9658C120.835 39.3873 122.748 42.9071 118.724 53.1741C123.172 42.8096 127.558 40.7973 132.19 43.5662C139.918 48.1868 127.548 65.4181 129.075 82.5466C131.181 84.4261 132.345 84.1892 140.16 76.6711C149.929 67.2734 163.05 75.2909 151.524 86.8106Z" fill="white"/>
<path d="M126.326 117.169C128.403 113.061 142.304 96.0263 151.524 86.8106C163.05 75.2909 149.929 67.2734 140.16 76.6711C132.345 84.1892 131.181 84.4261 129.075 82.5466C127.548 65.4181 139.918 48.1868 132.19 43.5662C127.292 40.6382 122.669 43.0565 117.957 55.043C122.97 43.3255 120.969 39.4703 118.536 37.9658C114.243 35.3119 109.551 37.8882 104.674 48.3286C104.674 48.3286 108.398 40.4672 103.939 38.5534C91.0005 33.0002 85.6281 67.3473 86.5005 82.5466C87.01 91.4235 87.4074 100.124 88.6857 108.334C89.5912 114.151 92.7477 119.667 98.3282 121.54C107.435 124.595 119.321 123.429 126.326 117.169Z" stroke="black" stroke-width="4" stroke-linecap="round" stroke-linejoin="round"/>
<path d="M119.091 52.2645C115.046 63.2164 114.628 64.8818 113.514 75.0515" stroke="black" stroke-width="4" stroke-linecap="round"/>
<path d="M105.994 45.5123C101.591 54.7959 101.094 56.2231 99.3212 65.0506" stroke="black" stroke-width="4" stroke-linecap="round"/>
<path d="M118.755 109.368C112.895 113.256 98.6274 117.527 88.4363 103.512" stroke="black" stroke-width="4" stroke-linecap="round"/>
<path d="M565.587 160.815C563.528 229.746 475.041 245.965 430.901 219.955C423.409 215.54 424.191 195.966 432.401 187.01C437.521 181.424 445.98 184.614 453.05 187.343C481.512 198.327 509.584 192.06 523.518 172.418C527.333 167.04 529.688 149.639 527.682 143.707C542.296 143.176 551.934 145.136 560.448 125.903C564.037 136.091 565.98 147.688 565.587 160.815Z" fill="#F8C701" stroke="black" stroke-width="4" stroke-linecap="round" stroke-linejoin="round"/>
<path d="M428.899 218.192C436.921 222.676 451.197 229.666 464.191 230.939C483.605 232.841 515.203 225.86 515.203 225.86L499.559 189.474L467.499 192.051L442.952 183.157C437.561 181.203 431.634 184.175 429.974 189.664L424.661 207.229C423.38 211.467 425.035 216.032 428.899 218.192Z" fill="black"/>
<path d="M516.178 78.234C514.054 75.4933 511.667 71.0834 515.638 68.5157C523.588 61.8787 559.913 94.0121 562.959 139.006C556.195 153.456 543.33 157.413 529.402 154.438C511.427 129.147 483.656 132.681 484.589 121.575C485.713 108.178 502.957 116.509 502.957 116.509C506.846 102.566 478.043 83.8204 484.656 76.4456C489.875 70.6244 498.61 77.582 498.61 77.582C502.895 65.3986 511.501 73.1604 516.178 78.234Z" fill="white"/>
<path d="M515.638 68.5157C509.57 72.4387 518.346 80.6622 518.346 80.6622C514.893 76.7889 503.702 63.1055 498.61 77.582C498.61 77.582 489.875 70.6244 484.656 76.4456C478.043 83.8204 506.846 102.566 502.957 116.509C502.957 116.509 485.713 108.178 484.589 121.575C483.656 132.681 511.427 129.147 529.402 154.438C543.33 157.413 556.195 153.456 562.959 139.006C559.913 94.0121 523.588 61.8787 515.638 68.5157Z" stroke="black" stroke-width="4" stroke-linecap="round" stroke-linejoin="round"/>
<path d="M555.868 136.322C552.592 141.793 541.656 151.628 524.121 147.199" stroke="black" stroke-width="4" stroke-linecap="round"/>
<path d="M526.973 93.1968C525.267 89.1277 521.939 83.3167 517.01 79.1442" stroke="black" stroke-width="4" stroke-linecap="round" stroke-linejoin="round"/>
<path d="M515.16 98.1716C513.218 91.8019 503.761 81.9981 498.792 77.8733" stroke="black" stroke-width="4" stroke-linecap="round" stroke-linejoin="round"/>
<path d="M407.928 528.283L365.557 295.521H327.039L378.764 528.283H407.928Z" fill="#F8C701" stroke="black" stroke-width="4" stroke-linecap="round" stroke-linejoin="round"/>
<path d="M374 336.669L369.515 296L328 296L342.5 366.5L374 336.669Z" fill="black"/>
<path d="M378.764 528.283H407.928L393.822 450.792L362.719 456.083L378.764 528.283Z" fill="white" stroke="black" stroke-width="4" stroke-linecap="round" stroke-linejoin="round"/>
<path d="M409.521 488.383L416.721 526.697L433.534 524.423C443.412 523.087 452.463 530.119 453.61 540.021C454.713 549.543 448.08 558.229 438.603 559.673L396.659 566.065C385.8 567.719 375.638 560.307 373.898 549.461L365.122 494.755C364.676 491.98 366.605 489.384 369.391 489.008L403.939 484.352C406.576 483.996 409.029 485.768 409.521 488.383Z" fill="#FC9596" stroke="black" stroke-width="4" stroke-linecap="round" stroke-linejoin="round"/>
<path d="M421.147 526.264L408.071 528.142" stroke="black" stroke-width="4" stroke-linecap="round" stroke-linejoin="round"/>
<path d="M282.856 411.515C288.259 381.543 301.168 340 306.626 318.688L274.742 301.233C267.089 317.071 258.807 355.992 252.971 386.254C247.715 413.516 238.823 488.093 236.848 522.426L264.034 529.387C268.057 502.584 277.454 441.486 282.856 411.515Z" fill="#F8C701" stroke="black" stroke-width="4" stroke-linecap="round" stroke-linejoin="round"/>
<path d="M295 357.999L305.7 319.998L272.573 302.226L262 343.499L295 357.999Z" fill="black"/>
<path d="M236.847 522.426L264.034 529.388C265.961 516.545 271.087 483.585 274.452 462.192L243.192 457.284C240.933 480.557 237.714 507.353 236.847 522.426Z" fill="white" stroke="black" stroke-width="4" stroke-linecap="round" stroke-linejoin="round"/>
<path d="M231.649 489.309L224.928 527.709L208.088 525.645C198.194 524.433 189.232 531.577 188.209 541.493C187.225 551.028 193.966 559.631 203.46 560.957L245.481 566.823C256.36 568.342 266.428 560.803 268.032 549.936L276.124 495.125C276.535 492.345 274.574 489.772 271.784 489.432L237.18 485.207C234.539 484.885 232.108 486.687 231.649 489.309Z" fill="#FC9596" stroke="black" stroke-width="4" stroke-linecap="round" stroke-linejoin="round"/>
<path d="M220.497 527.332L233.595 529.046" stroke="black" stroke-width="4" stroke-linecap="round" stroke-linejoin="round"/>
<path d="M476.391 156.878C505.786 191.199 497.272 212.206 489.612 225.021C536.501 225.021 551.365 284.183 523.5 317.266C489.612 357.5 421.041 344.904 380.948 317.266C380.948 317.266 364.294 347.757 302.821 345.969C241.348 344.181 218.071 314.307 214.39 294.198C189.541 312.787 123.379 314.089 115.744 257.794C108.109 201.499 152.04 187.515 179.677 193.166C169.648 152.121 193.634 80.5272 265.799 70.4294C358.237 57.4948 397.229 102.569 402.826 140.709C425.072 127.847 461.426 139.405 476.391 156.878Z" fill="white" stroke="black" stroke-width="4" stroke-linecap="round" stroke-linejoin="round"/>
<path d="M331.271 203.349C332.594 214.471 314.847 220.102 294.871 219.027C274.895 217.952 256.436 212.248 258.93 199.455C261.424 186.662 277.17 195.168 295.591 196.947C314.013 198.726 329.694 190.088 331.271 203.349Z" fill="#F8C701" stroke="black" stroke-width="4"/>
<path d="M273.304 203.077C283.199 207.504 303.543 210.025 316.19 205.546" stroke="black" stroke-width="4" stroke-linecap="round"/>
<ellipse cx="321.978" cy="157.546" rx="27.7942" ry="19.1562" transform="rotate(-178.074 321.978 157.546)" fill="white" stroke="black" stroke-width="4" stroke-linecap="round"/>
<path d="M309.159 175.194C298.175 169.15 282.536 153.656 307.856 140.03C328.163 142.4 336.703 169.372 309.159 175.194Z" fill="black"/>
<ellipse cx="273.502" cy="154.827" rx="27.7942" ry="19.1562" transform="rotate(-178.074 273.502 154.827)" fill="white" stroke="black" stroke-width="4" stroke-linecap="round"/>
<path d="M260.687 172.389C249.702 166.345 234.063 150.851 259.383 137.225C279.69 139.595 288.23 166.568 260.687 172.389Z" fill="black"/>
<path d="M247.381 121.109C249.986 116.569 261.046 107.562 275.309 115.084" stroke="black" stroke-width="4" stroke-linecap="round" stroke-linejoin="round"/>
<path d="M349.498 127.736C347.582 122.866 337.949 112.346 322.744 117.712" stroke="black" stroke-width="4" stroke-linecap="round" stroke-linejoin="round"/>
<circle cx="107.5" cy="383.5" r="17.5" fill="white" stroke="black" stroke-width="4"/>
<circle cx="185.5" cy="357.5" r="17.5" fill="white" stroke="black" stroke-width="4"/>
<circle cx="175.5" cy="436.5" r="17.5" fill="white" stroke="black" stroke-width="4"/>
<circle cx="480.5" cy="445.5" r="17.5" fill="white" stroke="black" stroke-width="4"/>
<circle cx="438.5" cy="383.5" r="17.5" fill="white" stroke="black" stroke-width="4"/>
</g>
<defs>
<clipPath id="clip0_208_3333">
<rect width="650" height="650" fill="white"/>
</clipPath>
</defs>
</svg>
