<svg width="642" height="492" viewBox="0 0 642 492" fill="none" xmlns="http://www.w3.org/2000/svg">
<path d="M216.506 30.4998C217.432 29.0291 219.598 29.0999 220.426 30.6278L228.168 44.9145C242.995 72.2786 277.082 82.6157 304.611 68.0967L318.983 60.5165C320.52 59.7058 322.362 60.8505 322.315 62.5877L321.875 78.8309C321.034 109.943 345.386 135.938 376.486 137.129L392.723 137.751C394.46 137.817 395.482 139.729 394.573 141.21L386.071 155.057C369.786 181.58 377.877 216.269 404.216 232.85L417.967 241.507C419.437 242.433 419.366 244.6 417.839 245.428L403.552 253.169C376.188 267.997 365.851 302.083 380.37 329.612L387.95 343.985C388.761 345.522 387.616 347.363 385.879 347.316L369.636 346.877C338.524 346.036 312.528 370.387 311.338 401.487L310.716 417.725C310.649 419.461 308.738 420.483 307.257 419.574L293.409 411.072C266.886 394.788 232.198 402.879 215.616 429.217L206.959 442.968C206.034 444.439 203.867 444.368 203.039 442.84L195.297 428.553C180.47 401.189 146.384 390.852 118.855 405.371L104.482 412.951C102.945 413.762 101.103 412.617 101.15 410.88L101.59 394.637C102.431 363.525 78.0795 337.53 46.9792 336.339L30.7419 335.717C29.0054 335.651 27.9833 333.739 28.8925 332.258L37.3944 318.41C53.6787 291.887 45.5878 257.199 19.2494 240.618L5.49838 231.961C4.02775 231.035 4.09852 228.868 5.62642 228.04L19.913 220.299C47.2772 205.471 57.6143 171.385 43.0953 143.856L35.5151 129.483C34.7044 127.946 35.8491 126.105 37.5863 126.152L53.8295 126.591C84.9413 127.432 110.937 103.081 112.127 71.9806L112.749 55.7433C112.816 54.0068 114.728 52.9847 116.209 53.8939L130.056 62.3958C156.579 78.6801 191.267 70.5891 207.849 44.2508L216.506 30.4998Z" fill="#FC9596" stroke="black" stroke-width="4.49998"/>
<ellipse cx="212.871" cy="236.523" rx="125.728" ry="124.97" transform="rotate(-10.4512 212.871 236.523)" fill="#F8C701" stroke="black" stroke-width="4.49998"/>
<ellipse cx="150.95" cy="250.546" rx="17.3027" ry="21.34" transform="rotate(9.97826 150.95 250.546)" fill="#FC9596" stroke="black" stroke-width="4"/>
<ellipse rx="16.2071" ry="19.9888" transform="matrix(-0.941874 0.335968 0.335968 0.941874 311.804 232.853)" fill="#FC9596" stroke="black" stroke-width="4"/>
<ellipse rx="23.612" ry="30.0155" transform="matrix(-0.994648 0.103319 0.0650393 0.997883 207.752 216.485)" fill="white" stroke="black" stroke-width="4" stroke-linecap="round"/>
<path d="M212.558 187.592C204.312 198.125 193.34 224.96 217.05 243.502C233.797 237.71 236.815 193.776 212.558 187.592Z" fill="black"/>
<ellipse rx="23.612" ry="30.0155" transform="matrix(-0.994648 0.103319 0.0650393 0.997883 250.078 212.088)" fill="white" stroke="black" stroke-width="4" stroke-linecap="round"/>
<path d="M254.921 183.547C246.675 194.08 236.111 219.781 259.821 238.323C276.568 232.531 279.178 189.731 254.921 183.547Z" fill="black"/>
<path d="M252.379 164.301C259.979 159.983 272.723 160.374 278.739 171.546" stroke="black" stroke-width="4.49998" stroke-linecap="round"/>
<path d="M207.608 168.417C197.729 163.395 184.017 166.01 179.602 177.252" stroke="black" stroke-width="4.49998" stroke-linecap="round"/>
<path d="M190.552 266.196C199.307 255.232 211.955 273.219 236.145 271.031C260.336 268.842 268.025 250.132 277.184 260.15C285.475 269.219 266.711 291.588 236.806 294.293C204.264 297.237 182.124 276.749 190.552 266.196Z" fill="#FC9596" stroke="black" stroke-width="4" stroke-linecap="round" stroke-linejoin="round"/>
<path d="M201.876 273.973C215.14 284.652 249.781 289.599 268.064 268.79" stroke="black" stroke-width="4" stroke-linecap="round" stroke-linejoin="round"/>
<path d="M498.332 235.299C536.394 258.654 536.994 302.863 530.71 321.445C566.527 289.594 650.31 331.61 626.37 416.703C604.083 495.919 493.676 450.712 493.676 450.712C459.144 475.763 403.129 463.293 386.403 442.864C198.217 550.777 194.54 273.495 322.98 302.298C314.48 279.161 327.118 257.74 339.035 248.468C353.216 237.435 374.932 236.18 389.89 247.124C398.874 232.022 448.877 204.952 498.332 235.299Z" fill="#4B9EE9" stroke="black" stroke-width="4" stroke-linejoin="round"/>
<ellipse cx="440.428" cy="313.736" rx="27.306" ry="30.5086" transform="rotate(7.00713 440.428 313.736)" fill="white" stroke="black" stroke-width="4"/>
<path d="M436.683 285.446C445.728 296.421 456.72 322.851 428.335 340.774C409.207 334.292 408.267 290.825 436.683 285.446Z" fill="black"/>
<ellipse cx="391.584" cy="307.733" rx="27.306" ry="30.5086" transform="rotate(7.00713 391.584 307.733)" fill="white" stroke="black" stroke-width="4"/>
<path d="M387.362 278.633C396.406 289.608 407.399 316.038 379.014 333.961C359.886 327.479 358.946 284.012 387.362 278.633Z" fill="black"/>
<path d="M478.062 289.509C476.681 282.788 468.947 269.621 449.059 270.726" stroke="black" stroke-width="4" stroke-linecap="round"/>
<path d="M375.395 268.257C380.337 263.497 394.164 257.018 409.936 269.183" stroke="black" stroke-width="4" stroke-linecap="round"/>
<path d="M366.899 356.129C373.632 348.692 387.176 362.131 410.437 364.741C433.699 367.352 448.466 353.274 455.297 362.852C464.645 375.962 442.934 391.425 407.132 387.408C371.33 383.39 356.861 367.216 366.899 356.129Z" fill="#F8C701" stroke="black" stroke-width="4" stroke-linecap="round" stroke-linejoin="round"/>
<path d="M374.454 363.686C374.454 363.686 384.37 373.603 408.453 375.963C432.536 378.323 446.23 369.351 446.23 369.351" stroke="black" stroke-width="4" stroke-linecap="round"/>
<path d="M179.035 382.301C155.698 367.193 127.119 353.411 107.178 333.079C83.0957 308.524 81.682 270.277 96.3172 266.496C120.875 261.306 124.205 295.634 145.427 315.608C156.288 325.83 199.602 347.333 210.679 345.429C210.679 345.429 221.453 349.606 213.897 370.856C209.175 376.994 199.259 395.394 179.035 382.301Z" fill="#4B9EE9"/>
<path d="M234.444 403.544C246.061 403.827 251.973 396.432 253.477 392.699C257.594 391.205 265.625 387.573 266.038 383.516C266.502 378.95 263.953 375.243 263.953 375.243C267.44 374.739 274.252 364.473 259.296 361.692C238.33 360.104 234.371 358.005 233.024 354.698C239.409 354.756 252.486 353.601 253.713 348.519C255.247 342.166 244.81 341.222 233.756 341.103C222.703 340.984 219.826 344.833 207.811 344.853C186.783 340.836 185.565 335.913 175.176 348.19C172.686 351.133 162.388 370.094 176.151 380.331C183.233 386.911 219.922 403.19 234.444 403.544Z" fill="white"/>
<path d="M253.291 394.14C244.367 410.945 211.607 403.388 179.035 382.302C155.347 366.966 130.792 360.469 108.123 333.553C86.803 308.239 81.21 273.449 92.54 267.915C117.098 255.922 123.261 295.163 144.483 315.136C165.705 335.11 199.602 347.334 210.679 345.43C224.526 343.05 250.148 335.751 253.714 346.021C257.066 355.674 228.932 352.584 233.446 356.329C239.465 361.325 269.83 359.4 268.689 369.777C267.708 378.698 245.01 377.867 234.405 376.057M232.603 391.076C238.935 392.999 248.879 394.241 259.11 389.893C268.557 385.879 265.606 378.548 262.928 377.043" stroke="black" stroke-width="4" stroke-linecap="round"/>
<path d="M182.084 384.609C179.947 380.329 177.032 369.175 182.476 358.796C187.175 350.479 194.595 345.572 197.718 344.159" stroke="black" stroke-width="4" stroke-linecap="round"/>
<path d="M170.677 375.621C169.071 371.582 167.244 361.245 172.781 352.218C177.518 345.007 183.629 341.495 186.496 340.438" stroke="black" stroke-width="4" stroke-linecap="round"/>
</svg>
