<svg width="574" height="478" viewBox="0 0 574 478" fill="none" xmlns="http://www.w3.org/2000/svg">
<path d="M266.466 408.649C273.915 397.836 233.472 329.007 215.751 297.97C195.85 260.919 243.384 252.314 253.597 264.629C258.996 271.14 286.336 322.9 306.461 374.262C326.585 425.625 299.94 453.147 270.195 451.349C243.231 449.719 146.998 407.206 163.3 380.742C177.839 357.138 257.155 422.165 266.466 408.649Z" fill="#FC9596" stroke="black" stroke-width="4" stroke-linecap="round" stroke-linejoin="round"/>
<path d="M163.3 380.743C172.491 365.821 204.389 385.128 228.966 397.937C220.96 403.98 214.342 413.6 220.96 435.604C187.38 420.427 153.036 397.404 163.3 380.743Z" fill="white" stroke="black" stroke-width="4" stroke-linecap="round" stroke-linejoin="round"/>
<path d="M292.467 343.68L248.658 357.966L214.358 295.164C207.329 282.295 212.787 266.166 226.187 260.21C238.67 254.662 253.298 260.119 259.096 272.488L292.467 343.68Z" fill="black"/>
<path d="M161.584 369.636C178.469 361.902 189.283 375.414 195.231 380.342C168.211 388.499 177.897 407.362 189.623 420.107C180.46 447.594 203.822 458.203 189.413 469.69C185.519 472.794 180.403 474.227 175.445 473.764C131.922 469.695 140.79 379.161 161.584 369.636Z" fill="#F8C701" stroke="black" stroke-width="4" stroke-linecap="round" stroke-linejoin="round"/>
<path d="M172.276 368.095C164.306 372.395 151.428 389.837 153.354 419.7C155.763 457.027 162.987 476.293 188.274 470.272" stroke="black" stroke-width="4" stroke-linecap="round"/>
<path d="M480.325 358.066C484.543 323.852 422.03 295.991 386.439 294.506C364.469 300.743 354.209 321.987 367.391 326.887C375.745 329.992 432.87 348.474 432.87 363.412C432.87 375.474 345.284 401.871 338.839 420.881C334.005 435.137 361.687 443.156 373.99 429.345C386.294 415.535 475.052 400.834 480.325 358.066Z" fill="#FC9596" stroke="black" stroke-width="4" stroke-linecap="round" stroke-linejoin="round"/>
<path d="M473.493 335.095L431.086 358.226C427.571 353.024 389.379 335.843 369.482 327.248C363.629 324.72 361.401 317.416 364.923 312.102L367.768 307.81C374.429 297.76 386.465 292.654 398.145 295.647C423.45 302.13 465.469 315.602 473.493 335.095Z" fill="black"/>
<path d="M325.079 449.35C325.079 432.202 340.373 417.063 348.53 411.625C348.53 426.409 356.177 434.056 382.177 425.39C400.02 422.841 436.967 451.268 435.196 467.193C432.774 488.987 325.079 463.115 325.079 449.35Z" fill="#F8C701" stroke="black" stroke-width="4" stroke-linecap="round" stroke-linejoin="round"/>
<path d="M327.298 440.318C335.673 449.74 402.88 475.772 434.425 462.651" stroke="black" stroke-width="4" stroke-linecap="round"/>
<path d="M452.098 171.121C449.284 156.866 480.649 126.406 496.683 112.958C489.698 110.652 473.812 103.225 466.148 91.9622C456.568 77.8833 472.648 67.0952 472.648 67.0952C461.035 52.5601 457.314 15.4032 468.686 13.7024C483.714 11.4548 474.997 35.6264 493.814 55.2207C502.779 28.6423 516.344 41.7008 516.479 47.6591C532.862 44.4684 545.511 59.6682 552.758 75.8291C559.899 91.7539 556.091 101.892 549.377 116.451C546.971 121.667 508.034 181.359 490.856 191.511C473.678 201.663 455.616 188.938 452.098 171.121Z" fill="#FC9596" stroke="black" stroke-width="4" stroke-linecap="round" stroke-linejoin="round"/>
<path d="M489.454 120.974L496.683 112.958C489.698 110.652 473.812 103.225 466.148 91.962C456.568 77.883 472.649 67.095 472.649 67.095C461.035 52.5598 457.314 15.403 468.686 13.7021C483.714 11.4546 474.997 35.6262 493.814 55.2205C502.779 28.6421 516.344 41.7006 516.48 47.6589C532.862 44.4681 545.511 59.668 552.758 75.8288C559.899 91.7536 556.091 101.892 549.377 116.451C546.971 121.666 539.428 131.171 539.428 131.171C518.557 139.513 489.454 120.974 489.454 120.974Z" fill="white" stroke="black" stroke-width="4" stroke-linecap="round" stroke-linejoin="round"/>
<path d="M472.103 67.6192C476.293 64.2017 486.128 58.2895 491.951 61.9816C499.229 66.5967 500.294 73.1154 494.481 79.5719C489.83 84.7371 486.806 90.4554 485.874 92.6688" stroke="black" stroke-width="4" stroke-linecap="round" stroke-linejoin="round"/>
<path d="M493.766 81.347C500.064 79.6267 514.935 78.9562 524.045 90.0368" stroke="black" stroke-width="4" stroke-linecap="round" stroke-linejoin="round"/>
<path d="M494.771 112.294C498.659 113.771 503.513 115.431 505.12 115.729" stroke="black" stroke-width="4" stroke-linecap="round" stroke-linejoin="round"/>
<path d="M494.05 54.5166C493.393 57.3602 493.042 63.6008 496.887 65.8151C500.733 68.0294 505.975 65.3434 508.115 63.7236" stroke="black" stroke-width="4" stroke-linecap="round" stroke-linejoin="round"/>
<path d="M516.631 47.5667C512.59 52.7389 505.515 64.7152 509.536 71.2421C514.562 79.4008 520.386 78.3159 527.803 68.7161" stroke="black" stroke-width="4" stroke-linecap="round" stroke-linejoin="round"/>
<path d="M521.558 156.708C502.282 143.038 478.368 140.522 468.82 140.973L457.138 156.874C450.109 166.442 451.297 179.745 459.911 187.916C470.014 197.499 486.468 196.509 495.689 186.074C507.878 172.281 521.558 157.141 521.558 156.708Z" fill="black"/>
<path d="M338.839 420.882C334.005 435.138 361.687 443.157 373.99 429.347C379.102 423.609 397.407 417.719 417.441 409.725C390.271 404.378 391.002 388.283 390.271 388.62C366.969 399.356 342.156 411.098 338.839 420.882Z" fill="white" stroke="black" stroke-width="4" stroke-linecap="round" stroke-linejoin="round"/>
<path d="M193.132 67.1443C147.718 95.012 147.001 147.762 154.499 169.934C111.762 131.929 11.7919 182.064 40.3572 283.597C66.9501 378.119 198.689 324.177 198.689 324.177C239.892 354.068 306.73 339.189 326.687 314.813C551.232 443.575 623.408 75.0081 381.857 153.3C401.786 136.565 402.518 101.652 384.2 84.1894C365.882 66.7264 340.375 68.1958 322.527 81.2535C311.807 63.2347 252.143 30.9341 193.132 67.1443Z" fill="#4B9EE9" stroke="black" stroke-width="4" stroke-linejoin="round"/>
<ellipse cx="326.94" cy="155.042" rx="32.5818" ry="36.4031" transform="rotate(-4.07398 326.94 155.042)" fill="white" stroke="black" stroke-width="4"/>
<path d="M316.068 122.773C329.175 133.551 348.108 161.979 318.98 189.476C295.096 186.272 284.027 135.59 316.068 122.773Z" fill="black"/>
<ellipse cx="268.37" cy="159.214" rx="32.5818" ry="36.4031" transform="rotate(-4.07398 268.37 159.214)" fill="white" stroke="black" stroke-width="4"/>
<path d="M256.752 126.106C269.86 136.884 288.793 165.312 259.665 192.809C235.78 189.605 224.712 138.923 256.752 126.106Z" fill="black"/>
<path d="M338.704 216.178C339.882 226.174 325.017 233.181 305.266 236.364C285.516 239.546 268.961 238.753 267.181 227.703C265.508 217.32 280.867 210.699 300.618 207.516C320.368 204.334 337.335 204.571 338.704 216.178Z" fill="#F8C701" stroke="black" stroke-width="4"/>
<path d="M281.274 224.966C293.106 222.902 318.433 218.441 325.079 217.111" stroke="black" stroke-width="4" stroke-linecap="round"/>
<path d="M229.291 134.143C230.938 126.123 240.167 110.413 263.897 111.731" stroke="black" stroke-width="4" stroke-linecap="round"/>
<path d="M315.279 108.448C329.859 100.135 354.801 106.37 362.283 127.363" stroke="black" stroke-width="4" stroke-linecap="round"/>
<path d="M70.4531 137.699C99.3375 126.825 152.668 157.417 161.693 172.483C179.775 202.67 151.495 213.473 143.08 213.473C131.424 213.473 109.749 192.964 87.4747 184.286C82.1849 192.189 65.9025 227.841 65.0063 236.056C63.8861 246.324 77.5151 258.258 79.1954 274.687C80.8756 291.117 65.0063 286.449 65.0063 286.449C65.193 289.81 65.5664 310.72 56.2315 314.081C48.7636 316.769 42.9138 309.973 40.9223 306.239C40.1133 307.671 37.1884 310.795 31.9608 311.84C26.7333 312.886 22.3121 307.188 20.755 304.209C15.3746 303.926 4.27395 298.517 2.91468 279.147C1.2156 254.935 34.3477 151.291 70.4531 137.699Z" fill="#FC9596" stroke="black" stroke-width="4" stroke-linejoin="round"/>
<path d="M20.755 304.209C15.3746 303.926 4.27395 298.517 2.91468 279.147C2.2674 269.924 6.67513 249.172 14.3765 226.263C43.6517 210.95 65.0063 230.943 65.0063 230.943C65.0063 244.149 77.5151 258.258 79.1954 274.688C80.8756 291.117 65.0063 286.45 65.0063 286.45C65.193 289.81 65.5664 310.72 56.2315 314.081C48.7636 316.769 42.9138 309.974 40.9223 306.24C40.1133 307.671 37.1884 310.795 31.9608 311.841C26.7333 312.886 22.3121 307.188 20.755 304.209Z" fill="white" stroke="black" stroke-width="4" stroke-linejoin="round"/>
<path d="M25.5161 233.985C34.6548 230.887 57.0617 230.986 68.3998 245.856" stroke="black" stroke-width="4" stroke-linecap="round"/>
<path d="M62.7998 268.741C63.5505 271.743 64.8791 279.634 65.0078 286.648" stroke="black" stroke-width="4" stroke-linecap="round" stroke-linejoin="round"/>
<path d="M84.1323 189.634C85.9279 186.682 90.2851 179.723 93.3496 175.509" stroke="black" stroke-width="4" stroke-linecap="round" stroke-linejoin="round"/>
<path d="M19.6387 281.408C18.0829 285.64 16.7195 296.322 20.4534 303.939" stroke="black" stroke-width="4" stroke-linecap="round" stroke-linejoin="round"/>
<path d="M40.0923 283.944C38.5365 288.176 37.1731 298.858 40.907 306.475" stroke="black" stroke-width="4" stroke-linecap="round" stroke-linejoin="round"/>
</svg>
