<svg width="667" height="491" viewBox="0 0 667 491" fill="none" xmlns="http://www.w3.org/2000/svg">
<path d="M240.857 29.8499C241.783 28.3792 243.95 28.45 244.778 29.9779L252.519 44.2645C267.347 71.6287 301.433 81.9658 328.962 67.4468L343.335 59.8666C344.872 59.0559 346.713 60.2006 346.666 61.9378L346.227 78.181C345.386 109.293 369.737 135.288 400.837 136.479L417.075 137.101C418.811 137.167 419.833 139.079 418.924 140.56L410.422 154.408C394.138 180.931 402.229 215.619 428.567 232.2L442.318 240.857C443.789 241.783 443.718 243.95 442.19 244.778L427.904 252.519C400.539 267.347 390.202 301.433 404.721 328.962L412.302 343.335C413.112 344.872 411.967 346.713 410.23 346.666L393.987 346.227C362.875 345.386 336.88 369.737 335.689 400.837L335.067 417.075C335.001 418.811 333.089 419.833 331.608 418.924L317.761 410.422C291.238 394.138 256.549 402.229 239.968 428.567L231.311 442.318C230.385 443.789 228.218 443.718 227.39 442.19L219.649 427.903C204.821 400.539 170.735 390.202 143.206 404.721L128.833 412.301C127.296 413.112 125.455 411.967 125.502 410.23L125.941 393.987C126.782 362.875 102.431 336.88 71.3308 335.689L55.0935 335.067C53.357 335.001 52.3348 333.089 53.2441 331.608L61.746 317.761C78.0303 291.238 69.9393 256.549 43.601 239.968L29.8499 231.311C28.3793 230.385 28.4501 228.218 29.978 227.39L44.2646 219.649C71.6287 204.821 81.9659 170.735 67.4469 143.206L59.8667 128.833C59.056 127.296 60.2007 125.455 61.9379 125.502L78.1811 125.941C109.293 126.782 135.288 102.431 136.479 71.3307L137.101 55.0934C137.167 53.3569 139.079 52.3348 140.56 53.244L154.408 61.7459C180.931 78.0302 215.619 69.9392 232.2 43.6009L240.857 29.8499Z" fill="#FC9596" stroke="black" stroke-width="4.49998"/>
<ellipse cx="237.222" cy="235.873" rx="125.728" ry="124.97" transform="rotate(-10.4512 237.222 235.873)" fill="#F8C701" stroke="black" stroke-width="4.49998"/>
<ellipse cx="175.301" cy="249.896" rx="17.3027" ry="21.34" transform="rotate(9.97826 175.301 249.896)" fill="#FC9596" stroke="black" stroke-width="4"/>
<ellipse rx="16.2071" ry="19.9888" transform="matrix(-0.941874 0.335968 0.335968 0.941874 336.156 232.203)" fill="#FC9596" stroke="black" stroke-width="4"/>
<ellipse rx="23.612" ry="30.0155" transform="matrix(-0.994648 0.103319 0.0650393 0.997883 232.103 215.835)" fill="white" stroke="black" stroke-width="4" stroke-linecap="round"/>
<path d="M236.909 186.942C228.663 197.475 217.691 224.31 241.402 242.852C258.149 237.06 261.166 193.126 236.909 186.942Z" fill="black"/>
<ellipse rx="23.612" ry="30.0155" transform="matrix(-0.994648 0.103319 0.0650393 0.997883 274.429 211.438)" fill="white" stroke="black" stroke-width="4" stroke-linecap="round"/>
<path d="M279.272 182.897C271.026 193.43 260.462 219.131 284.173 237.673C300.92 231.881 303.529 189.082 279.272 182.897Z" fill="black"/>
<path d="M276.731 163.651C284.331 159.333 297.075 159.725 303.091 170.896" stroke="black" stroke-width="4.49998" stroke-linecap="round"/>
<path d="M231.96 167.768C222.08 162.745 208.369 165.36 203.954 176.602" stroke="black" stroke-width="4.49998" stroke-linecap="round"/>
<path d="M214.9 265.546C223.656 254.582 236.303 272.569 260.494 270.381C284.684 268.193 292.374 249.482 301.533 259.5C309.824 268.569 291.059 290.939 261.155 293.644C228.612 296.588 206.473 276.099 214.9 265.546Z" fill="#FC9596" stroke="black" stroke-width="4" stroke-linecap="round" stroke-linejoin="round"/>
<path d="M226.225 273.323C239.488 284.002 274.13 288.95 292.412 268.141" stroke="black" stroke-width="4" stroke-linecap="round" stroke-linejoin="round"/>
<path d="M522.684 234.649C560.745 258.004 561.346 302.213 555.062 320.795C590.879 288.944 674.661 330.96 650.721 416.053C628.434 495.269 518.027 450.062 518.027 450.062C483.496 475.113 427.481 462.643 410.755 442.214C222.569 550.127 218.891 272.845 347.332 301.648C338.832 278.511 351.469 257.09 363.387 247.818C377.567 236.785 399.284 235.53 414.241 246.474C423.225 231.373 473.229 204.302 522.684 234.649Z" fill="white" stroke="black" stroke-width="4" stroke-linejoin="round"/>
<ellipse cx="464.78" cy="313.087" rx="27.306" ry="30.5086" transform="rotate(7.00713 464.78 313.087)" fill="white" stroke="black" stroke-width="4"/>
<path d="M461.035 284.796C470.079 295.771 481.071 322.201 452.686 340.124C433.558 333.642 432.619 290.175 461.035 284.796Z" fill="black"/>
<ellipse cx="415.936" cy="307.084" rx="27.306" ry="30.5086" transform="rotate(7.00713 415.936 307.084)" fill="white" stroke="black" stroke-width="4"/>
<path d="M411.714 277.983C420.758 288.958 431.75 315.389 403.365 333.311C384.237 326.829 383.298 283.362 411.714 277.983Z" fill="black"/>
<path d="M502.414 288.859C501.033 282.138 493.299 268.971 473.411 270.076" stroke="black" stroke-width="4" stroke-linecap="round"/>
<path d="M399.746 267.607C404.688 262.847 418.516 256.368 434.288 268.533" stroke="black" stroke-width="4" stroke-linecap="round"/>
<path d="M391.25 355.48C397.983 348.042 411.528 361.481 434.789 364.092C458.05 366.702 472.818 352.624 479.649 362.203C488.997 375.312 467.286 390.775 431.484 386.758C395.682 382.74 381.213 366.566 391.25 355.48Z" fill="#F8C701" stroke="black" stroke-width="4" stroke-linecap="round" stroke-linejoin="round"/>
<path d="M398.806 363.036C398.806 363.036 408.722 372.953 432.805 375.313C456.887 377.673 470.581 368.701 470.581 368.701" stroke="black" stroke-width="4" stroke-linecap="round"/>
<path d="M203.386 381.652C180.05 366.544 151.47 352.762 131.53 332.43C107.447 307.875 106.034 269.628 120.669 265.847C145.227 260.656 148.556 294.985 169.779 314.959C180.639 325.181 223.954 346.684 235.031 344.78C235.031 344.78 245.804 348.957 238.249 370.206C233.527 376.345 223.61 394.744 203.386 381.652Z" fill="#4B9EE9"/>
<path d="M258.795 402.894C270.412 403.177 276.325 395.782 277.829 392.05C281.946 390.555 289.976 386.924 290.389 382.867C290.854 378.3 288.304 374.594 288.304 374.594C291.792 374.09 298.603 363.823 283.648 361.042C262.682 359.455 258.723 357.356 257.375 354.048C263.76 354.106 276.837 352.952 278.065 347.869C279.599 341.516 269.162 340.572 258.108 340.453C247.054 340.334 244.177 344.184 232.162 344.204C211.134 340.186 209.916 335.263 199.528 347.541C197.037 350.484 186.74 369.444 200.502 379.682C207.585 386.261 244.274 402.541 258.795 402.894Z" fill="white"/>
<path d="M277.642 393.491C268.719 410.295 235.958 402.739 203.387 381.652C179.698 366.317 155.143 359.82 132.474 332.904C111.155 307.589 105.562 272.799 116.892 267.266C141.449 255.272 147.612 294.513 168.834 314.487C190.057 334.461 223.954 346.684 235.031 344.78C248.877 342.401 274.5 335.102 278.066 345.371C281.417 355.025 253.284 351.935 257.797 355.68C263.817 360.675 294.182 358.75 293.041 369.128C292.06 378.049 269.362 377.218 258.757 375.408M256.954 390.426C263.287 392.349 273.23 393.591 283.461 389.244C292.909 385.229 289.957 377.899 287.28 376.394" stroke="black" stroke-width="4" stroke-linecap="round"/>
<path d="M206.436 383.959C204.298 379.679 201.384 368.525 206.827 358.147C211.527 349.829 218.947 344.923 222.069 343.509" stroke="black" stroke-width="4" stroke-linecap="round"/>
<path d="M195.028 374.972C193.423 370.932 191.596 360.596 197.133 351.568C201.87 344.358 207.98 340.845 210.848 339.788" stroke="black" stroke-width="4" stroke-linecap="round"/>
</svg>
