<svg width="510" height="514" viewBox="0 0 510 514" fill="none" xmlns="http://www.w3.org/2000/svg">
<path d="M171.072 461.282L213.443 228.52H251.961L200.236 461.282H171.072Z" fill="#FC9596" stroke="black" stroke-width="4" stroke-linecap="round" stroke-linejoin="round"/>
<path d="M209.086 258.625L213.219 228.756L251.478 228.756L239.691 284.573L209.086 258.625Z" fill="black"/>
<path d="M200.236 461.282H171.072L185.178 383.791L216.281 389.082L200.236 461.282Z" fill="white" stroke="black" stroke-width="4" stroke-linecap="round" stroke-linejoin="round"/>
<path d="M207.083 477.551C215.81 475.519 210.487 452.563 204.677 441.63C203.183 443.187 194.05 445.504 187.482 445.788C177.88 446.203 180.357 437.097 169.386 439.677C158.041 442.345 130.583 450.498 121.504 462.637C117.197 468.396 122.323 475.351 129.351 476.877C151.8 481.751 195.104 480.341 207.083 477.551Z" fill="#F8C701" stroke="black" stroke-width="4.49998" stroke-linecap="round"/>
<path d="M121.89 461.605C130.971 468.532 167.895 472.16 211.182 467.469" stroke="black" stroke-width="4"/>
<path d="M289.929 335.822C292.13 305.447 283.509 262.269 278.924 244.477L313.04 232.372C316.525 249.613 323.825 291.03 325.146 318.763C326.467 346.497 313.591 420.929 306.987 454.679H278.924C281.675 427.716 287.728 366.196 289.929 335.822Z" fill="#FC9596" stroke="black" stroke-width="4" stroke-linecap="round" stroke-linejoin="round"/>
<path d="M288.133 290.59L279.234 244.659L313.292 232.056L321.72 281.3L288.133 290.59Z" fill="black"/>
<path d="M306.987 454.679H278.924C280.242 441.76 282.318 420.907 284.366 399.347L317.579 394.098C313.994 417.204 309.886 439.862 306.987 454.679Z" fill="white" stroke="black" stroke-width="4" stroke-linecap="round" stroke-linejoin="round"/>
<path d="M273.169 477.551C264.443 475.519 274.514 450.029 280.323 439.096C281.817 440.653 286.203 445.504 292.77 445.788C302.373 446.202 299.896 437.097 310.866 439.677C322.211 442.345 349.67 450.497 358.749 462.636C363.056 468.395 357.929 475.351 350.902 476.877C328.453 481.751 285.149 480.34 273.169 477.551Z" fill="#F8C701" stroke="black" stroke-width="4.49998" stroke-linecap="round"/>
<path d="M270.621 466.936C292.922 469.779 341.842 473.226 359.114 464.27" stroke="black" stroke-width="4"/>
<path d="M504.285 136.595C493.278 102.401 443.354 101.772 419.731 108.057C379.439 115.087 395.319 139.815 401.733 141.541C410.305 143.847 451.669 138.017 462.02 141.541C475.009 145.963 482.738 159.312 458.381 173.365C437.328 185.511 438.663 202.019 449.481 205.451C461.858 209.379 520.403 186.661 504.285 136.595Z" fill="#FC9596" stroke="black" stroke-width="4" stroke-linecap="round" stroke-linejoin="round"/>
<path d="M424.265 140.902L428.386 105.872L405.852 110.997C398.056 112.769 392.757 120.014 393.429 127.981C394.196 137.075 402.387 143.697 411.44 142.54L424.265 140.902Z" fill="black"/>
<path d="M66.309 87.934C86.6213 22.0318 176.236 29.9229 211.871 66.7326C217.92 72.9809 211.962 91.6418 201.666 98.0929C195.245 102.116 187.939 96.7918 181.849 92.2821C157.332 74.126 128.604 72.7038 109.949 87.934C104.841 92.1047 97.945 108.253 98.3011 114.505C84.072 111.131 75.3021 106.679 61.9809 122.957C61.2302 112.181 62.4405 100.485 66.309 87.934Z" fill="#FC9596" stroke="black" stroke-width="4" stroke-linecap="round" stroke-linejoin="round"/>
<path d="M213.105 68.7039L205.967 61.217L178.643 91.0679L190.509 99.2184C195.187 102.432 201.6 101.112 204.628 96.3112L214.325 80.9402C216.771 77.0638 216.268 72.0211 213.105 68.7039Z" fill="black"/>
<path d="M133.708 73.5988C92.2477 88.5437 93.935 119.599 99.9611 133.258C67.8215 126.428 21.018 154.35 34.8783 205.572C52.6521 271.258 156.808 259.406 199.996 236.908C199.996 236.908 218.315 265.473 279.541 271.258C340.767 277.043 363.105 246.349 368.127 234.498C394.843 243.939 445.594 251.819 456.272 198.426C464.708 156.242 439.035 139.485 410.912 141.695C426.781 104.935 435.74 26.3535 344.624 6.10553C253.508 -14.1425 210.24 55.1185 199.996 92.28C195.175 79.8259 175.168 58.6538 133.708 73.5988Z" fill="#4B9EE9" stroke="black" stroke-width="4" stroke-linecap="round" stroke-linejoin="round"/>
<path d="M425.04 169.152C438.056 169.897 460.02 168.928 464.469 167.743C473.629 168.783 480.876 175.175 484.045 183.065C486.239 188.527 484.054 194.484 481.055 199.549C475.493 208.943 468.69 220.934 462.114 227.515C451.354 238.285 422.156 245.34 420.712 236.786C419.904 232.001 427.517 229.73 427.517 229.73C416.479 233.041 411.433 231.256 410.556 226.286C410.086 223.624 411.438 219.853 421.778 216.02C411.083 219.601 406.662 217.668 405.644 212.369C403.947 203.526 425.04 201.285 436.804 188.742C436.804 185.919 435.853 185.208 425.04 184.382C411.524 183.349 408.771 168.221 425.04 169.152Z" fill="white" stroke="black" stroke-width="4" stroke-linecap="round" stroke-linejoin="round"/>
<path d="M420.855 216.352C431.72 212.079 433.241 211.283 441.571 205.343" stroke="black" stroke-width="4" stroke-linecap="round"/>
<path d="M424.535 230.62C434.394 227.725 435.79 227.145 443.557 222.591" stroke="black" stroke-width="4" stroke-linecap="round"/>
<path d="M463.688 178.586C469.934 180.304 481.582 187.814 478.209 204.115" stroke="black" stroke-width="4" stroke-linecap="round"/>
<ellipse cx="343.154" cy="87.5331" rx="32.9747" ry="22.3854" fill="white" stroke="black" stroke-width="4"/>
<ellipse cx="331.565" cy="87.5333" rx="22.6646" ry="20.4489" fill="black"/>
<ellipse cx="285.61" cy="87.5331" rx="32.9747" ry="22.3854" fill="white" stroke="black" stroke-width="4"/>
<ellipse cx="275.3" cy="87.5333" rx="22.6646" ry="20.4489" fill="black"/>
<path d="M274.403 123.202C280.61 114.581 290.783 123.202 315.568 123.202C340.353 123.202 350.698 113.288 358.241 123.202C365.784 133.116 353.715 152.298 315.568 152.298C277.421 152.298 266.645 133.978 274.403 123.202Z" fill="#F8C701" stroke="black" stroke-width="4" stroke-linecap="round" stroke-linejoin="round"/>
<path d="M284.102 131.823C295.883 136.277 324.964 142.513 347.034 131.823" stroke="black" stroke-width="4" stroke-linecap="round" stroke-linejoin="round"/>
<path d="M273.235 48.9009C283.243 46.355 307.737 45.5298 315.111 59.4357C315.111 59.4357 325.119 43.3703 355.407 48.901" stroke="black" stroke-width="4" stroke-linecap="round" stroke-linejoin="round"/>
<path d="M39.7217 258.114C39.7217 258.114 40.5028 282.347 32.7568 295.764C25.0108 309.18 17.6949 312.599 11.6712 309.121C5.64748 305.644 3.92539 297.731 11.6714 284.314C19.4174 270.898 39.7217 258.114 39.7217 258.114Z" fill="#4B9EE9" stroke="black" stroke-width="4" stroke-linejoin="round"/>
<path d="M60.4932 345.891C60.4932 345.891 61.2743 370.125 53.5283 383.542C45.7823 396.958 38.4664 400.377 32.4427 396.899C26.419 393.421 24.6969 385.509 32.4429 372.092C40.1889 358.676 60.4932 345.891 60.4932 345.891Z" fill="#4B9EE9" stroke="black" stroke-width="4" stroke-linejoin="round"/>
<path d="M133.03 283.497C133.03 283.497 133.811 307.731 126.065 321.147C118.319 334.564 111.003 337.982 104.979 334.505C98.9556 331.027 97.2335 323.114 104.98 309.698C112.726 296.281 133.03 283.497 133.03 283.497Z" fill="#4B9EE9" stroke="black" stroke-width="4" stroke-linejoin="round"/>
<path d="M396.363 264.292C396.363 264.292 397.144 288.526 389.398 301.942C381.652 315.359 374.337 318.778 368.313 315.3C362.289 311.822 360.567 303.909 368.313 290.493C376.059 277.076 396.363 264.292 396.363 264.292Z" fill="#4B9EE9" stroke="black" stroke-width="4" stroke-linejoin="round"/>
<path d="M405.382 333.899C405.382 333.899 406.163 358.132 398.417 371.549C390.671 384.965 383.355 388.384 377.331 384.907C371.308 381.429 369.586 373.516 377.332 360.1C385.078 346.683 405.382 333.899 405.382 333.899Z" fill="#4B9EE9" stroke="black" stroke-width="4" stroke-linejoin="round"/>
<path d="M90.2508 190.923C91.5694 194.13 92.6984 199.016 88.1872 200.435C78.7589 204.72 52.2848 164.085 61.3109 119.9C71.6732 107.769 85.1268 107.374 97.7634 113.945C108.367 143.106 136.077 147.082 132.226 157.541C127.58 170.156 113.172 157.541 113.172 157.541C105.716 169.947 128.498 195.677 120.163 201.028C113.583 205.252 107.012 196.222 107.012 196.222C99.6425 206.828 93.4106 197.058 90.2508 190.923Z" fill="white" stroke="black" stroke-width="4" stroke-linecap="round" stroke-linejoin="round"/>
<path d="M67.4331 124.373C72.0461 119.97 85.2034 113.396 100.929 122.329" stroke="black" stroke-width="4" stroke-linecap="round"/>
<path d="M83.8228 173.629C84.3852 178.005 86.0487 184.492 89.6911 189.825" stroke="black" stroke-width="4" stroke-linecap="round" stroke-linejoin="round"/>
<path d="M96.5323 171.973C96.7106 178.63 103.221 190.595 106.914 195.893" stroke="black" stroke-width="4" stroke-linecap="round" stroke-linejoin="round"/>
</svg>
