<svg width="500" height="479" viewBox="0 0 500 479" fill="none" xmlns="http://www.w3.org/2000/svg">
<path d="M15.8846 195.856C-0.369946 99.9282 92.4317 62.2843 144.026 82.5954C152.996 -22.1431 309.418 -14.1623 324.526 46.0663C375.908 19.4402 405.297 65.2143 396.885 92.1248C446.45 91.066 515.615 116.88 493.894 212.036C472.174 307.191 346.467 301.285 309.418 262.859C295.155 286.584 265.293 277.763 258.528 262.859C229.964 299.185 176.549 279.023 167.085 262.859C139.958 282.803 30.5531 282.424 15.8846 195.856Z" fill="#4B9EE9" stroke="black" stroke-width="4" stroke-linecap="round" stroke-linejoin="round"/>
<path d="M251.192 336.147C251.192 336.147 263.985 356.744 263.985 372.236C263.985 387.728 259.359 394.347 252.403 394.347C245.448 394.347 240 388.355 240 372.863C240 357.371 251.192 336.147 251.192 336.147Z" fill="#4B9EE9" stroke="black" stroke-width="4" stroke-linejoin="round"/>
<path d="M115.192 336.147C115.192 336.147 127.985 356.744 127.985 372.236C127.985 387.728 123.359 394.347 116.403 394.347C109.448 394.347 104 388.355 104 372.863C104 357.371 115.192 336.147 115.192 336.147Z" fill="#4B9EE9" stroke="black" stroke-width="4" stroke-linejoin="round"/>
<path d="M185.192 418.147C185.192 418.147 197.985 438.744 197.985 454.236C197.985 469.728 193.359 476.347 186.403 476.347C179.448 476.347 174 470.355 174 454.863C174 439.371 185.192 418.147 185.192 418.147Z" fill="#4B9EE9" stroke="black" stroke-width="4" stroke-linejoin="round"/>
<path d="M324.192 415.147C324.192 415.147 336.985 435.744 336.985 451.236C336.985 466.728 332.359 473.347 325.403 473.347C318.448 473.347 313 467.355 313 451.863C313 436.371 324.192 415.147 324.192 415.147Z" fill="#4B9EE9" stroke="black" stroke-width="4" stroke-linejoin="round"/>
<path d="M386.192 327.148C386.192 327.148 398.985 345.421 398.985 359.166C398.985 372.911 394.359 378.783 387.403 378.783C380.448 378.783 375 373.468 375 359.723C375 345.978 386.192 327.148 386.192 327.148Z" fill="#4B9EE9" stroke="black" stroke-width="4" stroke-linejoin="round"/>
<path d="M342.751 184.756C344.443 195.345 328.928 203.452 308.046 207.704C287.164 211.955 269.509 211.835 267.131 200.151C264.896 189.173 280.955 181.454 301.837 177.203C322.718 172.952 340.787 172.463 342.751 184.756Z" fill="#F8C701" stroke="black" stroke-width="4"/>
<path d="M282.01 196.621C294.513 193.906 321.274 188.051 328.289 186.345" stroke="black" stroke-width="4" stroke-linecap="round"/>
<ellipse rx="28.2916" ry="33.8392" transform="matrix(-0.973528 0.228569 0.183617 0.982998 262.301 119.683)" fill="white" stroke="black" stroke-width="4" stroke-linecap="round"/>
<path d="M263.905 87.868C255.494 100.985 246.307 131.473 276.847 148.489C295.959 139.335 293.485 90.9456 263.905 87.868Z" fill="black"/>
<ellipse rx="28.2916" ry="33.8392" transform="matrix(-0.973528 0.228569 0.183617 0.982998 311.938 108.029)" fill="white" stroke="black" stroke-width="4" stroke-linecap="round"/>
<path d="M314.175 74.2147C305.764 87.3315 296.576 117.819 327.116 134.836C346.228 125.682 343.754 77.2923 314.175 74.2147Z" fill="black"/>
<path d="M332.618 69.4158C329.015 63.9438 317.211 55.0519 298.816 63.2593" stroke="black" stroke-width="4" stroke-linecap="round"/>
<path d="M252.679 71.1598C238.38 68.9871 220.25 81.7224 220.73 100.922" stroke="black" stroke-width="4" stroke-linecap="round"/>
<path d="M47.7052 201.693C70.4767 224.031 99.9187 193.155 106.911 184.777C126.635 161.146 145.948 179.572 144.213 194.32C142.478 209.067 132.285 219.911 118.839 230.104C105.393 240.297 37.9292 272.826 11.2706 224.682C-17.7905 172.198 29.4879 125.788 43.5846 118.197C57.6813 110.607 77.9255 118.262 73.2961 139.451C67.6574 165.259 25.3673 176.536 47.7052 201.693Z" fill="#FC9596" stroke="black" stroke-width="4" stroke-linecap="round"/>
<path d="M123.415 126.258C111.213 130.492 109.473 164.065 105.173 181.491C97.1273 190.085 107.897 201.965 113.218 205.81C127.624 216.218 140.537 213.09 143.472 210.889C146.407 208.687 150.076 201.105 158.882 191.565C167.687 182.026 196.234 169.971 195.137 159.365C194.166 149.972 187.511 150.24 183.435 151.137C183.435 151.137 189.356 145.472 185.629 140.2C181.161 133.879 174.109 137.24 167.442 140.2C167.442 140.2 172.604 134.44 170.133 130.416C163.284 119.262 142.82 131.15 133.443 138.488C135.482 134.33 134.978 122.246 123.415 126.258Z" fill="white" stroke="black" stroke-width="4" stroke-linecap="round" stroke-linejoin="round"/>
<path d="M113 190C117.909 197.97 127.182 203.419 149 202.975" stroke="black" stroke-width="4" stroke-linecap="round"/>
<path d="M124 151C125.129 148.704 127.363 144.384 134 138" stroke="black" stroke-width="4" stroke-linecap="round"/>
<path d="M141 160C149.376 149.773 157.555 145.441 168 140" stroke="black" stroke-width="4" stroke-linecap="round"/>
<path d="M153 168C161.553 158.074 170.874 154.813 185 151" stroke="black" stroke-width="4" stroke-linecap="round"/>
</svg>
