<svg width="650" height="650" viewBox="0 0 650 650" fill="none" xmlns="http://www.w3.org/2000/svg">
<circle cx="165.685" cy="404.557" r="18.8633" fill="white" stroke="black" stroke-width="4"/>
<path d="M170.434 205C170.434 215.359 161.748 223.863 150.898 223.863C140.048 223.863 131.361 215.359 131.361 205C131.361 194.641 140.048 186.137 150.898 186.137C161.748 186.137 170.434 194.641 170.434 205Z" fill="white" stroke="black" stroke-width="4"/>
<circle cx="310.728" cy="97.299" r="19.5363" fill="white" stroke="black" stroke-width="4"/>
<circle cx="483.787" cy="178.368" r="19.5363" fill="white" stroke="black" stroke-width="4"/>
<path d="M518.362 376.599C518.362 386.957 509.675 395.462 498.825 395.462C487.975 395.462 479.289 386.957 479.289 376.599C479.289 366.24 487.975 357.735 498.825 357.735C509.675 357.735 518.362 366.24 518.362 376.599Z" fill="white" stroke="black" stroke-width="4"/>
<circle cx="341.341" cy="485.261" r="19.5363" fill="white" stroke="black" stroke-width="4"/>
<path fill-rule="evenodd" clip-rule="evenodd" d="M336.88 47.942C333.049 37.5819 338.342 26.0778 348.702 22.2468C359.062 18.4159 370.566 23.7088 374.397 34.0689L395.457 91.0215L416.29 45.741C420.907 35.7065 432.784 31.3145 442.819 35.9314C452.853 40.5481 457.245 52.4254 452.628 62.46L432.105 107.068L488.076 86.3712C498.436 82.5403 509.94 87.8333 513.771 98.1934C517.602 108.553 512.309 120.058 501.949 123.888L408.461 158.458L357.806 268.555L476.864 259.466L542.457 183.03C549.65 174.648 562.276 173.684 570.659 180.877C579.041 188.071 580.005 200.697 572.812 209.08L533.269 255.159L582.967 251.365C593.98 250.525 603.59 258.771 604.431 269.785C605.272 280.799 597.025 290.409 586.012 291.249L537.052 294.987L582.338 333.849C590.72 341.042 591.684 353.669 584.491 362.051C577.297 370.434 564.671 371.398 556.288 364.204L480.647 299.293L360.499 308.466L427.305 407.288L526.197 426.403C537.041 428.5 544.134 438.991 542.037 449.836C539.941 460.681 529.45 467.773 518.605 465.676L458.987 454.152L495.167 507.671C501.353 516.822 498.949 529.255 489.799 535.441C480.648 541.627 468.215 539.224 462.028 530.073L426.263 477.168L414.938 535.759C412.841 546.604 402.35 553.696 391.505 551.599C380.66 549.503 373.568 539.012 375.665 528.167L394.582 430.303L328.418 332.431L278.812 440.248L313.382 533.736C317.213 544.096 311.92 555.6 301.56 559.431C291.2 563.262 279.696 557.969 275.865 547.609L255.168 491.638L224.588 558.103C219.972 568.137 208.094 572.529 198.06 567.912C188.025 563.296 183.633 551.418 188.25 541.384L219.139 474.246L162.186 495.306C151.826 499.137 140.322 493.844 136.491 483.484C132.66 473.124 137.953 461.62 148.313 457.789L242.784 422.856L293.044 313.616L171.362 322.905L106.451 398.547C99.2573 406.93 86.6308 407.894 78.2484 400.7C69.866 393.507 68.9021 380.881 76.0953 372.498L114.958 327.211L66.5234 330.909C55.5098 331.75 45.8998 323.503 45.059 312.489C44.2182 301.476 52.4649 291.866 63.4785 291.025L112.652 287.271L66.5706 247.727C58.1883 240.534 57.2243 227.907 64.4176 219.525C71.6108 211.142 84.2374 210.178 92.6198 217.372L169.056 282.965L288.798 273.823L220.862 173.329L122.998 154.412C112.153 152.316 105.061 141.825 107.157 130.98C109.254 120.135 119.745 113.043 130.59 115.139L189.18 126.465L161.68 85.7848C155.493 76.6339 157.897 64.2008 167.048 58.0147C176.199 51.8285 188.632 54.2318 194.818 63.3827L222.733 104.675L234.257 45.0576C236.353 34.2126 246.844 27.1205 257.689 29.2168C268.534 31.3132 275.626 41.8042 273.53 52.6491L254.414 151.54L321.771 251.177L371.813 142.412L336.88 47.942Z" fill="white"/>
<path d="M348.702 22.2468L349.396 24.1227V24.1227L348.702 22.2468ZM336.88 47.942L335.004 48.6356V48.6356L336.88 47.942ZM374.397 34.0689L376.273 33.3752V33.3752L374.397 34.0689ZM395.457 91.0215L393.581 91.7151C393.862 92.4739 394.572 92.9889 395.38 93.02C396.188 93.0512 396.936 92.5923 397.274 91.8574L395.457 91.0215ZM416.29 45.741L418.107 46.577V46.577L416.29 45.741ZM442.819 35.9314L441.983 37.7483V37.7483L442.819 35.9314ZM452.628 62.46L454.445 63.2959V63.2959L452.628 62.46ZM432.105 107.068L430.288 106.232C429.95 106.967 430.088 107.833 430.637 108.427C431.187 109.02 432.04 109.225 432.798 108.944L432.105 107.068ZM488.076 86.3712L487.382 84.4954H487.382L488.076 86.3712ZM513.771 98.1934L511.895 98.887V98.887L513.771 98.1934ZM501.949 123.888L501.255 122.013H501.255L501.949 123.888ZM408.461 158.458L407.767 156.583C407.269 156.766 406.865 157.141 406.644 157.622L408.461 158.458ZM357.806 268.555L355.989 267.719C355.693 268.363 355.76 269.115 356.165 269.697C356.569 270.279 357.252 270.603 357.959 270.549L357.806 268.555ZM476.864 259.466L477.017 261.46C477.546 261.419 478.037 261.171 478.382 260.768L476.864 259.466ZM542.457 183.03L540.939 181.728L542.457 183.03ZM570.659 180.877L571.961 179.36H571.961L570.659 180.877ZM572.812 209.08L574.33 210.382L572.812 209.08ZM533.269 255.159L531.751 253.857C531.224 254.471 531.119 255.342 531.485 256.063C531.85 256.785 532.614 257.215 533.421 257.154L533.269 255.159ZM582.967 251.365L583.119 253.36L582.967 251.365ZM604.431 269.785L606.425 269.633V269.633L604.431 269.785ZM586.012 291.249L586.164 293.244L586.012 291.249ZM537.052 294.987L536.899 292.993C536.093 293.055 535.403 293.596 535.151 294.365C534.899 295.133 535.135 295.978 535.749 296.505L537.052 294.987ZM582.338 333.849L583.64 332.331H583.64L582.338 333.849ZM584.491 362.051L586.008 363.354L584.491 362.051ZM556.288 364.204L557.591 362.687L556.288 364.204ZM480.647 299.293L481.95 297.776C481.547 297.43 481.024 297.259 480.495 297.299L480.647 299.293ZM360.499 308.466L360.347 306.472C359.637 306.526 359.009 306.954 358.699 307.596C358.389 308.237 358.443 308.996 358.843 309.586L360.499 308.466ZM427.305 407.288L425.648 408.408C425.945 408.847 426.405 409.15 426.926 409.251L427.305 407.288ZM526.197 426.403L525.817 428.367L526.197 426.403ZM542.037 449.836L540.074 449.456L542.037 449.836ZM518.605 465.676L518.225 467.64L518.605 465.676ZM458.987 454.152L459.366 452.188C458.572 452.035 457.764 452.375 457.318 453.05C456.872 453.725 456.877 454.602 457.33 455.272L458.987 454.152ZM495.167 507.671L493.51 508.791L495.167 507.671ZM489.799 535.441L488.678 533.784H488.678L489.799 535.441ZM462.028 530.073L460.371 531.193L462.028 530.073ZM426.263 477.168L427.92 476.048C427.467 475.378 426.655 475.046 425.863 475.208C425.07 475.371 424.453 475.994 424.3 476.788L426.263 477.168ZM414.938 535.759L416.901 536.138L414.938 535.759ZM391.505 551.599L391.126 553.563L391.505 551.599ZM375.665 528.167L377.628 528.547L375.665 528.167ZM394.582 430.303L396.545 430.683C396.646 430.162 396.536 429.623 396.239 429.183L394.582 430.303ZM328.418 332.431L330.075 331.311C329.67 330.712 328.975 330.378 328.255 330.437C327.535 330.496 326.903 330.939 326.601 331.595L328.418 332.431ZM278.812 440.248L276.995 439.412C276.773 439.894 276.752 440.444 276.936 440.942L278.812 440.248ZM313.382 533.736L311.506 534.43L313.382 533.736ZM301.56 559.431L300.866 557.556L301.56 559.431ZM275.865 547.609L277.741 546.916L275.865 547.609ZM255.168 491.638L257.044 490.945C256.763 490.186 256.053 489.671 255.245 489.64C254.437 489.609 253.689 490.068 253.351 490.803L255.168 491.638ZM224.588 558.103L226.405 558.939L224.588 558.103ZM198.06 567.912L198.896 566.096L198.06 567.912ZM188.25 541.384L186.433 540.548H186.433L188.25 541.384ZM219.139 474.246L220.956 475.082C221.294 474.347 221.157 473.481 220.607 472.887C220.057 472.294 219.204 472.089 218.446 472.37L219.139 474.246ZM162.186 495.306L162.88 497.182H162.88L162.186 495.306ZM136.491 483.484L138.367 482.79L136.491 483.484ZM148.313 457.789L147.619 455.913L148.313 457.789ZM242.784 422.856L243.477 424.732C243.975 424.548 244.379 424.174 244.6 423.692L242.784 422.856ZM293.044 313.616L294.861 314.452C295.157 313.808 295.09 313.055 294.686 312.473C294.281 311.892 293.598 311.567 292.892 311.621L293.044 313.616ZM171.362 322.905L171.21 320.911C170.681 320.951 170.19 321.2 169.844 321.603L171.362 322.905ZM106.451 398.547L107.968 399.85H107.968L106.451 398.547ZM78.2484 400.7L76.9459 402.218H76.9459L78.2484 400.7ZM76.0953 372.498L74.5776 371.196H74.5776L76.0953 372.498ZM114.958 327.211L116.476 328.514C117.002 327.9 117.108 327.029 116.742 326.308C116.376 325.586 115.612 325.156 114.806 325.217L114.958 327.211ZM66.5234 330.909L66.3712 328.915H66.3712L66.5234 330.909ZM45.059 312.489L47.0532 312.337H47.0532L45.059 312.489ZM63.4785 291.025L63.3263 289.031H63.3263L63.4785 291.025ZM112.652 287.271L112.804 289.265C113.611 289.204 114.301 288.662 114.552 287.894C114.804 287.125 114.568 286.28 113.954 285.753L112.652 287.271ZM66.5706 247.727L65.2681 249.245H65.2682L66.5706 247.727ZM64.4176 219.525L62.8998 218.222L62.8998 218.222L64.4176 219.525ZM92.6198 217.372L93.9222 215.854H93.9222L92.6198 217.372ZM169.056 282.965L167.754 284.483C168.156 284.828 168.679 284.999 169.208 284.959L169.056 282.965ZM288.798 273.823L288.95 275.818C289.661 275.763 290.289 275.335 290.599 274.693C290.909 274.052 290.854 273.294 290.455 272.703L288.798 273.823ZM220.862 173.329L222.518 172.209C222.221 171.77 221.762 171.466 221.241 171.365L220.862 173.329ZM122.998 154.412L123.378 152.448H123.378L122.998 154.412ZM130.59 115.139L130.969 113.175L130.969 113.175L130.59 115.139ZM189.18 126.465L188.8 128.428C189.595 128.582 190.403 128.242 190.849 127.567C191.295 126.892 191.29 126.015 190.837 125.344L189.18 126.465ZM161.68 85.7848L163.337 84.6647L161.68 85.7848ZM167.048 58.0147L168.168 59.6716L168.168 59.6716L167.048 58.0147ZM194.818 63.3827L193.161 64.5028L193.161 64.5028L194.818 63.3827ZM222.733 104.675L221.076 105.796C221.529 106.466 222.341 106.797 223.133 106.635C223.926 106.473 224.543 105.849 224.696 105.055L222.733 104.675ZM234.257 45.0576L236.221 45.4372V45.4372L234.257 45.0576ZM257.689 29.2168L258.069 27.2532V27.2532L257.689 29.2168ZM273.53 52.6491L271.566 52.2695V52.2696L273.53 52.6491ZM254.414 151.54L252.451 151.16C252.35 151.681 252.46 152.221 252.757 152.66L254.414 151.54ZM321.771 251.177L320.114 252.297C320.519 252.896 321.214 253.229 321.934 253.171C322.654 253.112 323.286 252.669 323.588 252.013L321.771 251.177ZM371.813 142.412L373.63 143.248C373.852 142.766 373.873 142.216 373.689 141.718L371.813 142.412ZM348.008 20.371C336.612 24.585 330.79 37.2395 335.004 48.6356L338.756 47.2483C335.308 37.9242 340.072 27.5705 349.396 24.1227L348.008 20.371ZM376.273 33.3752C372.059 21.9792 359.404 16.157 348.008 20.371L349.396 24.1227C358.72 20.6749 369.073 25.4385 372.521 34.7625L376.273 33.3752ZM397.333 90.3279L376.273 33.3752L372.521 34.7625L393.581 91.7151L397.333 90.3279ZM414.473 44.9051L393.64 90.1856L397.274 91.8574L418.107 46.577L414.473 44.9051ZM443.655 34.1144C432.617 29.0359 419.552 33.8671 414.473 44.9051L418.107 46.577C422.262 37.5459 432.952 33.5931 441.983 37.7483L443.655 34.1144ZM454.445 63.2959C459.524 52.2579 454.693 39.1929 443.655 34.1144L441.983 37.7483C451.014 41.9034 454.967 52.5929 450.812 61.624L454.445 63.2959ZM433.922 107.904L454.445 63.2959L450.812 61.624L430.288 106.232L433.922 107.904ZM487.382 84.4954L431.411 105.192L432.798 108.944L488.769 88.2471L487.382 84.4954ZM515.647 97.4997C511.433 86.1036 498.778 80.2813 487.382 84.4954L488.769 88.2471C498.093 84.7993 508.447 89.5629 511.895 98.887L515.647 97.4997ZM502.642 125.764C514.039 121.55 519.861 108.896 515.647 97.4997L511.895 98.887C515.343 108.211 510.579 118.565 501.255 122.013L502.642 125.764ZM409.154 160.334L502.642 125.764L501.255 122.013L407.767 156.583L409.154 160.334ZM359.623 269.391L410.278 159.294L406.644 157.622L355.989 267.719L359.623 269.391ZM357.959 270.549L477.017 261.46L476.712 257.471L357.654 266.561L357.959 270.549ZM478.382 260.768L543.974 184.333L540.939 181.728L475.347 258.163L478.382 260.768ZM543.974 184.333C550.448 176.789 561.812 175.921 569.356 182.395L571.961 179.36C562.741 171.447 548.851 172.507 540.939 181.728L543.974 184.333ZM569.356 182.395C576.901 188.869 577.768 200.233 571.294 207.777L574.33 210.382C582.242 201.161 581.182 187.272 571.961 179.36L569.356 182.395ZM571.294 207.777L531.751 253.857L534.786 256.462L574.33 210.382L571.294 207.777ZM533.421 257.154L583.119 253.36L582.815 249.371L533.116 253.165L533.421 257.154ZM583.119 253.36C593.031 252.603 601.68 260.025 602.437 269.937L606.425 269.633C605.5 257.518 594.93 248.446 582.815 249.371L583.119 253.36ZM602.437 269.937C603.194 279.849 595.772 288.498 585.859 289.255L586.164 293.244C598.279 292.319 607.35 281.748 606.425 269.633L602.437 269.937ZM585.859 289.255L536.899 292.993L537.204 296.981L586.164 293.244L585.859 289.255ZM535.749 296.505L581.035 335.367L583.64 332.331L538.354 293.469L535.749 296.505ZM581.035 335.367C588.579 341.841 589.447 353.205 582.973 360.749L586.008 363.354C593.921 354.133 592.861 340.244 583.64 332.331L581.035 335.367ZM582.973 360.749C576.499 368.293 565.135 369.16 557.591 362.687L554.986 365.722C564.206 373.635 578.096 372.574 586.008 363.354L582.973 360.749ZM557.591 362.687L481.95 297.776L479.345 300.811L554.986 365.722L557.591 362.687ZM480.495 297.299L360.347 306.472L360.652 310.46L480.799 301.287L480.495 297.299ZM428.962 406.167L362.156 307.346L358.843 309.586L425.648 408.408L428.962 406.167ZM526.576 424.44L427.685 405.324L426.926 409.251L525.817 428.367L526.576 424.44ZM544.001 450.215C546.307 438.286 538.506 426.746 526.576 424.44L525.817 428.367C535.577 430.254 541.96 439.696 540.074 449.456L544.001 450.215ZM518.225 467.64C530.155 469.946 541.695 462.145 544.001 450.215L540.074 449.456C538.187 459.216 528.745 465.599 518.985 463.713L518.225 467.64ZM458.607 456.116L518.225 467.64L518.985 463.713L459.366 452.188L458.607 456.116ZM496.824 506.551L460.644 453.032L457.33 455.272L493.51 508.791L496.824 506.551ZM490.919 537.098C500.985 530.293 503.628 516.617 496.824 506.551L493.51 508.791C499.077 517.027 496.914 528.217 488.678 533.784L490.919 537.098ZM460.371 531.193C467.176 541.259 480.853 543.903 490.919 537.098L488.678 533.784C480.443 539.352 469.253 537.189 463.685 528.953L460.371 531.193ZM424.606 478.288L460.371 531.193L463.685 528.953L427.92 476.048L424.606 478.288ZM416.901 536.138L428.227 477.547L424.3 476.788L412.974 535.379L416.901 536.138ZM391.126 553.563C403.055 555.869 414.595 548.068 416.901 536.138L412.974 535.379C411.087 545.139 401.645 551.522 391.885 549.636L391.126 553.563ZM373.701 527.788C371.395 539.717 379.196 551.257 391.126 553.563L391.885 549.636C382.124 547.749 375.741 538.307 377.628 528.547L373.701 527.788ZM392.618 429.924L373.701 527.788L377.628 528.547L396.545 430.683L392.618 429.924ZM326.761 333.551L392.925 431.423L396.239 429.183L330.075 331.311L326.761 333.551ZM280.629 441.084L330.235 333.267L326.601 331.595L276.995 439.412L280.629 441.084ZM315.258 533.043L280.688 439.555L276.936 440.942L311.506 534.43L315.258 533.043ZM302.254 561.307C313.65 557.093 319.472 544.439 315.258 533.043L311.506 534.43C314.954 543.754 310.19 554.108 300.866 557.556L302.254 561.307ZM273.989 548.303C278.203 559.699 290.857 565.521 302.254 561.307L300.866 557.556C291.542 561.003 281.189 556.24 277.741 546.916L273.989 548.303ZM253.292 492.332L273.989 548.303L277.741 546.916L257.044 490.945L253.292 492.332ZM226.405 558.939L256.985 492.474L253.351 490.803L222.771 557.267L226.405 558.939ZM197.224 569.729C208.262 574.808 221.327 569.977 226.405 558.939L222.771 557.267C218.616 566.298 207.927 570.251 198.896 566.096L197.224 569.729ZM186.433 540.548C181.355 551.586 186.186 564.651 197.224 569.729L198.896 566.096C189.865 561.94 185.912 551.251 190.067 542.22L186.433 540.548ZM217.323 473.41L186.433 540.548L190.067 542.22L220.956 475.082L217.323 473.41ZM162.88 497.182L219.833 476.122L218.446 472.37L161.492 493.43L162.88 497.182ZM134.615 484.178C138.829 495.574 151.484 501.396 162.88 497.182L161.492 493.43C152.168 496.878 141.815 492.114 138.367 482.79L134.615 484.178ZM147.619 455.913C136.223 460.127 130.401 472.782 134.615 484.178L138.367 482.79C134.919 473.466 139.683 463.113 149.007 459.665L147.619 455.913ZM242.09 420.98L147.619 455.913L149.007 459.665L243.477 424.732L242.09 420.98ZM291.227 312.78L240.967 422.02L244.6 423.692L294.861 314.452L291.227 312.78ZM292.892 311.621L171.21 320.911L171.514 324.899L293.196 315.61L292.892 311.621ZM169.844 321.603L104.933 397.245L107.968 399.85L172.88 324.208L169.844 321.603ZM104.933 397.245C98.4589 404.789 87.095 405.657 79.5508 399.183L76.9459 402.218C86.1666 410.131 100.056 409.07 107.968 399.85L104.933 397.245ZM79.5509 399.183C72.0067 392.709 71.1392 381.345 77.6131 373.801L74.5776 371.196C66.665 380.416 67.7253 394.305 76.9459 402.218L79.5509 399.183ZM77.6131 373.801L116.476 328.514L113.44 325.909L74.5776 371.196L77.6131 373.801ZM114.806 325.217L66.3712 328.915L66.6756 332.903L115.11 329.206L114.806 325.217ZM66.3712 328.915C56.4589 329.672 47.8099 322.25 47.0532 312.337L43.0648 312.642C43.9897 324.757 54.5606 333.828 66.6756 332.903L66.3712 328.915ZM47.0532 312.337C46.2964 302.425 53.7185 293.776 63.6308 293.019L63.3263 289.031C51.2113 289.956 42.1399 300.527 43.0648 312.642L47.0532 312.337ZM63.6308 293.019L112.804 289.265L112.5 285.277L63.3263 289.031L63.6308 293.019ZM113.954 285.753L67.8731 246.209L65.2682 249.245L111.349 288.789L113.954 285.753ZM67.8731 246.209C60.329 239.735 59.4614 228.371 65.9353 220.827L62.8998 218.222C54.9872 227.443 56.0476 241.332 65.2681 249.245L67.8731 246.209ZM65.9353 220.827C72.4093 213.283 83.7732 212.415 91.3173 218.889L93.9222 215.854C84.7016 207.941 70.8124 209.002 62.8998 218.222L65.9353 220.827ZM91.3173 218.889L167.754 284.483L170.359 281.447L93.9222 215.854L91.3173 218.889ZM169.208 284.959L288.95 275.818L288.646 271.829L168.904 280.971L169.208 284.959ZM219.205 174.449L287.141 274.943L290.455 272.703L222.518 172.209L219.205 174.449ZM122.618 156.376L220.482 175.293L221.241 171.365L123.378 152.448L122.618 156.376ZM105.194 130.6C102.888 142.53 110.689 154.07 122.618 156.376L123.378 152.448C113.617 150.562 107.234 141.12 109.121 131.359L105.194 130.6ZM130.969 113.175C119.04 110.869 107.5 118.671 105.194 130.6L109.121 131.359C111.008 121.599 120.449 115.216 130.21 117.102L130.969 113.175ZM189.56 124.501L130.969 113.175L130.21 117.102L188.8 128.428L189.56 124.501ZM160.023 86.9049L187.523 127.585L190.837 125.344L163.337 84.6647L160.023 86.9049ZM165.928 56.3578C155.862 63.1625 153.218 76.839 160.023 86.9049L163.337 84.6647C157.769 76.4289 159.932 65.2391 168.168 59.6716L165.928 56.3578ZM196.475 62.2626C189.67 52.1966 175.993 49.5529 165.928 56.3578L168.168 59.6716C176.404 54.104 187.593 56.267 193.161 64.5028L196.475 62.2626ZM224.39 103.555L196.475 62.2626L193.161 64.5028L221.076 105.796L224.39 103.555ZM232.293 44.678L220.769 104.296L224.696 105.055L236.221 45.4372L232.293 44.678ZM258.069 27.2532C246.139 24.9472 234.599 32.7485 232.293 44.678L236.221 45.4372C238.107 35.6767 247.549 29.2938 257.31 31.1805L258.069 27.2532ZM275.494 53.0287C277.8 41.0992 269.998 29.5592 258.069 27.2532L257.31 31.1805C267.07 33.0672 273.453 42.5091 271.566 52.2695L275.494 53.0287ZM256.378 151.92L275.494 53.0287L271.566 52.2696L252.451 151.16L256.378 151.92ZM323.428 250.057L256.071 150.42L252.757 152.66L320.114 252.297L323.428 250.057ZM369.996 141.576L319.954 250.341L323.588 252.013L373.63 143.248L369.996 141.576ZM335.004 48.6356L369.937 143.105L373.689 141.718L338.756 47.2483L335.004 48.6356Z" fill="black"/>
<path d="M482.861 490L450.361 511.5L468.361 539L499.361 514.5L482.861 490Z" fill="#F8C701" stroke="black" stroke-width="4" stroke-linecap="round"/>
<path d="M262.5 164L279.861 189.5L247.361 212L230.36 187.505L262.5 164Z" fill="#F8C701" stroke="black" stroke-width="4" stroke-linecap="round"/>
<path d="M549.379 306.018L574.544 326.946L549.415 357.46L526.376 338.532L549.379 306.018Z" fill="#F8C701" stroke="black" stroke-width="4" stroke-linecap="round"/>
<path d="M96.2391 222.079L115.151 238.119L89.6519 267.11L70.6515 251.619L96.2391 222.079Z" fill="#F8C701" stroke="black" stroke-width="4" stroke-linecap="round"/>
<path d="M199.861 518.5L234.861 534.5L221.861 565.5L188.361 541L199.861 518.5Z" fill="#F8C701" stroke="black" stroke-width="4" stroke-linecap="round"/>
<path d="M291.361 410.5L257.361 390.451L261.861 382C282.361 392.211 298.361 393.62 298.361 393.62L291.361 410.5Z" fill="black"/>
<path d="M382.584 411.908L410.699 383.876L403.861 372.001L370.837 394.473L382.584 411.908Z" fill="black"/>
<path d="M441.508 262H435.361V303L446.361 301.5L441.508 262Z" fill="black"/>
<path d="M201.361 321L203.418 281.482L214.218 280L219.361 319.518L201.361 321Z" fill="black"/>
<circle cx="324.361" cy="291" r="113" fill="white" stroke="black" stroke-width="4"/>
<ellipse cx="248.638" cy="288.752" rx="15" ry="18.5" transform="rotate(15 248.638 288.752)" fill="#FC9596" stroke="black" stroke-width="4"/>
<ellipse rx="15" ry="18.5" transform="matrix(-0.965926 0.258819 0.258819 0.965926 405.638 282.752)" fill="#FC9596" stroke="black" stroke-width="4"/>
<path d="M276.115 308.582C286.857 296.168 300.813 317.781 329.195 316.339C357.577 314.897 367.43 293.377 377.675 305.512C386.95 316.497 363.98 341.784 328.895 343.566C290.713 345.506 265.776 320.531 276.115 308.582Z" fill="#FC9596" stroke="black" stroke-width="4" stroke-linecap="round" stroke-linejoin="round"/>
<path d="M288.995 318.198C304.009 331.295 344.28 338.677 366.614 315.194" stroke="black" stroke-width="4" stroke-linecap="round" stroke-linejoin="round"/>
<path d="M186.536 538.825L168.078 573.162L152.742 565.906C143.731 561.643 132.976 565.606 128.886 574.696C124.953 583.438 128.646 593.725 137.241 597.969L175.284 616.756C185.133 621.619 197.061 617.63 202.002 607.819L226.924 558.336C228.188 555.825 227.136 552.767 224.595 551.566L193.076 536.671C190.671 535.534 187.796 536.481 186.536 538.825Z" fill="#4B9EE9" stroke="black" stroke-width="4" stroke-linecap="round" stroke-linejoin="round"/>
<path d="M498.47 508.687L520.761 540.079L535.205 530.322C543.336 524.829 554.37 526.877 559.989 534.921C565.666 543.049 563.686 554.238 555.566 559.924L521.436 583.823C512.439 590.123 500.044 587.988 493.673 579.04L461.536 533.907C459.906 531.618 460.483 528.435 462.812 526.862L491.597 507.437C493.847 505.918 496.898 506.473 498.47 508.687Z" fill="#4B9EE9" stroke="black" stroke-width="4" stroke-linecap="round" stroke-linejoin="round"/>
<path d="M163.991 571.41L175.885 577.157" stroke="black" stroke-width="4" stroke-linecap="round" stroke-linejoin="round"/>
<path d="M512.361 546.156L523.186 538.584" stroke="black" stroke-width="4" stroke-linecap="round" stroke-linejoin="round"/>
<ellipse rx="21.4518" ry="28.9357" transform="matrix(0.999862 -0.0166175 -0.0166175 -0.999862 304.79 259.983)" fill="white" stroke="black" stroke-width="4" stroke-linecap="round"/>
<path d="M314.673 287.115C323.159 278.406 335.247 255.605 315.709 234.071C300.028 236.879 293.411 277.28 314.673 287.115Z" fill="black"/>
<ellipse rx="21.4518" ry="28.9357" transform="matrix(0.999862 -0.0166175 -0.0166175 -0.999862 342.222 257.717)" fill="white" stroke="black" stroke-width="4" stroke-linecap="round"/>
<path d="M352.101 284.72C360.588 276.012 372.676 253.211 353.138 231.677C337.457 234.484 330.84 274.885 352.101 284.72Z" fill="black"/>
<path d="M275.361 229.717C276.195 224.551 283.361 212.218 299.361 214.217" stroke="black" stroke-width="4" stroke-linecap="round" stroke-linejoin="round"/>
<path d="M369.987 226.666C368.717 221.589 360.525 209.912 344.753 213.268" stroke="black" stroke-width="4" stroke-linecap="round" stroke-linejoin="round"/>
</svg>
