<svg width="650" height="650" viewBox="0 0 650 650" fill="none" xmlns="http://www.w3.org/2000/svg">
<path d="M257.141 487.811C274.157 449.084 291.675 413.225 304.345 392.995L267.068 380.678C255.231 392.515 238.759 420.504 223.489 462.989C208.344 505.129 201.734 558.42 202.264 576.442L231.292 591.114C243.083 529.706 242.253 521.694 257.141 487.811Z" fill="#FC9596" stroke="black" stroke-width="4" stroke-linecap="round" stroke-linejoin="round"/>
<path d="M289.953 416.892L240.602 423.521L256.867 381.647L302.72 391.602L289.953 416.892Z" fill="black"/>
<path d="M202.263 576.441L231.291 591.113C239.301 549.397 241.362 532.431 246.528 515.217L212.586 502.18C203.861 534.694 201.88 563.397 202.263 576.441Z" fill="white" stroke="black" stroke-width="4" stroke-linecap="round" stroke-linejoin="round"/>
<path d="M218.641 615.601C229.051 617.137 235.628 587.789 233.986 573.341C231.683 574.4 219.484 578.705 212.185 576.188C201.514 572.508 208.788 556.739 195.69 554.836C181.559 552.784 144.379 551.846 129.846 563.496C124.235 567.994 126.492 576.162 132.373 580.3C154.03 595.542 203.996 613.441 218.641 615.601Z" fill="#F8C701" stroke="black" stroke-width="4.49998" stroke-linecap="round"/>
<path d="M132.152 562.697C132.152 574.569 178.867 595.165 228.421 608.38" stroke="black" stroke-width="4"/>
<path d="M350.097 482.01C323.925 450.677 322.911 389.086 325.676 362.207L373.597 359.903C369.45 382.481 365.303 434.458 381.891 461.736C398.479 489.014 441.153 509.223 461.274 515.214L450.548 547.902C427.97 538.994 376.27 513.344 350.097 482.01Z" fill="#FC9596" stroke="black" stroke-width="4" stroke-linecap="round" stroke-linejoin="round"/>
<path d="M461.274 515.213L450.548 547.901C436.713 542.443 411.16 530.698 388.03 515.213L406.598 487.315C425.418 501.343 448.146 511.304 461.274 515.213Z" fill="white"/>
<path d="M450.548 547.901L461.274 515.213C448.146 511.304 425.418 501.343 406.598 487.315M450.548 547.901C436.713 542.443 411.945 530.698 388.815 515.213L406.598 487.315M450.548 547.901C436.713 542.443 411.16 530.698 388.03 515.213L406.598 487.315" stroke="black" stroke-width="4" stroke-linecap="round" stroke-linejoin="round"/>
<path d="M328.154 423.091L325.099 363.217L372.303 361.386L369.413 404.337L328.154 423.091Z" fill="black"/>
<path d="M490.227 531.649C492.978 521.492 464.609 511.504 450.069 511.433C450.849 513.844 453.687 526.466 450.328 533.417C445.417 543.581 430.614 534.499 427.182 547.282C423.479 561.073 418.168 597.884 428.025 613.688C431.83 619.789 440.207 618.511 445.01 613.158C462.697 593.447 486.357 545.937 490.227 531.649Z" fill="#F8C701" stroke="black" stroke-width="4.49998" stroke-linecap="round"/>
<path d="M428.403 612.927C439.147 615.131 473.305 559.265 483.222 523.123" stroke="black" stroke-width="4"/>
<path d="M440.506 264.277C484.618 252.882 521.547 218.212 538.08 165.513L570.887 175.071C564.171 210.204 551.636 233.895 530.097 257.947C500.487 291.01 483.909 299.907 462.787 311.241L462.446 311.424C441.161 322.846 385.366 278.521 440.506 264.277Z" fill="#FC9596" stroke="black" stroke-width="4" stroke-linecap="round" stroke-linejoin="round"/>
<path d="M527.517 142.099C525.114 124.723 515.488 121.572 511.701 128.776C509.686 132.609 516.751 155.348 523.161 173.354C525.167 180.211 527.141 185.644 526.781 191.882C543.02 182.334 564.003 200.211 564.003 200.211C564.003 200.211 567.248 191.215 570.02 185.901C574.678 176.971 581.524 162.831 584.746 151.195C589.887 132.636 586.482 105.088 578.081 103.004C571.361 101.338 570.997 108.165 570.957 112.767C570.636 108.485 568.307 97.2228 562.575 98.0154C552.227 99.4466 555.248 116.307 550.297 126.866C550.297 126.866 550.662 97.562 539.591 101.194C528.558 104.814 537.012 135.158 527.517 142.099Z" fill="white" stroke="black" stroke-width="4" stroke-linecap="round" stroke-linejoin="round"/>
<path d="M537.735 141.297C544.719 138.443 560.664 134.007 577.051 146.412" stroke="black" stroke-width="4" stroke-linecap="round" stroke-linejoin="round"/>
<path d="M570.844 109.004C571.113 115.916 570.958 131.793 568.181 140.002" stroke="black" stroke-width="4" stroke-linecap="round" stroke-linejoin="round"/>
<path d="M547.715 137.095C548.686 134.309 551.295 125.008 551.027 119.811" stroke="black" stroke-width="4" stroke-linecap="round" stroke-linejoin="round"/>
<path d="M537.327 150.378C541.879 151.198 551.29 155.839 552.516 167.844" stroke="black" stroke-width="4" stroke-linecap="round" stroke-linejoin="round"/>
<path d="M525.866 182.567C532.329 178.956 548.528 174.766 561.618 186.895" stroke="black" stroke-width="4" stroke-linecap="round"/>
<path d="M140.922 146.008C138.622 175.255 146.494 195.491 152.305 205.744C144.812 292.429 106.658 239.087 102.182 184.419C97.9807 133.1 119.507 86.7965 131.073 69.8427L172.402 83.9289C167.298 92.0093 143.22 116.79 140.922 146.008Z" fill="#FC9596" stroke="black" stroke-width="4" stroke-linecap="round" stroke-linejoin="round"/>
<path d="M135.685 252.58C135.685 252.58 109.257 241.127 104.18 193.483C118.123 185.309 129.884 182.578 142.455 180.994L152.864 205.228C150.882 239.806 135.685 252.58 135.685 252.58Z" fill="black"/>
<path d="M129.442 52.2472C136.54 40.1694 152.127 18.8809 159.715 22.6569C164.719 25.1471 162.378 32.4311 159.649 37.5237C163.232 32.1217 169.706 25.2761 176.435 27.0402C182.273 28.5705 181.207 33.8367 178.839 38.2571C182.501 33.5346 188.032 28.7882 193.156 31.4235C201.659 35.797 180.217 63.0561 180.273 65.5723C180.328 68.0886 195.165 53.7512 200.922 56.3325C206.678 58.9137 205.808 69.0499 190.103 78.5139C177.179 86.3028 168.312 91.0403 162.053 98.3227C160.707 99.889 154.964 107.799 153.844 109.656C146.786 102.95 129.442 91.4211 116.198 98.3227C116.429 96.4772 119.307 88.9086 119.727 86.3431C121.487 75.6005 124.859 60.0467 129.442 52.2472Z" fill="white"/>
<path d="M116.198 98.3227C129.442 91.4211 146.786 102.95 153.844 109.656C154.964 107.799 160.707 99.889 162.053 98.3227C168.312 91.0403 177.179 86.3028 190.103 78.5139C205.808 69.0499 206.678 58.9137 200.922 56.3325C195.165 53.7512 180.328 68.0886 180.273 65.5723C180.217 63.0561 201.659 35.797 193.156 31.4235C186.354 27.9247 178.832 37.4373 175.922 42.631C179.437 38.3107 184.461 29.1442 176.435 27.0402C168.41 24.9362 160.747 35.0789 157.919 40.4133C161.047 35.7532 165.785 25.6778 159.715 22.6569C152.127 18.8809 136.54 40.1694 129.442 52.2472C124.859 60.0467 121.487 75.6005 119.727 86.3431C119.307 88.9086 116.429 96.4772 116.198 98.3227Z" stroke="black" stroke-width="4" stroke-linecap="round" stroke-linejoin="round"/>
<path d="M137.515 50.4982C147.959 47.4491 163.455 51.2968 174.378 63.5913" stroke="black" stroke-width="4" stroke-linecap="round" stroke-linejoin="round"/>
<path d="M163.068 32.3335L152.415 49.26" stroke="black" stroke-width="4" stroke-linecap="round" stroke-linejoin="round"/>
<path d="M179.247 37.6629L167.751 54.6984" stroke="black" stroke-width="4" stroke-linecap="round" stroke-linejoin="round"/>
<path d="M143.759 74.9657C144.772 73.9898 150.332 64.0543 166.176 66.6174" stroke="black" stroke-width="4" stroke-linecap="round" stroke-linejoin="round"/>
<path d="M120.08 86.5977C126.59 85.0683 142.527 84.833 154.198 96.127" stroke="black" stroke-width="4" stroke-linecap="round"/>
<path d="M433.475 150.4C376.431 111.101 308.923 128.056 293.583 161.636C254.746 108.09 189.584 159.749 215.761 200.777C162.021 157.599 73.0682 206.853 75.3898 287.387C78.3117 388.742 310.456 431.099 383.187 389.182C434.312 436.549 547.475 428.902 553.9 335.963C559.04 261.612 496.531 248.97 464.634 251.943C478.016 234.47 490.519 189.698 433.475 150.4Z" fill="#4B9EE9" stroke="black" stroke-width="4" stroke-linecap="round" stroke-linejoin="round"/>
<path d="M136.257 446.272C136.257 446.272 137.038 470.506 129.292 483.922C121.546 497.338 114.23 500.757 108.206 497.28C102.183 493.802 100.461 485.889 108.207 472.473C115.953 459.056 136.257 446.272 136.257 446.272Z" fill="#4B9EE9" stroke="black" stroke-width="4" stroke-linejoin="round"/>
<path d="M97.5557 379.206C97.5557 379.206 98.3368 403.44 90.5908 416.856C82.8448 430.273 75.5289 433.692 69.5052 430.214C63.4815 426.736 61.7594 418.823 69.5054 405.407C77.2514 391.991 97.5557 379.206 97.5557 379.206Z" fill="#4B9EE9" stroke="black" stroke-width="4" stroke-linejoin="round"/>
<path d="M477.51 436.596C477.51 436.596 479.453 458.818 472.58 470.722C465.708 482.625 458.765 485.398 452.742 481.92C446.718 478.442 444.658 471.115 451.53 459.211C458.403 447.308 477.51 436.596 477.51 436.596Z" fill="#4B9EE9" stroke="black" stroke-width="4" stroke-linejoin="round"/>
<ellipse cx="347.443" cy="239.964" rx="32.0183" ry="35.7735" transform="rotate(11.4399 347.443 239.964)" fill="white" stroke="black" stroke-width="4"/>
<path d="M345.281 205.72C354.86 219.37 365.315 251.266 330.507 269.646C308.732 260.334 311.573 209.434 345.281 205.72Z" fill="black"/>
<ellipse cx="290.886" cy="228.52" rx="32.0183" ry="35.7735" transform="rotate(11.4399 290.886 228.52)" fill="white" stroke="black" stroke-width="4"/>
<path d="M288.588 194.117C298.166 207.767 308.622 239.662 273.813 258.043C252.039 248.731 254.88 197.831 288.588 194.117Z" fill="black"/>
<path d="M355.521 187.392C367.948 187.03 393.673 193.162 397.156 220.592" stroke="black" stroke-width="4" stroke-linecap="round"/>
<path d="M293.667 300.439C275.382 296.645 267.498 293.673 256.888 284.736C240.628 271.041 230.169 284.98 237.426 300.44C243.456 313.287 253.924 326.124 278.749 332.457C304.876 339.122 322.738 338.322 343.799 325.526C360.739 315.233 352.89 301.115 338.554 302.906C326.637 304.395 319.599 305.821 293.667 300.439Z" fill="black" stroke="black" stroke-width="4" stroke-linecap="round" stroke-linejoin="round"/>
<path d="M209.184 385.648L269.069 292.874C295.943 305.163 315.243 304.187 325.264 304.187L273.154 361.149L315.243 360.465L183.488 476.882C182.578 477.686 181.291 476.479 182.036 475.52L252.012 385.416L209.184 385.648Z" fill="#F8C701" stroke="black" stroke-width="4" stroke-linecap="round" stroke-linejoin="round"/>
</svg>
