<svg width="650" height="650" viewBox="0 0 650 650" fill="none" xmlns="http://www.w3.org/2000/svg">
<path d="M158.781 346.505C139.175 346.506 130.189 328.38 128.147 319.317C119.339 289.832 92.9171 311.659 93.3 319.317C93.6829 326.976 111.681 379.437 158.781 380.203C205.882 380.969 231.446 356.441 234.093 337.5C235.984 323.972 217.66 312.204 207.769 316.859C199.079 320.949 183.289 346.505 158.781 346.505Z" fill="#4B9EE9" stroke="black" stroke-width="4" stroke-linecap="round" stroke-linejoin="round"/>
<path d="M209.093 368.001L200.093 323.001C203.093 320.001 211.093 313.201 219.093 310.001C229.093 306.001 242.593 336.001 240.593 343.001C238.993 348.601 218.927 362.001 209.093 368.001Z" fill="black"/>
<path d="M56.049 225.855C46.4004 225.686 45.8925 231.674 47.5852 236.858C47.5852 236.858 42.1083 232.513 37.4532 236.322C29.6851 242.677 39.3502 253.015 39.3502 253.015C30.3396 254.153 29.5809 265.819 45.8925 278.753C57.9141 288.286 59.7202 293.419 65.4331 301.671C70.0035 308.273 82.8506 313.525 87.3646 313.243C87.3646 313.243 84.8924 318.295 90.4785 324.051C97.461 331.245 119.025 320.773 124.95 314.426C130.874 308.078 132.315 299.565 124.95 293.161C119.491 288.414 119.738 279.388 121.008 269.866C122.277 260.345 138.147 248.707 126.932 241.936C115.718 235.165 105.561 263.307 99.6369 263.942C93.7123 264.576 68.1097 226.067 56.049 225.855Z" fill="white" stroke="black" stroke-width="4" stroke-linecap="round" stroke-linejoin="round"/>
<path d="M119.242 304.017C115.511 308.009 103.998 315.478 87.7925 313.418" stroke="black" stroke-width="4" stroke-linecap="round" stroke-linejoin="round"/>
<path d="M47.3711 236.159C51.4235 242.542 62.689 257.799 75.3324 267.768" stroke="black" stroke-width="4" stroke-linecap="round" stroke-linejoin="round"/>
<path d="M39.165 252.724C45.2942 257.89 58.7075 270.169 63.3272 277.949" stroke="black" stroke-width="4" stroke-linecap="round" stroke-linejoin="round"/>
<path d="M375.706 471.127C384.961 427.167 370.565 402.895 362.21 396.254L401.735 390.47C406.877 400.539 412.487 428.196 405.803 471.127C399.119 514.059 371.743 546.939 362.21 557.544C352.141 554.009 341.323 549.021 340.037 548.25C338.431 547.286 364.138 526.077 375.706 471.127Z" fill="#4B9EE9" stroke="black" stroke-width="4" stroke-linecap="round" stroke-linejoin="round"/>
<path d="M408.593 429.5L379.093 439C379.093 429.8 374.093 414.167 371.593 407.5L406.093 398.5L408.593 429.5Z" fill="black"/>
<path d="M377.215 547.768L352.092 532.881C356.802 524.715 363.593 512.382 371.593 487.382C371.593 487.382 382.833 498.613 399.179 496.494C391.798 521.095 382.247 541.586 377.215 547.768Z" fill="white" stroke="black" stroke-width="4" stroke-linecap="round" stroke-linejoin="round"/>
<path d="M339.271 563.546C331.3 558.279 344.627 534.443 354.488 525.665C355.405 527.776 361.049 538.077 367.511 540.796C376.958 544.77 381.589 529.697 391.602 536.344C402.185 543.37 427.087 564.522 430.699 581.065C432.233 588.091 425.095 592.735 417.966 591.79C393.851 588.593 350.325 570.849 339.271 563.546Z" fill="#F8C701" stroke="black" stroke-width="4" stroke-linecap="round"/>
<path d="M430.181 581.793C424.186 589.744 367.378 572.198 338.924 553.533" stroke="black" stroke-width="4" stroke-linecap="round"/>
<path d="M261.308 456.987C288.301 420.74 286.265 392.611 281.874 383.078C278.018 347.088 322.684 362.512 323.006 374.723C323.327 386.934 332.132 418.082 288.593 474.882C264.375 506.475 227.897 533.858 216.65 538.143L203.093 515.382C214.768 508.634 234.315 493.235 261.308 456.987Z" fill="#4B9EE9" stroke="black" stroke-width="4" stroke-linecap="round" stroke-linejoin="round"/>
<path d="M284.093 375V410.5C293.426 419.333 301.093 426 314.093 432C320.593 417 324.426 394.666 325.093 384L284.093 375Z" fill="black"/>
<path d="M216.65 538.142L203.093 515.381C211.254 510.664 223.262 501.719 238.971 484.381C238.971 484.381 246.093 498.382 261.308 504.72C242.616 522.334 224.099 535.305 216.65 538.142Z" fill="white" stroke="black" stroke-width="4" stroke-linecap="round" stroke-linejoin="round"/>
<path d="M181.316 535.8C176.496 527.63 198.763 512.164 211.384 508.625C211.282 510.907 211.835 522.555 216.417 527.794C223.116 535.453 233.81 524.02 239.85 534.309C246.224 545.167 259.205 574.804 255.286 591.154C253.61 598.147 245.16 599.196 239.172 595.214C219.044 581.832 187.992 547.115 181.316 535.8Z" fill="#F8C701" stroke="black" stroke-width="4" stroke-linecap="round"/>
<path d="M254.488 591.655C245.677 596.14 202.628 555.755 185.365 526.714" stroke="black" stroke-width="4" stroke-linecap="round"/>
<path d="M511.984 247.596C495.304 263.125 396.281 330.772 313.909 303.189C261.5 285.639 290.73 335.402 313.91 340.575C424.571 365.272 501.559 293.969 525.644 275.276C549.729 256.583 532.834 228.183 511.984 247.596Z" fill="#4B9EE9" stroke="black" stroke-width="4" stroke-linecap="round" stroke-linejoin="round"/>
<path d="M329.594 307.5C329.594 307.5 301.76 301.333 296.094 299L293.594 340.5C315.427 344.5 351.639 346.5 349.594 345C342.094 339.5 329.594 307.5 329.594 307.5Z" fill="black"/>
<path d="M519.134 235.61C511.938 235.283 508.289 239.108 506.628 243.145C505.319 246.324 508.335 249.032 511.748 249.449C530.496 251.735 531.374 270.969 531.374 272.914C545.922 271.86 565.514 264.585 577.325 255.007C590.941 243.967 620.869 249.645 615.598 234.676C610.327 219.707 579.012 235.61 582.385 224.436C590.397 205.25 593.818 164.147 579.012 163.082C567.699 162.269 566.994 172.991 566.994 172.991C556.368 169.955 552.787 177.582 552.024 185.22C552.024 185.22 551.115 178.25 544.645 182.057C534.461 188.05 533.049 236.243 519.134 235.61Z" fill="white" stroke="black" stroke-width="4" stroke-linecap="round" stroke-linejoin="round"/>
<path d="M551.989 184.11C552.525 191.496 548.951 210.626 542.519 222.347" stroke="black" stroke-width="4" stroke-linecap="round" stroke-linejoin="round"/>
<path d="M566.82 173.21C567.356 180.596 565.568 208.482 559.136 220.203" stroke="black" stroke-width="4" stroke-linecap="round" stroke-linejoin="round"/>
<path d="M529.025 242.09C537.245 245.613 545.381 253.69 543.705 269.05" stroke="black" stroke-width="4" stroke-linecap="round" stroke-linejoin="round"/>
<path d="M198.125 264.858C198.125 352.69 269.328 423.893 357.16 423.893C421.288 423.893 477.296 384.21 502.62 329.156C504.085 325.97 499.836 323.814 497.656 326.562C474.545 355.703 446.393 370.232 407.667 370.232C345.936 370.232 304.192 326.589 304.192 264.858C304.192 203.126 345.936 157.77 407.667 157.77C447.189 157.77 475.118 174.587 498.821 204.345C500.97 207.043 505.066 204.934 503.671 201.78C478.871 145.699 422.191 105.822 357.16 105.822C269.328 105.822 198.125 177.025 198.125 264.858Z" fill="#F8C701" stroke="black" stroke-width="4" stroke-linecap="round" stroke-linejoin="round"/>
<ellipse rx="21.4518" ry="28.9357" transform="matrix(0.990756 0.135659 0.135659 -0.990756 237.613 239.1)" fill="white" stroke="black" stroke-width="4" stroke-linecap="round"/>
<path d="M243.254 267.42C252.966 260.103 268.382 239.406 252.346 215.151C236.421 215.541 223.735 254.465 243.254 267.42Z" fill="black"/>
<ellipse rx="21.4518" ry="28.9357" transform="matrix(0.990756 0.135659 0.135659 -0.990756 274.953 242.554)" fill="white" stroke="black" stroke-width="4" stroke-linecap="round"/>
<path d="M280.611 270.746C290.324 263.43 305.739 242.733 289.704 218.477C273.778 218.867 261.093 257.792 280.611 270.746Z" fill="black"/>
<path d="M214.758 296.985C217.999 295.71 224.96 290.59 226.876 280.307" stroke="black" stroke-width="4" stroke-linecap="round"/>
<path d="M223.421 290.508C230 304.299 271.69 320.169 292.321 286.783" stroke="black" stroke-width="4" stroke-linecap="round"/>
<path d="M168.148 92.3024C168.249 90.2974 170.911 89.6747 171.891 91.4268L184.782 114.474C185.105 115.052 185.694 115.433 186.354 115.49L209.69 117.515C211.616 117.682 212.208 120.213 210.556 121.217L190.54 133.382C189.973 133.727 189.614 134.329 189.581 134.991L188.251 161.364C188.15 163.37 185.488 163.992 184.508 162.24L171.617 139.193C171.294 138.614 170.705 138.234 170.045 138.177L146.709 136.152C144.783 135.985 144.191 133.454 145.843 132.45L165.859 120.285C166.426 119.94 166.785 119.338 166.818 118.676L168.148 92.3024Z" fill="#F8C701" stroke="black" stroke-width="4" stroke-linecap="round"/>
<path d="M516.012 394.216C516.395 392.245 519.118 392.003 519.841 393.876L528.151 415.389C528.39 416.007 528.919 416.467 529.565 416.617L549.487 421.237C551.37 421.674 551.599 424.262 549.822 425.024L531.024 433.077C530.415 433.338 529.975 433.884 529.849 434.535L525.454 457.174C525.072 459.145 522.348 459.387 521.625 457.514L513.315 436.001C513.076 435.383 512.547 434.923 511.901 434.773L491.98 430.153C490.097 429.716 489.867 427.128 491.644 426.366L510.442 418.313C511.051 418.052 511.491 417.506 511.617 416.855L516.012 394.216Z" fill="#F8C701" stroke="black" stroke-width="4" stroke-linecap="round"/>
<path d="M210.77 37.2698C210.871 35.2647 213.533 34.6421 214.513 36.3942L220.786 47.6096C221.109 48.188 221.698 48.5686 222.359 48.6258L233.689 49.6089C235.615 49.776 236.207 52.3065 234.555 53.3105L224.836 59.2176C224.27 59.5617 223.911 60.1641 223.878 60.8259L223.23 73.6601C223.129 75.6651 220.467 76.2878 219.487 74.5357L213.215 63.3203C212.891 62.7419 212.302 62.3613 211.642 62.304L200.311 61.321C198.385 61.1539 197.793 58.6233 199.445 57.6194L209.164 51.7123C209.731 51.3681 210.09 50.7658 210.123 50.1039L210.77 37.2698Z" fill="#F8C701" stroke="black" stroke-width="4" stroke-linecap="round"/>
</svg>
