<svg width="650" height="650" viewBox="0 0 650 650" fill="none" xmlns="http://www.w3.org/2000/svg">
<path d="M297.887 183.837C300.888 245.968 259.964 312.337 175.887 312.337C132.683 314.424 91.9695 285.009 70.7767 248.085C69.031 245.043 73.1515 242.588 75.6226 245.076C91.9888 261.558 111.199 269.244 136.249 268.034C179.916 265.924 207.953 233.626 205.843 189.959C203.734 146.292 172.655 115.635 128.988 117.744C103.095 118.995 84.7291 130.111 69.6453 149.114C67.5012 151.815 63.366 149.855 64.7277 146.687C81.7267 107.13 119.825 73.4649 163.887 71.3362C246.834 63.9015 294.885 121.706 297.887 183.837Z" fill="#F8C701" stroke="black" stroke-width="4" stroke-linecap="round" stroke-linejoin="round"/>
<ellipse rx="15.7955" ry="21.3061" transform="matrix(0.950932 -0.309401 -0.309401 -0.950932 219.375 139.67)" fill="white" stroke="black" stroke-width="4" stroke-linecap="round"/>
<path d="M232.195 156.633C236.286 148.669 239.867 130.007 221.459 119.072C211.029 124.438 215.104 154.306 232.195 156.633Z" fill="black"/>
<ellipse rx="15.7955" ry="21.3061" transform="matrix(0.950932 -0.309401 -0.309401 -0.950932 245.232 129.985)" fill="white" stroke="black" stroke-width="4" stroke-linecap="round"/>
<path d="M258.024 146.857C262.115 138.892 265.695 120.23 247.287 109.296C236.857 114.662 240.932 144.53 258.024 146.857Z" fill="black"/>
<path d="M270.741 156.684C270.113 175.22 239.217 191.891 217.572 175.127" stroke="black" stroke-width="4" stroke-linecap="round"/>
<path d="M264.648 152.829C266.438 154.221 271.416 156.809 277.019 156.026" stroke="black" stroke-width="4" stroke-linecap="round"/>
<path d="M286.179 433.596C286.179 433.596 286.96 457.829 279.214 471.246C271.468 484.662 264.152 488.081 258.128 484.604C252.105 481.126 250.382 473.213 258.128 459.797C265.874 446.38 286.179 433.596 286.179 433.596Z" fill="#4B9EE9" stroke="black" stroke-width="4" stroke-linejoin="round"/>
<path d="M300.95 514.776C300.95 514.776 301.731 539.01 293.985 552.427C286.239 565.843 278.923 569.262 272.9 565.784C266.876 562.306 265.154 554.394 272.9 540.977C280.646 527.561 300.95 514.776 300.95 514.776Z" fill="#4B9EE9" stroke="black" stroke-width="4" stroke-linejoin="round"/>
<path d="M370.857 444.924C370.857 444.924 372.871 469.086 365.818 482.88C358.765 496.673 351.633 500.46 345.44 497.294C339.247 494.127 337.124 486.312 344.177 472.519C351.23 458.725 370.857 444.924 370.857 444.924Z" fill="#4B9EE9" stroke="black" stroke-width="4" stroke-linejoin="round"/>
<path d="M458.179 445.596C458.179 445.596 458.96 469.829 451.214 483.246C443.468 496.662 436.152 500.081 430.128 496.604C424.105 493.126 422.382 485.213 430.128 471.797C437.874 458.38 458.179 445.596 458.179 445.596Z" fill="#4B9EE9" stroke="black" stroke-width="4" stroke-linejoin="round"/>
<path d="M396.179 527.596C396.179 527.596 396.96 551.829 389.214 565.246C381.468 578.662 374.152 582.081 368.128 578.604C362.105 575.126 360.382 567.213 368.128 553.797C375.874 540.38 396.179 527.596 396.179 527.596Z" fill="#4B9EE9" stroke="black" stroke-width="4" stroke-linejoin="round"/>
<path d="M290.511 173.424C250.21 198.154 249.574 244.965 256.227 264.64C218.302 230.915 129.589 275.404 154.938 365.505C178.536 449.384 295.442 401.516 295.442 401.516C332.006 428.041 391.318 414.838 409.028 393.206C621.388 506.336 646.388 216.837 479.888 241.836C486.388 220.336 479.506 210.154 466.888 200.336C451.872 188.654 432.726 188.749 416.888 200.336C409.028 168.337 342.877 141.291 290.511 173.424Z" fill="#4B9EE9" stroke="black" stroke-width="4" stroke-linejoin="round"/>
<ellipse rx="32.9747" ry="22.3854" transform="matrix(-1 0 0 1 310.366 265.972)" fill="white" stroke="black" stroke-width="4"/>
<ellipse rx="22.6646" ry="20.4489" transform="matrix(-1 0 0 1 321.956 265.973)" fill="black"/>
<ellipse rx="32.9747" ry="22.3854" transform="matrix(-1 0 0 1 367.91 265.972)" fill="white" stroke="black" stroke-width="4"/>
<ellipse rx="22.6646" ry="20.4489" transform="matrix(-1 0 0 1 378.22 265.973)" fill="black"/>
<path d="M379.117 301.642C372.91 293.021 362.738 301.642 337.953 301.642C313.168 301.642 302.823 291.728 295.28 301.642C287.736 311.555 299.806 330.737 337.953 330.737C376.1 330.737 386.876 312.418 379.117 301.642Z" fill="#F8C701" stroke="black" stroke-width="4" stroke-linecap="round" stroke-linejoin="round"/>
<path d="M369.419 310.263C357.637 314.717 328.556 320.953 306.487 310.263" stroke="black" stroke-width="4" stroke-linecap="round" stroke-linejoin="round"/>
<path d="M408.568 239.419C406.137 227.88 374.8 213.723 352.106 227.167" stroke="black" stroke-width="4" stroke-linecap="round" stroke-linejoin="round"/>
<path d="M320.5 227C307.5 220.5 287.5 222.5 278.926 233.565" stroke="black" stroke-width="4" stroke-linecap="round" stroke-linejoin="round"/>
<path d="M524.671 144.957C525.6 143.177 528.278 143.723 528.437 145.725L530.259 168.715C530.312 169.376 530.688 169.967 531.264 170.295L549.037 180.411C550.717 181.367 550.198 183.913 548.278 184.136L527.963 186.487C527.305 186.564 526.727 186.961 526.42 187.548L515.745 207.991C514.816 209.771 512.137 209.225 511.978 207.223L510.156 184.233C510.104 183.573 509.728 182.981 509.152 182.653L491.378 172.538C489.698 171.581 490.217 169.035 492.138 168.813L512.452 166.461C513.111 166.385 513.688 165.987 513.995 165.4L524.671 144.957Z" fill="#F8C701" stroke="black" stroke-width="4" stroke-linecap="round"/>
<path d="M97.2632 323.173C97.5035 321.18 100.202 320.743 101.058 322.559L109.134 339.697C109.417 340.297 109.978 340.717 110.632 340.82L127.219 343.431C129.128 343.731 129.543 346.297 127.825 347.184L112.905 354.886C112.316 355.19 111.916 355.766 111.837 356.424L109.57 375.233C109.33 377.226 106.631 377.662 105.775 375.846L97.699 358.708C97.4165 358.109 96.8555 357.688 96.2008 357.585L79.6142 354.975C77.7047 354.674 77.2901 352.108 79.0078 351.222L93.9278 343.52C94.5167 343.216 94.9167 342.64 94.996 341.982L97.2632 323.173Z" fill="#F8C701" stroke="black" stroke-width="4" stroke-linecap="round"/>
</svg>
