<svg width="553" height="366" viewBox="0 0 553 366" fill="none" xmlns="http://www.w3.org/2000/svg">
<path d="M243.892 118.837C246.893 180.968 205.969 247.337 121.892 247.337C78.688 249.424 37.9743 220.009 16.7816 183.085C15.0359 180.043 19.1564 177.588 21.6275 180.076C37.9937 196.558 57.2039 204.244 82.2535 203.034C125.921 200.924 153.958 168.626 151.848 124.959C149.738 81.2915 118.66 50.6347 74.9928 52.7443C49.0996 53.9953 30.734 65.1111 15.6502 84.1138C13.5061 86.8149 9.3709 84.8553 10.7325 81.6868C27.7315 42.1303 65.8304 8.46492 109.892 6.33623C192.839 -1.09851 240.89 56.7064 243.892 118.837Z" fill="#F8C701" stroke="black" stroke-width="4" stroke-linecap="round" stroke-linejoin="round"/>
<ellipse rx="15.7955" ry="21.3061" transform="matrix(0.950932 -0.309401 -0.309401 -0.950932 165.381 74.6696)" fill="white" stroke="black" stroke-width="4" stroke-linecap="round"/>
<path d="M178.201 91.633C182.292 83.6688 185.873 65.0067 167.465 54.0722C157.034 59.438 161.11 89.306 178.201 91.633Z" fill="black"/>
<ellipse rx="15.7955" ry="21.3061" transform="matrix(0.950932 -0.309401 -0.309401 -0.950932 191.238 64.985)" fill="white" stroke="black" stroke-width="4" stroke-linecap="round"/>
<path d="M204.029 81.8567C208.12 73.8924 211.701 55.2303 193.293 44.2958C182.862 49.6617 186.938 79.5296 204.029 81.8567Z" fill="black"/>
<path d="M216.747 91.6836C216.119 110.22 185.222 126.891 163.578 110.127" stroke="black" stroke-width="4" stroke-linecap="round"/>
<path d="M210.654 87.8291C212.443 89.221 217.422 91.8091 223.025 91.0263" stroke="black" stroke-width="4" stroke-linecap="round"/>
<path d="M514.468 89.2636C515.835 87.7936 518.274 89.0294 517.897 91.0012L513.567 113.653C513.442 114.304 513.649 114.975 514.117 115.443L528.578 129.904C529.945 131.27 528.77 133.589 526.86 133.295L506.647 130.184C505.992 130.083 505.33 130.313 504.878 130.798L489.171 147.685C487.804 149.155 485.366 147.919 485.743 145.947L490.073 123.295C490.197 122.644 489.991 121.974 489.522 121.505L475.061 107.045C473.695 105.678 474.869 103.36 476.78 103.654L496.992 106.765C497.647 106.866 498.31 106.636 498.761 106.15L514.468 89.2636Z" fill="#F8C701" stroke="black" stroke-width="4" stroke-linecap="round"/>
<path d="M277.465 32.8217C276.999 30.8691 279.379 29.5236 280.811 30.9298L289.609 39.564C290.082 40.0282 290.754 40.228 291.404 40.0975L302.098 37.9491C303.993 37.5684 305.272 39.8307 303.969 41.2583L296.615 49.3142C296.168 49.8036 295.993 50.4826 296.147 51.1272L299.01 63.1167C299.476 65.0693 297.096 66.4148 295.664 65.0086L286.866 56.3744C286.393 55.9102 285.721 55.7104 285.071 55.8409L274.377 57.9893C272.482 58.37 271.203 56.1077 272.506 54.6801L279.86 46.6242C280.307 46.1348 280.482 45.4558 280.328 44.8112L277.465 32.8217Z" fill="#F8C701" stroke="black" stroke-width="4" stroke-linecap="round"/>
<path d="M80.2691 289.173C80.5093 287.18 83.2081 286.743 84.0639 288.559L92.14 305.697C92.4225 306.297 92.9835 306.717 93.6382 306.82L110.225 309.431C112.134 309.731 112.549 312.297 110.831 313.184L95.9112 320.886C95.3223 321.19 94.9223 321.766 94.843 322.424L92.5758 341.233C92.3356 343.226 89.6368 343.662 88.781 341.846L80.7049 324.708C80.4224 324.109 79.8613 323.688 79.2067 323.585L62.6201 320.975C60.7106 320.674 60.296 318.108 62.0136 317.222L76.9337 309.52C77.5225 309.216 77.9226 308.64 78.0019 307.982L80.2691 289.173Z" fill="#F8C701" stroke="black" stroke-width="4" stroke-linecap="round"/>
<path d="M409.332 109.299C447.394 132.654 447.994 176.863 441.71 195.445C477.527 163.594 561.31 205.61 537.37 290.703C515.083 369.919 404.676 324.712 404.676 324.712C370.144 349.763 314.129 337.293 297.403 316.864C109.217 424.777 105.54 147.495 233.98 176.298C225.48 153.161 238.118 131.74 250.035 122.468C264.216 111.435 285.932 110.18 300.89 121.124C309.874 106.022 359.877 78.9521 409.332 109.299Z" fill="#4B9EE9" stroke="black" stroke-width="4" stroke-linejoin="round"/>
<ellipse cx="351.428" cy="187.736" rx="27.306" ry="30.5086" transform="rotate(7.00713 351.428 187.736)" fill="white" stroke="black" stroke-width="4"/>
<path d="M347.683 159.446C356.728 170.421 367.72 196.851 339.335 214.774C320.207 208.292 319.267 164.825 347.683 159.446Z" fill="black"/>
<ellipse cx="302.584" cy="181.733" rx="27.306" ry="30.5086" transform="rotate(7.00713 302.584 181.733)" fill="white" stroke="black" stroke-width="4"/>
<path d="M298.362 152.633C307.406 163.608 318.399 190.038 290.014 207.961C270.886 201.479 269.946 158.012 298.362 152.633Z" fill="black"/>
<path d="M389.062 163.509C387.681 156.788 379.947 143.621 360.059 144.726" stroke="black" stroke-width="4" stroke-linecap="round"/>
<path d="M286.395 142.257C291.337 137.497 305.164 131.018 320.936 143.183" stroke="black" stroke-width="4" stroke-linecap="round"/>
<path d="M277.899 230.129C284.632 222.692 298.176 236.131 321.437 238.741C344.699 241.352 359.466 227.274 366.297 236.852C375.645 249.962 353.934 265.425 318.132 261.408C282.33 257.39 267.861 241.216 277.899 230.129Z" fill="#F8C701" stroke="black" stroke-width="4" stroke-linecap="round" stroke-linejoin="round"/>
<path d="M285.454 237.686C285.454 237.686 295.37 247.603 319.453 249.963C343.536 252.323 357.23 243.351 357.23 243.351" stroke="black" stroke-width="4" stroke-linecap="round"/>
</svg>
