<svg width="256" height="256" viewBox="0 0 256 256" fill="none" xmlns="http://www.w3.org/2000/svg">
<rect width="256" height="256" rx="60" fill="#FBC92D"/>
<path d="M64.9003 142.806C60.7371 153.983 50.0155 160.308 40.953 156.932C31.8906 153.556 27.919 141.759 32.0822 130.582C36.2455 119.405 46.967 113.081 56.0295 116.456C65.092 119.832 69.0636 131.629 64.9003 142.806Z" fill="#FC9596"/>
<path d="M195.632 151.231C197.414 162.26 206.108 170.029 215.05 168.584C223.993 167.139 229.797 157.027 228.015 145.998C226.232 134.969 217.538 127.2 208.596 128.645C199.654 130.09 193.849 140.202 195.632 151.231Z" fill="#FC9596"/>
<path fill-rule="evenodd" clip-rule="evenodd" d="M55.4944 117.893C47.4921 114.912 37.4968 120.437 33.5188 131.117C29.5407 141.797 33.4859 152.515 41.4881 155.495C49.4904 158.476 59.4857 152.951 63.4638 142.271C67.4418 131.591 63.4967 120.874 55.4944 117.893ZM30.6457 130.047C34.9941 118.373 46.4419 111.249 56.5646 115.02C66.6873 118.79 70.6853 131.667 66.3369 143.341C61.9884 155.016 50.5406 162.139 40.418 158.368C30.2953 154.598 26.2972 141.721 30.6457 130.047Z" fill="black"/>
<path fill-rule="evenodd" clip-rule="evenodd" d="M208.84 130.158C216.666 128.894 224.804 135.737 226.501 146.242C228.199 156.747 222.631 165.806 214.806 167.071C206.98 168.335 198.843 161.492 197.145 150.987C195.447 140.482 201.015 131.423 208.84 130.158ZM229.528 145.753C227.661 134.2 218.411 125.506 208.351 127.132C198.292 128.757 192.251 139.923 194.118 151.476C195.985 163.029 205.236 171.723 215.295 170.097C225.354 168.472 231.395 157.306 229.528 145.753Z" fill="black"/>
<path d="M87.4536 111.339C85.4899 128 94.5631 142.35 107.719 143.39C120.875 144.43 133.132 131.767 135.096 115.106C137.059 98.4456 127.986 84.0962 114.83 83.056C101.674 82.0157 89.4174 94.6787 87.4536 111.339Z" fill="white"/>
<path fill-rule="evenodd" clip-rule="evenodd" d="M114.651 84.5784C126.642 85.5265 135.475 98.805 133.568 114.986C131.66 131.166 119.889 142.815 107.899 141.867C95.9079 140.919 87.0747 127.641 88.9819 111.46C90.889 95.2797 102.66 83.6303 114.651 84.5784ZM136.624 115.227C138.644 98.0863 129.331 82.6659 115.01 81.5335C100.688 80.4012 87.9457 94.0776 85.9254 111.219C83.9051 128.36 93.2183 143.78 107.54 144.912C121.861 146.045 134.604 132.368 136.624 115.227Z" fill="black"/>
<path d="M121.362 85.3496C111.222 94.3181 95.3757 119.011 115.569 141.817C133.299 139.126 144.367 95.9572 121.362 85.3496Z" fill="black"/>
<path d="M130.384 114.733C128.42 131.394 137.493 145.743 150.649 146.784C163.805 147.824 176.062 135.161 178.026 118.5C179.99 101.839 170.917 87.49 157.761 86.4498C144.605 85.4095 132.348 98.0725 130.384 114.733Z" fill="white"/>
<path fill-rule="evenodd" clip-rule="evenodd" d="M157.581 87.9722C169.572 88.9203 178.405 102.199 176.498 118.379C174.591 134.56 162.819 146.209 150.829 145.261C138.838 144.313 130.005 131.035 131.912 114.854C133.819 98.6735 145.59 87.0241 157.581 87.9722ZM179.554 118.621C181.575 101.48 172.261 86.0597 157.94 84.9273C143.619 83.795 130.876 97.4714 128.856 114.612C126.835 131.753 136.149 147.174 150.47 148.306C164.791 149.438 177.534 135.762 179.554 118.621Z" fill="black"/>
<path d="M164.264 89.1019C154.124 98.0705 138.892 121.709 159.085 144.515C176.815 141.825 187.269 99.7095 164.264 89.1019Z" fill="black"/>
<path fill-rule="evenodd" clip-rule="evenodd" d="M188.53 82.0586C184.975 71.0184 173.558 68.4273 165.834 71.1093C164.934 71.4217 163.951 70.9456 163.639 70.0458C163.326 69.146 163.803 68.1634 164.702 67.8509C173.69 64.7301 187.496 67.5965 191.813 81.0013C192.105 81.9079 191.607 82.8795 190.7 83.1715C189.794 83.4635 188.822 82.9652 188.53 82.0586Z" fill="black"/>
<path fill-rule="evenodd" clip-rule="evenodd" d="M91.9263 69.9205C97.6813 60.6711 110.537 60.3281 118.908 66.7281C119.665 67.3066 120.747 67.1621 121.326 66.4055C121.904 65.6488 121.76 64.5664 121.003 63.988C111.554 56.764 96.1571 56.5918 88.9978 68.0983C88.4946 68.907 88.7423 69.9705 89.551 70.4737C90.3597 70.9769 91.4232 70.7292 91.9263 69.9205Z" fill="black"/>
<path d="M85.0332 159.538C95.7596 150.234 105.045 170.457 129.521 172.72C153.997 174.983 165.085 157.773 172.361 169.424C178.948 179.972 156.166 198.79 125.909 195.993C92.9811 192.948 74.7089 168.494 85.0332 159.538Z" fill="#FC9596"/>
<path fill-rule="evenodd" clip-rule="evenodd" d="M103.953 161.126C110.51 165.216 118.426 170.154 129.662 171.193C140.878 172.23 149.168 169.057 155.762 166.533C156.129 166.392 156.49 166.254 156.846 166.119C160.152 164.862 163.276 163.74 166.078 163.81C167.535 163.846 168.934 164.2 170.242 165.01C171.539 165.814 172.662 167.012 173.661 168.612C175.68 171.845 175.346 175.604 173.494 179.132C171.653 182.636 168.259 186.067 163.792 188.995C154.84 194.864 141.232 198.949 125.767 197.519C108.968 195.966 95.8188 188.945 88.1517 181.05C84.3277 177.112 81.7904 172.874 80.9354 168.907C80.069 164.886 80.9362 161.063 84.0287 158.38C85.5182 157.088 87.0469 156.255 88.6477 155.853C90.2498 155.451 91.8354 155.505 93.405 155.859C96.4627 156.548 99.6139 158.429 102.93 160.489C103.267 160.698 103.608 160.911 103.953 161.126ZM89.3934 158.827C88.3377 159.092 87.2299 159.662 86.0377 160.696C83.9682 162.491 83.2477 165.083 83.9326 168.261C84.629 171.493 86.7819 175.238 90.3513 178.914C97.471 186.246 109.922 192.975 126.05 194.466C140.843 195.834 153.755 191.909 162.111 186.431C166.298 183.686 169.255 180.609 170.779 177.706C172.291 174.827 172.335 172.278 171.061 170.236C170.241 168.924 169.426 168.111 168.628 167.617C167.842 167.13 166.989 166.899 166.002 166.875C163.913 166.823 161.371 167.678 157.936 168.984C157.567 169.125 157.191 169.269 156.807 169.416C150.199 171.948 141.323 175.35 129.38 174.246C117.402 173.139 108.937 167.853 102.395 163.768C102.028 163.539 101.667 163.314 101.312 163.093C97.9063 160.978 95.1953 159.405 92.7304 158.849C91.5386 158.581 90.4478 158.563 89.3934 158.827Z" fill="black"/>
<path fill-rule="evenodd" clip-rule="evenodd" d="M93.8756 168.195C94.5174 167.643 95.4853 167.716 96.0375 168.357C101.372 174.557 112.22 180.512 124.52 182.752C136.783 184.984 150.188 183.47 160.749 175.146C161.414 174.622 162.378 174.736 162.902 175.401C163.426 176.066 163.312 177.03 162.647 177.554C151.192 186.583 136.806 188.104 123.971 185.768C111.174 183.438 99.6191 177.221 93.7134 170.357C93.1612 169.715 93.2338 168.747 93.8756 168.195Z" fill="black"/>
</svg>
